<svg width="428" height="405" viewBox="0 0 428 405" fill="none" xmlns="http://www.w3.org/2000/svg">
<path d="M0.00529433 57.6901C-0.0748753 58.7918 0.753215 59.7499 1.85489 59.83L19.8074 61.1362C20.9091 61.2164 21.8671 60.3883 21.9473 59.2866C22.0274 58.185 21.1994 57.2269 20.0977 57.1468L4.13986 55.9857L5.30095 40.0279C5.38108 38.9262 4.55298 37.9682 3.45136 37.888C2.34969 37.8079 1.39162 38.636 1.3115 39.7376L0.00529433 57.6901ZM392.733 197.929L390.747 198.168L392.733 197.929ZM3.30786 59.3484C4.23323 58.5486 5.20478 57.7437 6.22139 56.9349L3.73104 53.8047C2.67442 54.6453 1.66092 55.4848 0.69214 56.3222L3.30786 59.3484ZM12.5509 52.2516C14.639 50.8069 16.8574 49.3584 19.199 47.9121L17.097 44.5089C14.7008 45.989 12.4242 47.4752 10.275 48.9622L12.5509 52.2516ZM26.0136 43.9053C28.2377 42.6584 30.5485 41.4177 32.9411 40.1872L31.1118 36.6301C28.6783 37.8816 26.3251 39.1448 24.0574 40.4163L26.0136 43.9053ZM40.0733 36.6659C42.4236 35.5512 44.8393 34.4485 47.3165 33.3609L45.7084 29.6984C43.1965 30.8013 40.7455 31.92 38.3592 33.0517L40.0733 36.6659ZM54.5797 30.288C57.0094 29.2976 59.4897 28.323 62.0173 27.3667L60.6019 23.6255C58.0431 24.5936 55.5313 25.5806 53.0698 26.5839L54.5797 30.288ZM69.4442 24.6585C71.9171 23.7899 74.4294 22.9399 76.9783 22.1104L75.7406 18.3067C73.1623 19.1457 70.6208 20.0057 68.1186 20.8846L69.4442 24.6585ZM84.5692 19.7349C87.0784 18.9806 89.6187 18.247 92.1877 17.5362L91.121 13.681C88.5235 14.3998 85.9549 15.1415 83.4176 15.9043L84.5692 19.7349ZM99.8968 15.494C102.438 14.8506 105.004 14.2301 107.593 13.6342L106.696 9.73616C104.079 10.3385 101.484 10.9658 98.9151 11.6164L99.8968 15.494ZM115.389 11.9294C117.959 11.3968 120.549 10.8893 123.155 10.4085L122.43 6.47487C119.794 6.96106 117.176 7.47417 114.577 8.01261L115.389 11.9294ZM131.015 9.04916C133.61 8.63009 136.22 8.23829 138.843 7.8752L138.295 3.91298C135.642 4.28022 133.002 4.67651 130.377 5.10029L131.015 9.04916ZM146.745 6.87397C149.362 6.57311 151.99 6.30176 154.627 6.06138L154.263 2.07789C151.595 2.32117 148.936 2.59574 146.288 2.90016L146.745 6.87397ZM162.557 5.43466C165.189 5.25881 167.828 5.11487 170.472 5.0042L170.305 1.00769C167.627 1.11977 164.955 1.26554 162.29 1.44354L162.557 5.43466ZM178.415 4.77338C181.056 4.73078 183.699 4.72255 186.344 4.75006L186.386 0.750283C183.705 0.722393 181.026 0.730747 178.35 0.773905L178.415 4.77338ZM194.279 4.94107C196.92 5.04121 199.56 5.17834 202.197 5.35378L202.463 1.36259C199.787 1.18458 197.109 1.04551 194.43 0.943942L194.279 4.94107ZM210.1 5.99637C212.731 6.24988 215.358 6.54305 217.978 6.87725L218.484 2.9094C215.823 2.5699 213.155 2.27217 210.484 2.01481L210.1 5.99637ZM225.819 8.00431C228.429 8.42242 231.03 8.88301 233.621 9.38741L234.385 5.46113C231.75 4.94804 229.104 4.47972 226.452 4.05469L225.819 8.00431ZM241.363 11.0334C243.936 11.6275 246.497 12.2669 249.044 12.9528L250.084 9.09043C247.489 8.39173 244.882 7.74071 242.263 7.13599L241.363 11.0334ZM256.643 15.1518C259.161 15.9324 261.664 16.7608 264.15 17.6386L265.482 13.8669C262.946 12.9715 260.394 12.1268 257.827 11.3311L256.643 15.1518ZM271.553 20.421C273.997 21.3964 276.421 22.4221 278.825 23.4995L280.461 19.8494C278.006 18.7489 275.53 17.7016 273.036 16.706L271.553 20.421ZM285.973 26.8882C288.319 28.063 290.643 29.2903 292.943 30.5713L294.889 27.0767C292.537 25.7669 290.161 24.5123 287.764 23.3116L285.973 26.8882ZM299.769 34.5769C301.995 35.951 304.195 37.379 306.368 38.8621L308.623 35.558C306.399 34.0403 304.147 32.5792 301.871 31.1735L299.769 34.5769ZM312.806 43.4776C314.889 45.0453 316.945 46.6677 318.971 48.3458L321.522 45.265C319.448 43.5471 317.344 41.8864 315.212 40.2818L312.806 43.4776ZM324.956 53.5436C326.879 55.294 328.773 57.0991 330.636 58.96L333.463 56.1297C331.556 54.2252 329.617 52.3776 327.649 50.5857L324.956 53.5436ZM336.114 64.6899C337.865 66.6092 339.587 68.5824 341.277 70.6107L344.35 68.0503C342.621 65.9758 340.86 63.9571 339.068 61.9933L336.114 64.6899ZM346.205 76.8024C347.782 78.8766 349.328 81.0036 350.842 83.1846L354.128 80.9038C352.581 78.6756 351.001 76.5018 349.389 74.3814L346.205 76.8024ZM355.198 89.7522C356.604 91.9708 357.978 94.2411 359.319 96.564L362.783 94.5636C361.415 92.1937 360.012 89.8766 358.577 87.6114L355.198 89.7522ZM363.099 103.414C364.328 105.747 365.526 108.129 366.691 110.562L370.299 108.833C369.111 106.355 367.891 103.928 366.638 101.55L363.099 103.414ZM369.947 117.682C370.989 120.074 372.002 122.512 372.984 124.996L376.704 123.526C375.705 120.999 374.675 118.519 373.613 116.084L369.947 117.682ZM375.799 132.479C376.664 134.902 377.502 137.366 378.312 139.872L382.118 138.643C381.296 136.098 380.445 133.595 379.565 131.133L375.799 132.479ZM380.653 147.52C381.379 150.025 382.078 152.571 382.749 155.157L386.62 154.153C385.94 151.53 385.232 148.948 384.495 146.406L380.653 147.52ZM384.617 162.783C385.213 165.364 385.782 167.983 386.323 170.641L390.242 169.843C389.694 167.151 389.118 164.498 388.514 161.883L384.617 162.783ZM387.803 178.394C388.258 180.944 388.688 183.529 389.094 186.148L393.047 185.536C392.637 182.887 392.201 180.272 391.741 177.692L387.803 178.394ZM390.234 194.109C390.412 195.453 390.583 196.806 390.747 198.168L394.718 197.689C394.552 196.312 394.379 194.945 394.2 193.586L390.234 194.109ZM390.747 198.168C390.911 199.523 391.079 200.871 391.252 202.211L395.219 201.7C395.048 200.37 394.881 199.033 394.718 197.689L390.747 198.168ZM392.345 210.171C392.727 212.796 393.128 215.394 393.547 217.963L397.495 217.319C397.08 214.773 396.682 212.198 396.303 209.594L392.345 210.171ZM394.893 225.773C395.377 228.438 395.881 231.073 396.406 233.676L400.327 232.885C399.808 230.308 399.308 227.699 398.828 225.058L394.893 225.773ZM398.041 241.392C398.623 244.007 399.226 246.589 399.85 249.139L403.736 248.188C403.118 245.666 402.521 243.111 401.946 240.523L398.041 241.392ZM401.848 256.917C402.536 259.475 403.246 261.998 403.979 264.486L407.816 263.357C407.092 260.899 406.39 258.406 405.71 255.878L401.848 256.917ZM406.345 272.164C407.17 274.724 408.02 277.246 408.895 279.73L412.668 278.401C411.805 275.952 410.967 273.464 410.152 270.937L406.345 272.164ZM411.613 287.119C412.59 289.663 413.594 292.164 414.626 294.622L418.314 293.074C417.299 290.654 416.31 288.191 415.347 285.685L411.613 287.119ZM417.801 301.869C418.925 304.328 420.079 306.741 421.261 309.109L424.84 307.322C423.678 304.996 422.544 302.623 421.438 300.205L417.801 301.869ZM424.956 316.192C426.238 318.544 427.551 320.849 428.894 323.104L432.331 321.059C431.014 318.847 429.727 316.587 428.468 314.278L424.956 316.192ZM433.144 329.932C434.601 332.167 436.089 334.351 437.609 336.483L440.866 334.162C439.379 332.076 437.922 329.938 436.496 327.749L433.144 329.932ZM442.439 342.951C444.083 345.051 445.761 347.096 447.472 349.086L450.505 346.478C448.834 344.535 447.196 342.538 445.589 340.485L442.439 342.951ZM452.885 355.08C454.725 357.02 456.6 358.901 458.511 360.724L461.272 357.829C459.41 356.053 457.582 354.219 455.787 352.327L452.885 355.08ZM464.48 366.132C466.51 367.876 468.575 369.56 470.676 371.182L473.121 368.016C471.076 366.437 469.064 364.798 467.088 363.098L464.48 366.132ZM477.168 375.924C479.371 377.444 481.609 378.902 483.883 380.297L485.975 376.888C483.762 375.53 481.584 374.111 479.44 372.632L477.168 375.924ZM490.831 384.308C493.182 385.583 495.569 386.795 497.99 387.946L499.707 384.333C497.349 383.213 495.026 382.032 492.737 380.791L490.831 384.308ZM505.304 391.191C507.775 392.211 510.279 393.171 512.815 394.07L514.152 390.3C511.678 389.423 509.238 388.488 506.831 387.494L505.304 391.191ZM520.399 396.55C522.957 397.318 525.545 398.028 528.164 398.68L529.13 394.798C526.572 394.161 524.045 393.468 521.549 392.719L520.399 396.55ZM535.93 400.426C538.542 400.953 541.183 401.425 543.853 401.842L544.471 397.89C541.858 397.482 539.274 397.02 536.72 396.505L535.93 400.426ZM551.731 402.909C554.37 403.212 557.036 403.464 559.727 403.666L560.026 399.677C557.386 399.479 554.773 399.232 552.187 398.935L551.731 402.909ZM567.671 404.115C570.314 404.215 572.98 404.27 575.67 404.278L575.682 400.278C573.039 400.27 570.419 400.217 567.824 400.118L567.671 404.115ZM583.656 404.17C586.284 404.092 588.933 403.971 591.602 403.808L591.359 399.815C588.729 399.976 586.122 400.095 583.536 400.172L583.656 404.17ZM599.621 403.198C602.22 402.963 604.838 402.688 607.475 402.376L607.004 398.403C604.403 398.712 601.821 398.982 599.259 399.215L599.621 403.198ZM615.441 401.324C618.03 400.948 620.637 400.536 623.261 400.088L622.589 396.145C619.997 396.587 617.422 396.994 614.865 397.365L615.441 401.324ZM631.094 398.657C633.697 398.151 636.316 397.61 638.951 397.037L638.1 393.128C635.493 393.696 632.903 394.23 630.33 394.731L631.094 398.657ZM646.635 395.279C649.211 394.661 651.801 394.013 654.406 393.334L653.397 389.463C650.817 390.136 648.252 390.778 645.703 391.389L646.635 395.279ZM662.069 391.257C664.59 390.549 667.125 389.812 669.672 389.047L668.522 385.216C665.997 385.974 663.485 386.705 660.987 387.406L662.069 391.257ZM677.353 386.668C679.837 385.876 682.332 385.057 684.84 384.212L683.563 380.422C681.075 381.26 678.6 382.071 676.137 382.857L677.353 386.668ZM692.342 381.62C694.854 380.73 697.378 379.815 699.913 378.875L698.522 375.125C696.005 376.058 693.5 376.967 691.007 377.85L692.342 381.62ZM707.25 376.094C709.702 375.146 712.164 374.174 714.637 373.179L713.144 369.468C710.688 370.456 708.242 371.422 705.807 372.364L707.25 376.094ZM722.085 370.124C724.482 369.123 726.888 368.101 729.303 367.057L727.717 363.385C725.316 364.423 722.925 365.439 720.543 366.433L722.085 370.124ZM736.567 363.868C738.997 362.783 741.436 361.678 743.884 360.552L742.212 356.918C739.778 358.038 737.353 359.137 734.937 360.215L736.567 363.868ZM751.014 357.224C753.384 356.103 755.762 354.962 758.148 353.801L756.399 350.204C754.025 351.358 751.66 352.493 749.302 353.609L751.014 357.224ZM765.332 350.263C767.68 349.092 770.036 347.902 772.4 346.693L770.58 343.132C768.227 344.334 765.883 345.518 763.546 346.684L765.332 350.263ZM779.405 343.071C781.747 341.846 784.097 340.604 786.453 339.343L784.567 335.816C782.221 337.071 779.882 338.307 777.551 339.527L779.405 343.071ZM793.486 335.543C795.771 334.294 798.063 333.03 800.361 331.75L798.414 328.255C796.126 329.53 793.844 330.789 791.568 332.032L793.486 335.543ZM807.275 327.859C809.586 326.547 811.904 325.218 814.228 323.873L812.224 320.411C809.91 321.75 807.601 323.074 805.3 324.381L807.275 327.859ZM821.041 319.895C823.296 318.566 825.557 317.223 827.824 315.865L825.768 312.433C823.509 313.787 821.257 315.125 819.01 316.448L821.041 319.895ZM834.641 311.746C836.911 310.363 839.186 308.966 841.467 307.554L839.361 304.153C837.089 305.56 834.821 306.952 832.56 308.33L834.641 311.746ZM848.122 303.403C850.345 302.005 852.574 300.594 854.808 299.169L852.657 295.797C850.431 297.217 848.209 298.623 845.993 300.016L848.122 303.403ZM861.524 294.854C863.742 293.419 865.965 291.971 868.193 290.509L865.998 287.165C863.778 288.622 861.562 290.066 859.351 291.496L861.524 294.854ZM874.752 286.176C876.943 284.719 879.138 283.25 881.338 281.768L879.104 278.45C876.91 279.928 874.721 281.393 872.537 282.845L874.752 286.176ZM887.952 277.283C890.128 275.799 892.308 274.302 894.492 272.793L892.219 269.502C890.041 271.007 887.867 272.499 885.698 273.979L887.952 277.283ZM900.954 268.303C903.112 266.795 905.275 265.274 907.441 263.743L905.131 260.477C902.971 262.004 900.815 263.52 898.663 265.025L900.954 268.303ZM913.951 259.112C915.039 258.334 916.127 257.554 917.216 256.771L914.88 253.523C913.794 254.305 912.709 255.083 911.624 255.859L913.951 259.112Z" fill="#214F6F"/>
</svg>
