<svg width="560" height="374" viewBox="0 0 560 374" fill="none" xmlns="http://www.w3.org/2000/svg">
<path d="M506.227 327.598H75.1277L58.7813 183.363C56.476 163.018 64.4765 142.863 80.1117 129.638C105.991 110.212 141.146 65.8728 178.371 77.0243C512.878 159.365 476.594 64.8517 506.229 327.598H506.227Z" fill="#E3EEFE"/>
<mask id="mask0_578_227" style="mask-type:luminance" maskUnits="userSpaceOnUse" x="58" y="75" width="449" height="253">
<path d="M506.227 327.598H75.1277L58.7813 183.363C56.476 163.018 64.4765 142.863 80.1117 129.638C105.991 110.212 141.146 65.8728 178.371 77.0243C512.878 159.365 476.594 64.8517 506.229 327.598H506.227Z" fill="white"/>
</mask>
<g mask="url(#mask0_578_227)">
<path d="M327.096 107.126L327.034 131.253C327.029 133.538 328.877 135.393 331.164 135.397L388.442 135.479C390.721 135.483 392.573 133.642 392.582 131.363L392.637 118.759L327.098 107.126" fill="#214F6F"/>
<path d="M67.4446 272.811C67.4446 272.811 69.035 255.461 81.6947 243.064C81.6947 243.064 81.4371 263.299 77.0448 272.811C77.0448 272.811 88.7582 254.171 105.248 249.262C105.248 249.262 93.9438 279.444 83.0406 285.146C83.0406 285.146 95.5361 273.482 123.751 268.992C123.751 268.992 103.914 297.166 88.9299 300.207C88.9299 300.207 104.688 292.759 132.847 288.575L98.4144 327.271H75.1315L67.4464 272.813L67.4446 272.811Z" fill="#214F6F"/>
<path d="M276.761 130.669C275.373 212.009 154.358 211.997 152.981 130.667C154.37 49.3285 275.384 49.3416 276.761 130.669Z" fill="#214F6F"/>
</g>
<path d="M385.284 86.1859H334.305C332.895 86.1859 331.751 87.3291 331.751 88.7395V128.115C331.751 129.525 332.895 130.669 334.305 130.669H385.284C386.694 130.669 387.837 129.525 387.837 128.115V88.7395C387.837 87.3291 386.694 86.1859 385.284 86.1859Z" fill="#E3EEFE"/>
<path d="M371.612 107.527C371.358 122.422 349.199 122.42 348.947 107.527C349.201 92.6333 371.36 92.637 371.612 107.527Z" fill="#214F6F"/>
<path d="M363.492 117.744C363.375 117.744 363.281 117.649 363.281 117.533V110.998H356.985V117.533C356.985 117.65 356.89 117.744 356.774 117.744C356.658 117.744 356.563 117.649 356.563 117.533V110.998H352.966C352.804 111.001 352.695 110.805 352.789 110.671C352.942 110.764 356.89 103.52 356.985 104.886V110.574H363.281V108.155C363.399 106.421 362.943 104.231 363.677 104.783L366.933 110.682C366.968 110.747 366.968 110.828 366.929 110.891C366.989 111.11 363.782 110.949 363.703 110.996V117.531C363.703 117.649 363.608 117.742 363.492 117.742V117.744ZM363.703 110.574H366.389L363.703 105.707V110.574ZM353.353 110.574H356.561V105.603L353.353 110.574Z" fill="#E3EEFE"/>
<path d="M362.671 124.234C355.813 124.258 354.962 125.018 355.279 117.495H365.277C365.148 119.709 366.15 124.204 362.671 124.234Z" fill="#232323"/>
<path d="M365.279 118.438H355.281V119.377H365.279V118.438Z" fill="#504F79"/>
<path d="M365.279 120.07H355.281V121.009H365.279V120.07Z" fill="#504F79"/>
<path d="M373.134 115.095L371.314 114.022C371.448 113.794 371.577 113.561 371.696 113.325L373.58 114.285C373.44 114.559 373.29 114.832 373.134 115.097V115.095ZM347.278 114.837C347.127 114.57 346.983 114.294 346.849 114.018L348.751 113.098C348.865 113.335 348.99 113.572 349.119 113.801L347.278 114.839V114.837ZM375.125 108.985L373.022 108.782C373.048 108.521 373.065 108.254 373.074 107.989L375.185 108.063C375.174 108.371 375.153 108.681 375.123 108.985H375.125ZM345.412 108.689C345.387 108.382 345.374 108.073 345.369 107.765L347.482 107.731C347.486 107.994 347.499 108.261 347.519 108.524L345.412 108.687V108.689ZM372.37 103.305C372.282 103.057 372.187 102.809 372.086 102.566L374.035 101.746C374.155 102.028 374.265 102.319 374.367 102.609L372.372 103.307L372.37 103.305ZM348.281 103.064L346.3 102.327C346.409 102.038 346.526 101.75 346.651 101.468L348.581 102.329C348.475 102.57 348.372 102.816 348.281 103.064ZM369.473 98.6178C369.29 98.4293 369.098 98.2426 368.904 98.0653L370.328 96.5029C370.554 96.7101 370.778 96.9266 370.993 97.1469L369.475 98.6178H369.473ZM351.277 98.4312L349.789 96.9304C350.007 96.7157 350.235 96.5029 350.465 96.3013L351.857 97.8917C351.659 98.0653 351.463 98.2482 351.277 98.433V98.4312ZM364.872 95.5752C364.625 95.48 364.373 95.3922 364.121 95.3138L364.754 93.2978C365.047 93.3893 365.342 93.492 365.63 93.6021L364.872 95.5752ZM355.932 95.4856L355.214 93.4976C355.503 93.393 355.798 93.296 356.093 93.2101L356.685 95.2392C356.433 95.3138 356.179 95.396 355.93 95.4856H355.932Z" fill="#214F6F"/>
<path d="M361.019 94.7706H360.388L360.28 92.6184H361.161L361.019 94.7706Z" fill="#214F6F"/>
<g opacity="0.36">
<path d="M227.353 297.838L223.033 305.463L236.766 313.24L241.48 304.918C245.685 306.008 250.143 306.359 254.457 305.941L257.174 315.754L272.386 311.543L269.519 301.185C273.069 299.171 276.336 296.531 279.037 293.479L288.594 298.891L296.373 285.159L286.815 279.748C288.042 275.862 288.628 271.704 288.529 267.622L298.889 264.755L294.678 249.547L284.865 252.263C283.004 248.349 280.411 244.707 277.312 241.66L282.025 233.339L268.292 225.562L263.973 233.188C259.558 231.541 254.766 230.742 250.046 230.856L247.884 223.048L232.673 227.259L234.683 234.522C230.188 236.656 226.066 239.753 222.766 243.479L216.462 239.91L208.684 253.641L214.988 257.21C213.489 261.955 212.953 267.083 213.435 272.035L206.17 274.045L210.381 289.253L218.191 287.091C220.521 291.196 223.67 294.896 227.353 297.834V297.838ZM227.629 255.302C245.978 225.068 290.672 250.385 274.174 281.659C255.825 311.894 211.131 286.574 227.629 255.302Z" fill="#214F6F"/>
<path d="M147.269 266.455L143.536 273.047L155.406 279.768L159.479 272.576C163.113 273.519 166.966 273.821 170.696 273.461L173.044 281.941L186.191 278.301L183.712 269.349C186.781 267.607 189.603 265.326 191.94 262.688L200.202 267.366L206.924 255.498L198.662 250.82C199.722 247.46 200.228 243.867 200.144 240.341L209.098 237.862L205.458 224.717L196.976 227.065C195.367 223.681 193.127 220.534 190.449 217.902L194.522 210.709L182.652 203.987L178.918 210.579C175.103 209.154 170.961 208.466 166.882 208.565L165.013 201.815L151.866 205.455L153.604 211.732C149.72 213.577 146.156 216.253 143.304 219.473L137.855 216.388L131.133 228.256L136.582 231.342C135.287 235.444 134.824 239.876 135.24 244.154L128.961 245.892L132.601 259.037L139.35 257.169C141.365 260.717 144.086 263.915 147.269 266.454V266.455ZM147.508 229.691C163.367 203.56 201.998 225.443 187.738 252.472C171.879 278.604 133.248 256.721 147.508 229.691Z" fill="#214F6F"/>
<path d="M221.874 223.21L223.1 227.481L230.791 225.273L229.453 220.614C231.34 219.479 233.05 217.991 234.431 216.281L238.946 218.783L242.824 211.785L238.056 209.145C238.588 207.146 238.792 205.025 238.646 202.965L244 201.428L241.791 193.739L236.438 195.276C235.467 193.452 234.17 191.765 232.658 190.35L235.297 185.584L228.297 181.709L225.796 186.224C223.718 185.507 221.478 185.153 219.277 185.192L217.939 180.533L210.248 182.741L211.475 187.012C209.311 188.024 207.321 189.476 205.686 191.223L202.091 189.233L198.214 196.231L201.557 198.083C200.734 200.467 200.39 203.058 200.568 205.576L197.038 206.59L199.246 214.278L202.776 213.265C203.961 215.492 205.628 217.506 207.59 219.091L205.738 222.434L212.738 226.309L214.728 222.716C217.041 223.33 219.5 223.505 221.87 223.214L221.874 223.21ZM206.575 208.008C202.145 190.633 227.179 183.45 232.641 200.525C237.069 217.9 212.037 225.081 206.575 208.008Z" fill="#214F6F"/>
</g>
<path d="M483.756 282.548C483.756 282.548 486.788 272.49 495.878 266.485C495.878 266.485 497.818 279.154 492.97 286.184C492.97 286.184 497.334 280.608 513.333 277.943C513.333 277.943 510.182 295.394 493.696 301.698C493.696 301.698 503.151 298.062 523.273 300.487C523.273 300.487 508.728 316.484 492.727 317.938C492.727 317.938 495.003 317.143 506.229 327.6H473.314L483.758 282.55L483.756 282.548Z" fill="#A7BD37"/>
<mask id="mask1_578_227" style="mask-type:luminance" maskUnits="userSpaceOnUse" x="473" y="266" width="51" height="62">
<path d="M483.756 282.548C483.756 282.548 486.788 272.49 495.878 266.485C495.878 266.485 497.818 279.154 492.97 286.184C492.97 286.184 497.334 280.608 513.333 277.943C513.333 277.943 510.182 295.394 493.696 301.698C493.696 301.698 503.151 298.062 523.273 300.487C523.273 300.487 508.728 316.484 492.727 317.938C492.727 317.938 495.003 317.143 506.229 327.6H473.314L483.758 282.55L483.756 282.548Z" fill="white"/>
</mask>
<g mask="url(#mask1_578_227)">
<path opacity="0.41" d="M487.747 271.273V317.29C487.822 325.571 480.163 330.926 472.31 329.926V272.97L487.747 271.271V271.273Z" fill="#3E5409"/>
</g>
<path d="M310.096 287.806C310.096 287.806 301.304 275.923 282.638 272.811C282.638 272.811 288.94 287.194 296.367 289.877C296.367 289.877 280.448 284.357 268.145 290.98C268.145 290.98 282.656 303.755 296.539 304.386C296.539 304.386 275.559 302.967 265.306 308.013C265.306 308.013 280.764 319.999 295.749 318.58C295.749 318.58 288.178 320.374 283.603 327.6H314.492L310.096 287.806Z" fill="#A7BD37"/>
<mask id="mask2_578_227" style="mask-type:luminance" maskUnits="userSpaceOnUse" x="265" y="272" width="50" height="56">
<path d="M310.096 287.806C310.096 287.806 301.304 275.923 282.638 272.811C282.638 272.811 288.94 287.194 296.367 289.877C296.367 289.877 280.448 284.357 268.145 290.98C268.145 290.98 282.656 303.755 296.539 304.386C296.539 304.386 275.559 302.967 265.306 308.013C265.306 308.013 280.764 319.999 295.749 318.58C295.749 318.58 288.178 320.374 283.603 327.6H314.492L310.096 287.806Z" fill="white"/>
</mask>
<g mask="url(#mask2_578_227)">
<path opacity="0.41" d="M299.749 276.926V317.451C300.158 328.16 309.275 330.512 318.345 329.666V281.299L299.749 276.924V276.926Z" fill="#3E5409"/>
</g>
<path d="M354.103 207.058H347.187C348.104 199.268 343.174 181.431 355.759 181.173H364.015V188.087H355.759C354.846 188.087 354.103 188.83 354.103 189.743V207.058Z" fill="#232323"/>
<path d="M431.148 207.058H438.064C437.147 199.268 442.077 181.431 429.492 181.173H421.236V188.087H429.492C430.405 188.087 431.148 188.83 431.148 189.743V207.058Z" fill="#232323"/>
<path d="M419.694 191.059H365.652C363.91 191.059 362.499 189.648 362.499 187.906C362.859 185.028 360.974 178.293 365.652 178.199H419.694C424.372 178.293 422.486 185.022 422.847 187.906C422.847 189.648 421.435 191.059 419.694 191.059Z" fill="#232323"/>
<mask id="mask3_578_227" style="mask-type:luminance" maskUnits="userSpaceOnUse" x="362" y="178" width="61" height="14">
<path d="M419.694 191.059H365.652C363.91 191.059 362.499 189.648 362.499 187.906C362.859 185.028 360.974 178.293 365.652 178.199H419.694C424.372 178.293 422.486 185.022 422.847 187.906C422.847 189.648 421.435 191.059 419.694 191.059Z" fill="white"/>
</mask>
<g mask="url(#mask3_578_227)">
<path d="M424.413 188.087H360.056V192.73H424.413V188.087Z" fill="#232323"/>
</g>
<path d="M473.312 205.371H314.492C307.99 205.371 302.719 210.642 302.719 217.144V315.825C302.719 322.327 307.99 327.598 314.492 327.598H473.312C479.814 327.598 485.085 322.327 485.085 315.825V217.144C485.085 210.642 479.814 205.371 473.312 205.371Z" fill="#F4A623"/>
<path opacity="0.31" d="M473.312 212.992H314.492C307.99 212.992 302.719 218.263 302.719 224.765V254.772C302.719 261.274 307.99 266.545 314.492 266.545H473.312C479.814 266.545 485.085 261.274 485.085 254.772V224.765C485.085 218.263 479.814 212.992 473.312 212.992Z" fill="#232323"/>
<path d="M473.312 205.371H314.492C307.99 205.371 302.719 210.642 302.719 217.144V247.15C302.719 253.652 307.99 258.923 314.492 258.923H473.312C479.814 258.923 485.085 253.652 485.085 247.15V217.144C485.085 210.642 479.814 205.371 473.312 205.371Z" fill="#F4A623"/>
<mask id="mask4_578_227" style="mask-type:luminance" maskUnits="userSpaceOnUse" x="302" y="205" width="184" height="54">
<path d="M473.312 205.371H314.492C307.99 205.371 302.719 210.642 302.719 217.144V247.15C302.719 253.652 307.99 258.923 314.492 258.923H473.312C479.814 258.923 485.085 253.652 485.085 247.15V217.144C485.085 210.642 479.814 205.371 473.312 205.371Z" fill="white"/>
</mask>
<g mask="url(#mask4_578_227)">
<path opacity="0.31" d="M336.915 201.854C336.437 209.94 333.547 218.463 325.045 221.079L300.733 229.335L299.796 217.474L321.879 210.192L325.674 200.583L336.913 201.854H336.915Z" fill="#232323"/>
</g>
<path d="M403.523 250.182H387.901C385.392 250.182 383.357 252.216 383.357 254.725V265.302C383.357 267.811 385.392 269.845 387.901 269.845H403.523C406.032 269.845 408.067 267.811 408.067 265.302V254.725C408.067 252.216 406.032 250.182 403.523 250.182Z" fill="#232323"/>
<mask id="mask5_578_227" style="mask-type:luminance" maskUnits="userSpaceOnUse" x="383" y="250" width="26" height="20">
<path d="M403.523 250.182H387.901C385.392 250.182 383.357 252.216 383.357 254.725V265.302C383.357 267.811 385.392 269.845 387.901 269.845H403.523C406.032 269.845 408.067 267.811 408.067 265.302V254.725C408.067 252.216 406.032 250.182 403.523 250.182Z" fill="white"/>
</mask>
<g mask="url(#mask5_578_227)">
<path d="M407.691 278.85C377.474 277.659 381.831 284.583 381.614 264.415C381.614 263.245 382.562 262.295 383.735 262.295H407.693C408.864 262.295 409.814 263.243 409.814 264.415V276.731C409.814 277.902 408.864 278.852 407.693 278.852L407.691 278.85Z" fill="#232323"/>
</g>
<path d="M202.959 190.211C160.078 191.018 129.188 144.411 146.617 105.241C167.291 55.7797 238.631 55.7797 259.301 105.241C276.724 144.407 245.844 191.023 202.959 190.21V190.211Z" fill="#F4A623"/>
<path d="M202.959 177.3C169.129 177.938 144.766 141.17 158.512 110.27C174.823 71.2488 231.099 71.2488 247.408 110.27C261.149 141.167 236.792 177.94 202.959 177.298V177.3Z" fill="#E3EEFE"/>
<path d="M202.959 164.388C178.183 164.858 160.343 137.928 170.404 115.3C182.355 86.7197 223.565 86.7197 235.514 115.3C245.571 137.926 227.737 164.86 202.959 164.386V164.388Z" fill="#F4A623"/>
<path d="M225.381 129.058C224.877 158.529 181.035 158.523 180.535 129.058C181.039 99.5886 224.881 99.5923 225.381 129.058Z" fill="#E3EEFE"/>
<path d="M148.073 224.42L120.77 195.909L101.545 207.4C102.262 208.034 135.354 236.221 136.026 236.861L138.268 266.028L148.861 265.668L151.293 233.602C151.577 230.223 150.425 226.862 148.075 224.42H148.073Z" fill="#232323"/>
<path d="M95.8962 208.068L103.395 285.268L113.999 285.115L120.331 203.857L95.8962 208.068Z" fill="#232323"/>
<path d="M118.91 222.225L119.666 212.458C119.666 212.458 125.289 225.943 136.028 236.861L118.912 222.225H118.91Z" fill="#232323"/>
<path d="M137.079 153.436L143.849 151.239L163.912 133.065L167.905 137.669C166.871 138.477 148.454 160.961 147.48 160.517L139.362 164.412L137.08 153.436H137.079Z" fill="#FFB6A6"/>
<mask id="mask6_578_227" style="mask-type:luminance" maskUnits="userSpaceOnUse" x="137" y="133" width="31" height="32">
<path d="M137.079 153.436L143.849 151.239L163.912 133.065L167.905 137.669C166.871 138.477 148.454 160.961 147.48 160.517L139.362 164.412L137.08 153.436H137.079Z" fill="white"/>
</mask>
<g mask="url(#mask6_578_227)">
<path d="M138.606 152.182L144.107 164.98L136.604 166.374L133.566 153.054L138.606 152.182Z" fill="#232323"/>
</g>
<path d="M136.804 152.118L139.905 167.029L125.677 171.13L127.898 202.55L94.948 208.23L96.4674 184.675L86.1896 180.63L95.9578 163.652C97.6565 160.701 100.55 158.631 103.893 157.978L113.893 156.023" fill="#214F6F"/>
<mask id="mask7_578_227" style="mask-type:luminance" maskUnits="userSpaceOnUse" x="86" y="152" width="54" height="57">
<path d="M136.804 152.118L139.905 167.029L125.677 171.13L127.898 202.55L94.948 208.23L96.4674 184.675L86.1896 180.63L95.9578 163.652C97.6565 160.701 100.55 158.631 103.893 157.978L113.893 156.023" fill="white"/>
</mask>
<g mask="url(#mask7_578_227)">
<path d="M98.8866 159.268C105.412 166.824 115.515 163.531 118.138 154.709L101.886 156.938L98.8866 159.268Z" fill="#FFB6A6"/>
<path d="M98.4125 185.431L104.307 173.385L102.993 195.186L129.007 200.217L129.408 203.857L94.2946 212.231L92.6912 194.744L98.4125 185.431Z" fill="#214F6F"/>
</g>
<path d="M115.72 136.373L120.958 146.283C121.903 148.071 120.999 150.278 119.073 150.892L113.764 152.579L113.934 160.188L105.422 161.14L107.044 137.866L115.72 136.371V136.373Z" fill="#FFB6A6"/>
<mask id="mask8_578_227" style="mask-type:luminance" maskUnits="userSpaceOnUse" x="105" y="136" width="17" height="26">
<path d="M115.72 136.373L120.958 146.283C121.903 148.071 120.999 150.278 119.073 150.892L113.764 152.579L113.934 160.188L105.422 161.14L107.044 137.866L115.72 136.371V136.373Z" fill="white"/>
</mask>
<g mask="url(#mask8_578_227)">
<path d="M121.563 148.84C121.563 148.84 117.505 150.674 112.426 149.936C112.426 149.936 113.792 151.583 113.749 153.098C113.749 153.098 121.35 151.594 121.563 148.84Z" fill="#232323"/>
<path d="M119.069 139.38C118.905 139.496 116.221 143.448 107.014 142.219L116.077 135.15L119.071 139.38H119.069Z" fill="#232323"/>
</g>
<path d="M146.535 265.74L146.58 268.904C146.58 268.904 145.507 272.235 143.102 272.242C140.696 272.248 140.595 271.507 140.595 271.507L140.075 265.953L146.535 265.742V265.74Z" fill="#FFB6A6"/>
<mask id="mask9_578_227" style="mask-type:luminance" maskUnits="userSpaceOnUse" x="140" y="265" width="7" height="8">
<path d="M146.535 265.74L146.58 268.904C146.58 268.904 145.507 272.235 143.102 272.242C140.696 272.248 140.595 271.507 140.595 271.507L140.075 265.953L146.535 265.742V265.74Z" fill="white"/>
</mask>
<g mask="url(#mask9_578_227)">
<path d="M139.615 268.636C139.615 268.636 145.686 267.792 147.297 266.289L147.37 264.85L139.492 265.041L139.615 268.636Z" fill="#232323"/>
</g>
<path d="M140.594 271.507C140.594 271.507 145.589 272.774 146.614 268.619L156.404 273.231C157.808 273.892 158.646 275.363 158.499 276.907C158.458 276.907 141.385 276.722 141.342 276.72C138.975 276.608 140.599 272.8 140.592 271.508L140.594 271.507Z" fill="#232323"/>
<path d="M111.834 285.146L111.812 288.665C111.812 288.665 110.738 291.995 108.334 292.003C105.928 292.008 105.827 291.267 105.827 291.267L105.267 285.286L111.836 285.146H111.834Z" fill="#FFB6A6"/>
<mask id="mask10_578_227" style="mask-type:luminance" maskUnits="userSpaceOnUse" x="105" y="285" width="7" height="8">
<path d="M111.834 285.146L111.812 288.665C111.812 288.665 110.738 291.995 108.334 292.003C105.928 292.008 105.827 291.267 105.827 291.267L105.267 285.286L111.836 285.146H111.834Z" fill="white"/>
</mask>
<g mask="url(#mask10_578_227)">
<path d="M104.847 288.396C104.847 288.396 110.917 287.553 112.528 286.05L112.601 284.611L104.724 284.801L104.847 288.396Z" fill="#232323"/>
</g>
<path d="M105.827 291.265C105.827 291.265 110.822 292.533 111.847 288.378L121.638 292.99C123.041 293.651 123.879 295.122 123.732 296.666C123.691 296.666 106.618 296.481 106.575 296.479C104.209 296.367 105.833 292.559 105.825 291.267L105.827 291.265Z" fill="#232323"/>
<path d="M115.961 137.467C115.961 137.467 109.874 140.825 109.73 140.849C110.378 142.208 111.834 144.153 110.193 145.921L108.927 143.873C108.927 143.873 106.676 147.205 109.667 148.161L106.135 152.378C102.135 148.874 102.446 145.514 101.918 140.694C101.502 137.56 104.104 135.275 106.665 134.004L116.487 129.058C116.487 129.058 121.055 135.339 115.963 137.467H115.961Z" fill="#232323"/>
<path d="M187.398 133.362L179.853 132.076L180.06 130.859L187.606 132.145C187.942 132.203 188.167 132.522 188.11 132.858C188.052 133.194 187.732 133.42 187.396 133.362H187.398Z" fill="#232323"/>
<path d="M178.896 127.846C175.829 127.195 164.567 124.219 161.638 124.019L148.844 122.677L147.661 129.623L160.095 132.61C162.928 133.426 174.63 134.299 177.735 134.702C179.002 134.831 180.154 133.958 180.369 132.701C180.749 130.885 181.3 128.464 178.898 127.848L178.896 127.846Z" fill="#232323"/>
<mask id="mask11_578_227" style="mask-type:luminance" maskUnits="userSpaceOnUse" x="147" y="122" width="34" height="13">
<path d="M178.896 127.846C175.829 127.195 164.567 124.219 161.638 124.019L148.844 122.677L147.661 129.623L160.095 132.61C162.928 133.426 174.63 134.299 177.735 134.702C179.002 134.831 180.154 133.958 180.369 132.701C180.749 130.885 181.3 128.464 178.898 127.848L178.896 127.846Z" fill="white"/>
</mask>
<g mask="url(#mask11_578_227)">
<path d="M152.828 122.317L151.205 122.041L149.675 131.021L151.298 131.297L152.828 122.317Z" fill="#214F6F"/>
<path d="M156.24 122.796L154.617 122.52L153.087 131.499L154.71 131.776L156.24 122.796Z" fill="#214F6F"/>
<path d="M181.502 127.704L179.027 127.283L177.688 135.142L180.163 135.564L181.502 127.704Z" fill="#232323"/>
</g>
<path d="M147.666 122.554C145.257 122.259 145.423 125.64 145.062 127.161C144.775 128.787 146.324 129.442 147.659 129.623L148.842 122.677L147.666 122.554Z" fill="#214F6F"/>
<path d="M138.57 117.258C134.152 113.101 128.462 120.312 133.482 123.648C129.179 124.514 129.268 131.031 133.678 131.718C135.486 132.194 143.776 128.384 145.607 127.96C145.816 126.739 146.143 124.815 146.352 123.594L138.57 117.256V117.258Z" fill="#214F6F"/>
<mask id="mask12_578_227" style="mask-type:luminance" maskUnits="userSpaceOnUse" x="130" y="116" width="17" height="16">
<path d="M138.57 117.258C134.152 113.101 128.462 120.312 133.482 123.648C129.179 124.514 129.268 131.031 133.678 131.718C135.486 132.194 143.776 128.384 145.607 127.96C145.816 126.739 146.143 124.815 146.352 123.594L138.57 117.256V117.258Z" fill="white"/>
</mask>
<g mask="url(#mask12_578_227)">
<path d="M133.482 123.65L146.442 125.858L145.908 128.983L135.036 132.802L129.722 131.897L129.646 124.691L133.482 123.65Z" fill="#214F6F"/>
</g>
<path d="M163.453 133.48C163.453 133.48 164.623 128.432 164.81 128.339C164.996 128.246 166.245 128.712 166.245 129.274C166.245 129.836 167.026 133.605 167.026 133.605L171.849 134.098L167.905 137.669L163.455 133.48H163.453Z" fill="#FFB6A6"/>
<path d="M98.4125 185.431L89.0699 181.754C88.1197 184.669 86.6693 188.298 86.5891 191.365L84.8848 218.579C84.8848 218.579 83.0405 224.642 83.0405 224.842C83.0405 225.042 83.2589 228.84 83.5091 230.138C83.7592 231.433 89.32 232.999 89.4581 232.784C90.2029 231.635 88.8253 228.355 88.8253 228.355L89.6504 224.343C89.6504 224.343 90.4717 226.361 90.5931 226.61C90.7144 226.86 92.3664 227.158 92.9152 227.108C93.3445 227.069 91.6869 222.214 90.9403 220.089C91.9501 215.234 96.1856 189.36 98.4163 185.431H98.4125Z" fill="#FFB6A6"/>
<path d="M164.69 327.598C164.69 327.598 165.071 276.905 164.69 276.905H137.818V296.664H113.045V312.734H87.1229V327.596H164.689L164.69 327.598Z" fill="#F4A623"/>
<path d="M284.306 255.726L284.446 259.538C284.446 259.538 285.52 263.299 288.2 263.374C290.881 263.448 291.021 262.619 291.021 262.619L291.59 255.927L284.305 255.726H284.306Z" fill="#FFB6A6"/>
<mask id="mask13_578_227" style="mask-type:luminance" maskUnits="userSpaceOnUse" x="284" y="255" width="8" height="9">
<path d="M284.306 255.726L284.446 259.538C284.446 259.538 285.52 263.299 288.2 263.374C290.881 263.448 291.021 262.619 291.021 262.619L291.59 255.927L284.305 255.726H284.306Z" fill="white"/>
</mask>
<g mask="url(#mask13_578_227)">
<path d="M292.109 261.05C292.109 261.05 287.151 260.112 283.608 258.531L283.715 254.974L292.486 255.407L292.111 261.05H292.109Z" fill="#232323"/>
</g>
<path d="M291.021 262.618C291.021 262.618 285.408 263.898 284.417 259.215L273.338 264.109C271.749 264.811 270.762 266.435 270.87 268.169L289.951 268.436C292.656 268.412 290.97 264.098 291.021 262.618Z" fill="#232323"/>
<path d="M266.933 251.959L265.86 255.619C265.86 255.619 265.688 259.526 268.208 260.445C270.728 261.363 271.124 260.62 271.124 260.62L273.78 254.451L266.931 251.957L266.933 251.959Z" fill="#FFB6A6"/>
<mask id="mask14_578_227" style="mask-type:luminance" maskUnits="userSpaceOnUse" x="265" y="251" width="9" height="10">
<path d="M266.933 251.959L265.86 255.619C265.86 255.619 265.688 259.526 268.208 260.445C270.728 261.363 271.124 260.62 271.124 260.62L273.78 254.451L266.931 251.957L266.933 251.959Z" fill="white"/>
</mask>
<g mask="url(#mask14_578_227)">
<path d="M272.653 259.476C272.653 259.476 268.246 257.019 265.384 254.4L266.61 251.059L274.794 254.244L272.653 259.478V259.476Z" fill="#232323"/>
</g>
<path d="M271.126 260.62C271.126 260.62 265.395 260.06 265.937 255.304L253.878 256.445C252.149 256.609 250.699 257.837 250.253 259.515L268.272 265.802C270.84 266.642 270.614 262 271.128 260.62H271.126Z" fill="#232323"/>
<path d="M305.064 137.495C301.5 140.183 300.868 145.725 303.735 149.147C305.629 150.913 306.634 153.054 306.077 155.686C303.761 165.859 313.662 167.067 321.3 166.818C322.456 157.153 319.159 147.427 316.387 138.236C315.693 135.29 313.406 134.152 310.554 135.098C308.749 135.563 306.531 136.347 305.064 137.497V137.495Z" fill="#232323"/>
<path d="M310.938 192.502C306.93 195.671 287.98 208.107 285.156 211.977C281.381 215.324 267.936 248.002 265.306 252.9L276.304 256.59C282.541 247.686 294.265 226.83 299.393 217.062L324.093 201.225V193.095L310.936 192.502H310.938Z" fill="#232323"/>
<path d="M331.776 193.095C332.575 198.621 333.659 205.419 329.831 210.118C326.545 216.132 307.048 220.591 301.343 223.335L293.085 256.59H282.638C283.634 250.686 284.278 218.91 287.646 214.221C290.481 206.851 310.147 197.575 316.09 193.095H331.774H331.776Z" fill="#232323"/>
<path d="M293.085 155.941L286.649 153.815L266.719 138.021L265.418 143.336C265.418 143.336 280.51 162.766 281.915 163.643C283.321 164.521 290.565 167.548 290.565 167.548L293.085 155.939V155.941Z" fill="#FFB6A6"/>
<mask id="mask15_578_227" style="mask-type:luminance" maskUnits="userSpaceOnUse" x="265" y="138" width="29" height="30">
<path d="M293.085 155.941L286.649 153.815L266.719 138.021L265.418 143.336C265.418 143.336 280.51 162.766 281.915 163.643C283.321 164.521 290.565 167.548 290.565 167.548L293.085 155.939V155.941Z" fill="white"/>
</mask>
<g mask="url(#mask15_578_227)">
<path d="M291.277 154.526C291.277 154.526 287.678 162.609 284.114 165.609L292.475 169.17L294.65 155.525L291.275 154.528L291.277 154.526Z" fill="#232323"/>
</g>
<path d="M307.197 144.922C313.507 128.933 326.665 144.038 316.417 153.685L315.808 162.432L309.254 161.799L310.304 154.803C307.393 153.41 306.008 149.214 307.197 144.922Z" fill="#FFB6A6"/>
<mask id="mask16_578_227" style="mask-type:luminance" maskUnits="userSpaceOnUse" x="306" y="137" width="15" height="26">
<path d="M307.197 144.922C313.507 128.933 326.665 144.038 316.417 153.685L315.808 162.432L309.254 161.799L310.304 154.803C307.393 153.41 306.008 149.214 307.197 144.922Z" fill="white"/>
</mask>
<g mask="url(#mask16_578_227)">
<path d="M316.417 153.685C316.417 153.685 314.261 155.376 311.149 154.954C311.149 154.954 314.293 156.864 316.79 156.35L316.417 153.685Z" fill="#232323"/>
<path d="M306.594 145.068C306.594 145.068 311.424 145.895 313.852 143.601C313.852 143.601 316.441 145.215 316.921 147.829C316.921 147.829 318.629 141.799 314.653 139.184L308.037 140.358L306.594 145.068Z" fill="#232323"/>
</g>
<path d="M309.49 158.383L292.242 154.526L289.621 168.986L306.65 174.182L309.49 158.383Z" fill="#214F6F"/>
<path d="M307.882 194.747C307.882 194.747 304.709 172.293 304.935 166.945C305.163 161.597 309.49 158.383 309.49 158.383L315.974 157.246C315.974 157.246 327.244 157.778 329.666 165.31C332.088 172.844 331.776 194.747 331.776 194.747H307.882Z" fill="#214F6F"/>
<mask id="mask17_578_227" style="mask-type:luminance" maskUnits="userSpaceOnUse" x="304" y="157" width="28" height="38">
<path d="M307.882 194.747C307.882 194.747 304.709 172.293 304.935 166.945C305.163 161.597 309.49 158.383 309.49 158.383L315.974 157.246C315.974 157.246 327.244 157.778 329.666 165.31C332.088 172.844 331.776 194.747 331.776 194.747H307.882Z" fill="white"/>
</mask>
<g mask="url(#mask17_578_227)">
<path d="M302.305 182.248C302.305 182.248 323.82 190.477 334.994 190.325V196.287H305.945L302.307 182.248H302.305Z" fill="#214F6F"/>
<path d="M316.751 156.695C316.717 161.713 308.239 166.354 308.121 157.573L316.751 156.695Z" fill="#FFB6A6"/>
</g>
<path d="M305.321 173.777C305.321 173.777 304.248 166.882 305.71 162.744C305.71 162.744 301.101 167.728 302.439 172.898L305.321 173.777Z" fill="#214F6F"/>
<path d="M327.968 162.279L342.093 180.133L331.763 188.524L322.506 176.738L327.968 162.279Z" fill="#214F6F"/>
<path d="M331.763 188.524L322.506 176.738L331.763 193.486V188.524Z" fill="#214F6F"/>
<path d="M266.978 138.529C266.978 138.529 264.787 134.17 264.258 134.085C263.728 134.001 255.22 133.409 255.05 133.945C254.88 134.48 255.106 135.449 256.515 135.585C257.925 135.72 260.292 136.453 260.292 136.453C260.292 136.453 259.164 140.06 259.644 140.819C260.124 141.579 265.52 143.336 265.52 143.336L266.98 138.529H266.978Z" fill="#FFB6A6"/>
<path d="M260.292 136.451C260.292 136.451 262.911 136.575 263.277 137.144C263.642 137.713 263.155 141.208 262.911 141.473C262.666 141.736 261.55 141.574 261.55 141.574C261.55 141.574 263.683 142.061 264.049 141.878C264.415 141.695 264.781 137.306 264.395 136.838C264.008 136.371 260.801 135.819 260.292 136.45V136.451Z" fill="#232323"/>
<path d="M313.337 200.583L335.184 195.589C336.187 195.388 336.142 194.27 335.965 193.486L313.337 198.434V200.583Z" fill="#F4A623"/>
<path d="M313.337 200.583L287.405 200.672C286.649 200.674 285.774 200.017 285.447 199.203L277.665 179.767C277.338 178.954 277.687 178.293 278.443 178.289L304.375 178.199C305.131 178.198 306.006 178.855 306.333 179.669L314.115 199.104C314.442 199.918 314.093 200.579 313.337 200.583Z" fill="#214F6F"/>
<path d="M335.965 193.486L312.118 194.115L313.805 198.331L335.965 193.486Z" fill="#F4A623"/>
<path d="M296.774 188.029C298.823 191.081 294.706 193.874 292.626 190.842C290.576 187.79 294.694 184.998 296.774 188.029Z" fill="#E3EEFE"/>
<path d="M344.954 185.668L341.258 180.813L333.676 186.973L335.965 189.28L320.327 196.745C320.327 196.745 315.474 196.773 315.312 196.842C315.08 196.946 315.465 198.195 316.813 198.076C317.111 198.106 313.643 200.585 313.643 200.585C318.409 203.202 319.374 202.281 323.503 199.728L341.163 196.043C343.663 195.485 345.61 193.523 346.147 191.02C346.549 189.147 346.114 187.193 344.954 185.67V185.668Z" fill="#FFB6A6"/>
<mask id="mask18_578_227" style="mask-type:luminance" maskUnits="userSpaceOnUse" x="313" y="180" width="34" height="23">
<path d="M344.954 185.668L341.258 180.813L333.676 186.973L335.965 189.28L320.327 196.745C320.327 196.745 315.474 196.773 315.312 196.842C315.08 196.946 315.465 198.195 316.813 198.076C317.111 198.106 313.643 200.585 313.643 200.585C318.409 203.202 319.374 202.281 323.503 199.728L341.163 196.043C343.663 195.485 345.61 193.523 346.147 191.02C346.549 189.147 346.114 187.193 344.954 185.67V185.668Z" fill="white"/>
</mask>
<g mask="url(#mask18_578_227)">
<path d="M342.795 181.559L335.965 189.278L332.3 186.616L340.697 179.626L342.795 181.559Z" fill="#232323"/>
</g>
<path d="M315.536 138.212C311.422 141.869 318.586 144.109 315.737 148.799C310.109 156.302 315.48 165.303 323.226 168.491C326.795 169.611 330.628 169.639 334.311 170.218C333.693 168.062 333.999 165.921 335.403 164.175C336.678 161.538 337.165 158.138 336.233 155.327C334.833 151.725 330.279 151.094 327.686 148.628C325.961 146.761 325.92 143.922 324.835 141.624C323.385 138.247 318.765 136.14 315.534 138.212H315.536Z" fill="#232323"/>
<path d="M313.322 141.29C311.84 142.455 309.827 142.393 308.037 142.262C308.207 140.821 308.134 139.321 308.556 137.924C309.911 134.254 316.676 133.146 317.854 137.551C314.266 139.266 315.672 138.794 313.32 141.29H313.322Z" fill="#232323"/>
<path d="M526.719 326.756H58.3912V328.44H526.719V326.756Z" fill="#232323"/>
<path d="M415.443 154.493C414.908 153.985 369.824 155.482 369.945 153.953V144.835C369.826 143.306 414.91 144.803 415.447 144.293C415.744 144.293 415.987 144.536 415.987 144.835V153.951C415.987 154.25 415.746 154.491 415.447 154.491L415.443 154.493Z" fill="#214F6F"/>
<path d="M380.565 149.395C380.473 154.696 372.587 154.696 372.497 149.395C372.589 144.094 380.475 144.094 380.565 149.395Z" fill="#E3EEFE"/>
<path d="M375.585 149.559C375.379 149.38 375.017 148.687 374.674 149.01C374.485 149.165 374.155 149.423 374.394 149.682L375.501 150.933C375.835 151.275 376.184 150.702 376.441 150.526L379.15 148.129C379.417 147.902 379.126 147.603 378.954 147.427C378.483 146.726 376.055 150.259 375.585 149.557V149.559Z" fill="#214F6F"/>
<path d="M398.477 146.707H382.611V148.551H398.477V146.707Z" fill="#E3EEFE"/>
<path d="M392.237 150.685H382.611V152.529H392.237V150.685Z" fill="#E3EEFE"/>
<path d="M400.999 150.685H393.665V152.529H400.999V150.685Z" fill="#E3EEFE"/>
<path d="M414.084 150.685H401.974V152.529H414.084V150.685Z" fill="#E3EEFE"/>
<path d="M414.084 146.707H399.86V148.551H414.084V146.707Z" fill="#E3EEFE"/>
<path d="M456.971 158.066H397.137C396.74 158.066 396.418 158.387 396.418 158.784V170.918C396.418 171.315 396.74 171.636 397.137 171.636H456.971C457.368 171.636 457.69 171.315 457.69 170.918V158.784C457.69 158.387 457.368 158.066 456.971 158.066Z" fill="#214F6F"/>
<path d="M410.553 164.851C410.431 171.907 399.935 171.907 399.816 164.851C399.937 157.795 410.433 157.797 410.553 164.851Z" fill="#E3EEFE"/>
<path d="M403.926 165.069C403.654 164.83 403.17 163.908 402.713 164.338C402.461 164.543 402.022 164.886 402.339 165.234L403.812 166.899C404.256 167.354 404.721 166.591 405.063 166.357L408.667 163.169C409.022 162.865 408.636 162.469 408.406 162.236C408.251 162.06 407.984 162.043 407.809 162.198L404.522 165.107C404.346 165.262 404.079 165.245 403.924 165.069H403.926Z" fill="#214F6F"/>
<path d="M434.392 161.274H413.276V163.729H434.392V161.274Z" fill="#E3EEFE"/>
<path d="M426.087 166.566H413.276V169.021H426.087V166.566Z" fill="#E3EEFE"/>
<path d="M432.458 166.566H427.987V169.021H432.458V166.566Z" fill="#E3EEFE"/>
<path d="M441.491 166.566H434.108V169.021H441.491V166.566Z" fill="#E3EEFE"/>
<path d="M450.955 166.566H443.572V169.021H450.955V166.566Z" fill="#E3EEFE"/>
<path d="M455.164 166.566H453.034V169.021H455.164V166.566Z" fill="#E3EEFE"/>
<path d="M455.162 161.274H436.232V163.729H455.162V161.274Z" fill="#E3EEFE"/>
</svg>
