<svg width="500" height="501" viewBox="0 0 500 501" fill="none" xmlns="http://www.w3.org/2000/svg">
<path d="M500 382.733H0V382.983H500V382.733Z" fill="#EBEBEB"/>
<path d="M449.9 398.823H396.83V399.073H449.9V398.823Z" fill="#EBEBEB"/>
<path d="M331.22 395.693H272.56V395.943H331.22V395.693Z" fill="#EBEBEB"/>
<path d="M399.39 394.253H380.2V394.503H399.39V394.253Z" fill="#EBEBEB"/>
<path d="M143.66 391.223H100.47V391.473H143.66V391.223Z" fill="#EBEBEB"/>
<path d="M94.9 391.223H79.46V391.473H94.9V391.223Z" fill="#EBEBEB"/>
<path d="M185.67 395.443H131.47V395.693H185.67V395.443Z" fill="#EBEBEB"/>
<path d="M237.01 338.133H43.92C40.77 338.133 38.21 335.573 38.21 332.423V60.9933C38.21 57.8433 40.77 55.2833 43.92 55.2833H237.01C240.16 55.2833 242.72 57.8433 242.72 60.9933V332.423C242.72 335.573 240.16 338.133 237.01 338.133ZM43.92 55.5333C40.91 55.5333 38.46 57.9833 38.46 60.9933V332.423C38.46 335.433 40.91 337.883 43.92 337.883H237.01C240.02 337.883 242.47 335.433 242.47 332.423V60.9933C242.47 57.9833 240.02 55.5333 237.01 55.5333H43.92Z" fill="#EBEBEB"/>
<path d="M453.31 338.133H260.21C257.06 338.133 254.5 335.573 254.5 332.423V60.9933C254.5 57.8433 257.06 55.2833 260.21 55.2833H453.31C456.46 55.2833 459.02 57.8433 459.02 60.9933V332.423C459.02 335.573 456.46 338.133 453.31 338.133ZM260.21 55.5333C257.2 55.5333 254.75 57.9833 254.75 60.9933V332.423C254.75 335.433 257.2 337.883 260.21 337.883H453.31C456.32 337.883 458.77 335.433 458.77 332.423V60.9933C458.77 57.9833 456.32 55.5333 453.31 55.5333H260.21Z" fill="#EBEBEB"/>
<path d="M372.78 278.113C347.2 244.953 335.36 212.443 304.26 260.283C290.27 245.503 277.97 230.703 269.01 216.763C220.56 141.293 171.85 187.733 132.29 239.013C92.73 290.293 46.99 382.733 46.99 382.733H458.77C458.77 382.733 398.51 311.483 372.78 278.113Z" fill="#F5F5F5"/>
<path d="M284.97 304.753C271.72 279.883 265.63 255.493 249.39 292.083C233.95 326.893 194.35 382.723 194.35 382.723H329.26C329.26 382.723 298.22 329.613 284.97 304.743V304.753Z" fill="#F0F0F0"/>
<path d="M66.17 89.7833C67.45 89.8333 68.39 90.1433 68.95 90.6433C75.06 87.6733 82.15 85.8433 88.08 86.0533C91.09 86.1533 93.46 86.7633 95.11 87.7633C101.62 83.2833 110.01 80.1033 116.19 80.1033C119.7 80.1033 121.93 81.1333 122.77 82.8533C129.51 79.8433 136.49 77.9933 142.17 77.9933C151.23 77.9933 154.36 82.6933 150.91 89.2933C155.18 89.4133 158.78 92.0133 155.71 94.3533H55.64C55.76 94.2133 55.88 94.0633 56.02 93.9133C58.22 91.5233 62.76 89.6833 66.17 89.8033V89.7833Z" fill="#FAFAFA"/>
<path d="M169.52 118.903C170.27 118.933 170.81 119.163 171.11 119.523C174.82 117.363 179.04 116.033 182.49 116.173C184.25 116.243 185.61 116.693 186.52 117.423C190.51 114.163 195.56 111.853 199.17 111.853C201.23 111.853 202.48 112.603 202.9 113.853C206.97 111.663 211.13 110.313 214.45 110.313C218.57 110.313 220.47 112.383 220.03 115.563C221.98 114.643 223.91 114.093 225.5 114.093C227.7 114.093 228.77 115.143 228.66 116.783C228.85 116.783 229.05 116.783 229.23 116.813C232.6 117.083 233.97 119.203 232.45 121.623H163.63C165.07 120.023 167.62 118.833 169.51 118.913L169.52 118.903Z" fill="#FAFAFA"/>
<path d="M78.13 149.883C78.65 149.903 79.02 150.063 79.23 150.313C81.79 148.813 84.71 147.903 87.1 148.003C88.32 148.053 89.25 148.363 89.89 148.863C92.65 146.613 96.14 145.013 98.64 145.013C100.06 145.013 100.93 145.533 101.22 146.393C104.04 144.873 106.91 143.943 109.21 143.943C112.06 143.943 113.37 145.373 113.07 147.573C114.42 146.933 115.75 146.553 116.85 146.553C118.37 146.553 119.11 147.273 119.03 148.413C119.16 148.413 119.3 148.413 119.43 148.433C121.76 148.623 122.71 150.083 121.66 151.763H74.08C75.08 150.663 76.84 149.833 78.14 149.893L78.13 149.883Z" fill="#FAFAFA"/>
<path d="M398.81 140.393C418.079 140.393 433.7 124.772 433.7 105.503C433.7 86.2341 418.079 70.6133 398.81 70.6133C379.541 70.6133 363.92 86.2341 363.92 105.503C363.92 124.772 379.541 140.393 398.81 140.393Z" fill="#F0F0F0"/>
<path d="M313.65 104.483C314.93 104.533 315.87 104.843 316.43 105.343C322.54 102.373 329.63 100.543 335.56 100.753C338.57 100.853 340.94 101.463 342.59 102.463C349.1 97.9833 357.49 94.8033 363.67 94.8033C367.18 94.8033 369.41 95.8333 370.25 97.5533C376.99 94.5433 383.97 92.6933 389.65 92.6933C398.71 92.6933 401.84 97.3933 398.39 103.993C402.66 104.113 406.26 106.713 403.19 109.053H303.12C303.24 108.913 303.36 108.763 303.5 108.613C305.7 106.223 310.24 104.383 313.65 104.503V104.483Z" fill="#FAFAFA"/>
<path d="M380.33 160.453C381.08 160.483 381.62 160.713 381.92 161.073C385.62 158.913 389.85 157.583 393.3 157.723C395.06 157.793 396.42 158.243 397.33 158.973C401.32 155.713 406.37 153.403 409.99 153.403C412.05 153.403 413.3 154.153 413.72 155.403C417.79 153.213 421.95 151.863 425.27 151.863C429.39 151.863 431.29 153.933 430.85 157.113C432.8 156.193 434.73 155.643 436.32 155.643C438.52 155.643 439.59 156.693 439.48 158.333C439.67 158.333 439.87 158.333 440.05 158.363C443.42 158.633 444.79 160.753 443.27 163.173H374.45C375.89 161.573 378.44 160.383 380.33 160.463V160.453Z" fill="#FAFAFA"/>
<path d="M250 427.893C357.082 427.893 443.89 422.825 443.89 416.573C443.89 410.321 357.082 405.253 250 405.253C142.917 405.253 56.11 410.321 56.11 416.573C56.11 422.825 142.917 427.893 250 427.893Z" fill="#F5F5F5"/>
<path d="M391.512 285.003L390.556 285.296L392.936 293.06L393.892 292.766L391.512 285.003Z" fill="#F4A623"/>
<path d="M382.319 255.022L381.363 255.315L388.447 278.413L389.403 278.12L382.319 255.022Z" fill="#F4A623"/>
<path d="M349.01 158.333H313.42L239.28 400.063C236.8 408.163 242.85 416.353 251.32 416.353H411.11C419.58 416.353 425.63 408.163 423.15 400.063L349.01 158.333Z" fill="#F4A623"/>
<path opacity="0.2" d="M349.01 158.333H331.22L308.67 416.353H411.12C419.59 416.353 425.64 408.163 423.16 400.063L349.02 158.333H349.01Z" fill="#263238"/>
<path opacity="0.2" d="M349.01 158.333H340.66L366.11 416.353H411.11C419.58 416.353 425.63 408.163 423.15 400.063L349.01 158.333Z" fill="#263238"/>
<path opacity="0.2" d="M313.43 158.333H322L260.67 416.353H251.33C242.86 416.353 236.81 408.163 239.29 400.063L313.43 158.333Z" fill="white"/>
<path d="M330.94 148.723C341.62 148.723 350.96 155.893 353.74 166.193L365.22 208.883L362.17 222.383L350.49 211.303L339.42 236.723L329.34 219.053L316.82 236.723L311.37 210.223L299.97 225.333L297.27 207.893L308.09 166.383C310.8 155.983 320.19 148.733 330.93 148.733L330.94 148.723Z" fill="#F4A623"/>
<path opacity="0.7" d="M330.94 148.723C341.62 148.723 350.96 155.893 353.74 166.193L365.22 208.883L362.17 222.383L350.49 211.303L339.42 236.723L329.34 219.053L316.82 236.723L311.37 210.223L299.97 225.333L297.27 207.893L308.09 166.383C310.8 155.983 320.19 148.733 330.93 148.733L330.94 148.723Z" fill="white"/>
<path d="M308.67 417.353C308.29 417.353 307.93 417.133 307.76 416.773L290.81 380.033C290.63 379.643 290.72 379.183 291.03 378.883L357 317.063L316.01 237.183C315.91 236.993 315.88 236.773 315.91 236.563L330.25 151.233C330.34 150.693 330.86 150.323 331.4 150.413C331.94 150.503 332.31 151.023 332.22 151.563L317.93 236.573L359.11 316.833C359.31 317.233 359.23 317.713 358.9 318.023L292.91 379.863L309.55 415.943C309.78 416.443 309.56 417.043 309.06 417.273C308.92 417.333 308.78 417.363 308.64 417.363L308.67 417.353Z" fill="white"/>
<path d="M368.124 319.593C369.414 314.127 366.029 308.649 360.562 307.359C355.096 306.069 349.618 309.455 348.328 314.921C347.038 320.388 350.423 325.865 355.89 327.155C361.356 328.445 366.834 325.06 368.124 319.593Z" fill="#F4A623"/>
<path d="M358.24 328.443C352.08 328.443 347.07 323.433 347.07 317.273C347.07 311.113 352.08 306.103 358.24 306.103C364.4 306.103 369.41 311.113 369.41 317.273C369.41 323.433 364.4 328.443 358.24 328.443ZM358.24 308.113C353.19 308.113 349.07 312.223 349.07 317.283C349.07 322.343 353.18 326.453 358.24 326.453C363.3 326.453 367.41 322.343 367.41 317.283C367.41 312.223 363.3 308.113 358.24 308.113Z" fill="white"/>
<path d="M301.769 381.262C302.669 375.718 298.905 370.494 293.36 369.594C287.816 368.694 282.592 372.459 281.692 378.003C280.792 383.547 284.557 388.771 290.101 389.671C295.646 390.571 300.87 386.806 301.769 381.262Z" fill="#F4A623"/>
<path d="M291.72 390.773C285.56 390.773 280.55 385.763 280.55 379.603C280.55 373.443 285.56 368.433 291.72 368.433C297.88 368.433 302.89 373.443 302.89 379.603C302.89 385.763 297.88 390.773 291.72 390.773ZM291.72 370.443C286.67 370.443 282.55 374.553 282.55 379.613C282.55 384.673 286.66 388.783 291.72 388.783C296.78 388.783 300.89 384.673 300.89 379.613C300.89 374.553 296.78 370.443 291.72 370.443Z" fill="white"/>
<path d="M316.91 246.893C322.527 246.893 327.08 242.34 327.08 236.723C327.08 231.106 322.527 226.553 316.91 226.553C311.293 226.553 306.74 231.106 306.74 236.723C306.74 242.34 311.293 246.893 316.91 246.893Z" fill="#F4A623"/>
<path d="M316.91 247.893C310.75 247.893 305.74 242.883 305.74 236.723C305.74 230.563 310.75 225.553 316.91 225.553C323.07 225.553 328.08 230.563 328.08 236.723C328.08 242.883 323.07 247.893 316.91 247.893ZM316.91 227.563C311.86 227.563 307.74 231.673 307.74 236.733C307.74 241.793 311.85 245.903 316.91 245.903C321.97 245.903 326.08 241.793 326.08 236.733C326.08 231.673 321.97 227.563 316.91 227.563Z" fill="white"/>
<path d="M341.302 153.026C342.202 147.482 338.437 142.258 332.893 141.358C327.348 140.458 322.124 144.223 321.224 149.767C320.325 155.311 324.089 160.535 329.634 161.435C335.178 162.335 340.402 158.57 341.302 153.026Z" fill="#F4A623"/>
<path d="M331.25 162.553C325.09 162.553 320.08 157.543 320.08 151.383C320.08 145.223 325.09 140.213 331.25 140.213C337.41 140.213 342.42 145.223 342.42 151.383C342.42 157.543 337.41 162.553 331.25 162.553ZM331.25 142.223C326.2 142.223 322.08 146.333 322.08 151.393C322.08 156.453 326.19 160.563 331.25 160.563C336.31 160.563 340.42 156.453 340.42 151.393C340.42 146.333 336.31 142.223 331.25 142.223Z" fill="white"/>
<path d="M331.22 151.443C330.67 151.443 330.22 150.993 330.22 150.443V105.503C330.22 104.953 330.67 104.503 331.22 104.503C331.77 104.503 332.22 104.953 332.22 105.503V150.443C332.22 150.993 331.77 151.443 331.22 151.443Z" fill="#F4A623"/>
<path d="M290.89 124.193C299.85 127.253 308.81 121.133 317.78 124.193V108.913C308.82 105.853 299.86 111.973 290.89 108.913V124.193Z" fill="#F4A623"/>
<path opacity="0.2" d="M300.71 109.483V124.753C306.4 124.003 312.09 122.253 317.78 124.193V108.913C312.09 106.973 306.4 108.723 300.71 109.483Z" fill="black"/>
<path d="M304.33 120.773C313.29 123.833 322.25 117.713 331.22 120.773V105.493C322.26 102.433 313.3 108.553 304.33 105.493V120.773Z" fill="#F4A623"/>
<path d="M158.72 215.963L161.83 220.963L152.9 222.103C152.9 222.103 153.08 220.143 153.75 217.213C154.03 215.983 155.23 215.203 156.46 215.473L158.72 215.963Z" fill="#7F3E3B"/>
<path d="M161.09 228.983L154.14 226.853L152.9 222.113L161.83 220.973L161.09 228.983Z" fill="#7F3E3B"/>
<path d="M184.77 159.973C185.84 159.643 187.11 159.193 188.29 158.793C189.49 158.373 190.69 157.933 191.88 157.463C194.25 156.523 196.6 155.563 198.86 154.463C203.37 152.333 207.72 149.813 210.86 146.813C211.66 146.073 212.31 145.303 212.87 144.533L213.07 144.243C213.07 144.243 213.33 143.733 212.93 144.663C212.7 145.283 212.68 145.933 212.72 146.333C212.72 146.433 212.75 146.533 212.77 146.633L212.82 146.843C212.84 146.913 212.86 146.973 212.88 147.033L212.92 147.153C213.05 147.453 213.09 147.433 213.07 147.373C213.03 147.293 212.95 147.163 212.83 147.003C212.34 146.343 211.48 145.493 210.59 144.703C209.68 143.903 208.72 143.083 207.72 142.283C203.69 139.083 199.32 135.943 195.04 132.793L197.64 127.933C202.82 129.943 207.76 132.223 212.65 135.073C213.87 135.793 215.1 136.533 216.31 137.393C217.53 138.263 218.75 139.143 220.08 140.483C220.74 141.213 221.47 141.873 222.24 143.663L222.37 144.013L222.5 144.453C222.54 144.603 222.57 144.733 222.6 144.913C222.63 145.093 222.66 145.273 222.68 145.463C222.76 146.193 222.7 147.183 222.36 148.123C221.84 149.373 221.85 149.153 221.72 149.423L221.39 149.993C220.48 151.483 219.46 152.823 218.36 154.013C213.94 158.743 208.88 161.803 203.78 164.453C201.21 165.743 198.61 166.913 195.97 167.933C194.65 168.443 193.32 168.933 191.98 169.403C190.62 169.883 189.33 170.273 187.82 170.703L184.79 159.993L184.77 159.973Z" fill="#7F3E3B"/>
<path d="M188.83 126.073L183.51 129.553L191.13 131.293L193.08 125.923L188.83 126.073Z" fill="#7F3E3B"/>
<path d="M199.61 128.753L193.08 125.923L191.13 131.293C191.13 131.293 196.32 136.733 199.61 133.103V128.743V128.753Z" fill="#7F3E3B"/>
<path d="M160.73 169.523C158.27 173.973 155.78 178.583 153.41 183.143C151.05 187.703 148.71 192.313 146.77 196.893C146.27 198.043 145.82 199.173 145.4 200.303L145.25 200.673C145.25 200.673 145.25 200.593 145.25 200.563C145.25 200.493 145.23 200.473 145.21 200.483C145.19 200.513 145.17 200.703 145.23 201.003C145.35 201.603 145.75 202.493 146.3 203.383C146.85 204.273 147.49 205.223 148.23 206.143C151.18 209.853 154.94 213.513 158.64 216.953L155.56 221.533C150.64 218.953 146.11 216.023 141.84 212.063C140.79 211.053 139.74 209.983 138.75 208.733C137.77 207.473 136.81 206.083 136.06 204.193C135.69 203.253 135.39 202.143 135.3 200.853C135.26 200.203 135.28 199.523 135.4 198.803C135.45 198.453 135.54 198.093 135.63 197.733L135.8 197.173C136.21 195.803 136.63 194.453 137.1 193.153C138.95 187.913 141.16 183.003 143.48 178.143C145.85 173.303 148.33 168.623 151.09 163.933L160.73 169.513V169.523Z" fill="#7F3E3B"/>
<path d="M167.74 137.493C167.09 144.253 168.05 150.793 166.54 156.663C166.54 156.663 168.22 162.113 178.21 162.113C189.19 162.113 183.25 156.663 183.25 156.663C177.2 155.233 177.18 150.783 178.07 146.613L167.75 137.493H167.74Z" fill="#7F3E3B"/>
<path d="M165.17 158.533C164.32 156.803 163.37 154.833 165.14 154.213C167.09 153.533 177.85 152.833 181.63 154.113C185.4 155.393 184.48 158.893 184.48 158.893L165.17 158.533Z" fill="#263238"/>
<path d="M143.76 404.403C143.03 404.253 142.28 403.933 141.77 403.683C141.7 403.653 141.66 403.583 141.66 403.503C141.66 403.423 141.71 403.363 141.78 403.333C142.1 403.213 144.97 402.203 145.74 402.833C145.86 402.933 145.99 403.113 145.95 403.423C145.89 403.843 145.69 404.143 145.36 404.323C144.94 404.543 144.36 404.533 143.76 404.403ZM142.36 403.533C143.64 404.083 144.67 404.253 145.18 403.983C145.4 403.863 145.53 403.663 145.58 403.363C145.6 403.213 145.55 403.153 145.51 403.123C145.11 402.793 143.52 403.163 142.37 403.533H142.36Z" fill="#F4A623"/>
<path d="M141.81 403.703C141.81 403.703 141.74 403.683 141.72 403.653C141.67 403.603 141.65 403.533 141.67 403.463C141.7 403.373 142.37 401.143 143.44 400.593C143.72 400.453 144 400.423 144.28 400.523C144.71 400.673 144.77 400.973 144.77 401.133C144.75 402.043 142.81 403.433 141.91 403.693C141.88 403.693 141.85 403.703 141.82 403.693L141.81 403.703ZM144.07 400.863C143.92 400.833 143.77 400.863 143.61 400.933C142.92 401.283 142.39 402.553 142.16 403.193C143.1 402.753 144.38 401.663 144.39 401.123C144.39 401.073 144.39 400.963 144.16 400.873C144.16 400.873 144.1 400.853 144.08 400.853L144.07 400.863Z" fill="#F4A623"/>
<path d="M195.29 409.643C194.55 409.643 193.75 409.493 193.19 409.353C193.12 409.333 193.06 409.273 193.05 409.203C193.04 409.123 193.07 409.053 193.14 409.013C193.43 408.833 196.02 407.243 196.91 407.693C197.05 407.763 197.22 407.913 197.24 408.233C197.27 408.663 197.13 408.993 196.85 409.233C196.49 409.543 195.92 409.643 195.3 409.643H195.29ZM193.74 409.083C195.1 409.353 196.15 409.303 196.59 408.943C196.78 408.783 196.87 408.553 196.85 408.253C196.85 408.103 196.78 408.053 196.73 408.033C196.27 407.793 194.79 408.483 193.74 409.093V409.083Z" fill="#F4A623"/>
<path d="M193.24 409.363C193.24 409.363 193.17 409.353 193.14 409.333C193.08 409.293 193.05 409.233 193.05 409.163C193.05 409.063 193.25 406.753 194.18 405.983C194.42 405.783 194.7 405.703 194.99 405.743C195.44 405.803 195.56 406.083 195.59 406.243C195.76 407.133 194.15 408.893 193.32 409.343C193.29 409.363 193.26 409.363 193.23 409.363H193.24ZM194.86 406.113C194.7 406.113 194.56 406.163 194.42 406.283C193.82 406.773 193.57 408.123 193.47 408.793C194.3 408.163 195.32 406.833 195.22 406.313C195.22 406.263 195.19 406.153 194.94 406.123C194.94 406.123 194.88 406.123 194.85 406.123L194.86 406.113Z" fill="#F4A623"/>
<path d="M184.6 409.073H191.94L192.02 392.053H184.67L184.6 409.073Z" fill="#7F3E3B"/>
<path d="M133.13 402.313L140.15 403.673L145.99 386.993L138.97 385.633L133.13 402.313Z" fill="#7F3E3B"/>
<path d="M141.1 402.693L133.03 400.973C132.74 400.913 132.45 401.063 132.33 401.333L129.8 407.473C129.54 408.113 129.95 408.853 130.63 408.983C133.46 409.533 134.85 409.663 138.4 410.413C140.58 410.873 145.04 412.063 148.06 412.703C151.01 413.333 151.99 410.423 150.8 409.883C145.47 407.483 143.68 405.353 142.19 403.373C141.92 403.013 141.53 402.773 141.1 402.683V402.693Z" fill="#263238"/>
<path d="M191.86 408.223H183.84C183.54 408.223 183.29 408.433 183.23 408.723L182.03 415.253C181.91 415.933 182.44 416.573 183.14 416.563C186.03 416.513 190.21 416.343 193.84 416.343C198.09 416.343 198.3 416.573 203.29 416.573C206.31 416.573 207.03 413.523 205.75 413.243C199.95 411.983 198.73 411.853 193.65 408.793C193.1 408.463 192.49 408.223 191.86 408.223Z" fill="#263238"/>
<path d="M154.44 158.133C147.68 159.973 139.69 178.673 139.69 178.673L155.21 187.443C155.21 187.443 158.84 180.823 162.42 172.623C166.17 164.033 165.72 155.053 154.44 158.133Z" fill="#263238"/>
<path d="M198.35 191.143C198.3 199.343 197.8 209.543 196.58 222.203H157.28C156.8 216.503 159.15 189.853 153.56 162.933C153.03 160.373 154.73 157.883 157.32 157.503C159.7 157.153 162.68 156.793 165.61 156.653C170.62 156.413 177.88 156.253 182.31 156.653C184.78 156.873 187.2 157.273 189.17 157.663C192.36 158.293 194.96 160.633 195.83 163.773C196.7 166.913 197.62 171.843 198.07 179.403C198.27 182.773 198.38 186.653 198.35 191.133V191.143Z" fill="#263238"/>
<path d="M180.68 172.313C186.8 175.693 200.87 171.833 200.87 171.833L200.14 152.783C200.14 152.783 193.9 153.293 185.32 156.793C175.74 160.693 173.78 168.513 180.68 172.323V172.313Z" fill="#263238"/>
<path d="M188.72 155.113C188.72 155.113 185.88 156.113 184.83 156.423C181.06 160.563 178.71 169.563 178.71 169.563L183.5 175.893C181.68 166.503 188.72 155.113 188.72 155.113Z" fill="#F4A623"/>
<path opacity="0.2" d="M188.72 155.113C188.72 155.113 185.88 156.113 184.83 156.423C181.06 160.563 178.71 169.563 178.71 169.563L183.5 175.893C181.68 166.503 188.72 155.113 188.72 155.113Z" fill="black"/>
<path d="M198.36 202.273C194.61 205.163 187.16 198.443 187.16 198.443L187.38 201.853C194.21 207.563 198.26 204.733 198.26 204.733C198.26 204.733 198.5 203.673 198.36 202.283V202.273Z" fill="#F4A623"/>
<path opacity="0.2" d="M198.36 202.273C194.61 205.163 187.16 198.443 187.16 198.443L187.38 201.853C194.21 207.563 198.26 204.733 198.26 204.733C198.26 204.733 198.5 203.673 198.36 202.283V202.273Z" fill="black"/>
<path d="M163.42 156.423C161.25 156.633 160.09 156.963 160.09 156.963C160.09 156.963 157.36 162.943 158.98 170.483L163.29 168.543C163.29 168.543 161.91 162.003 163.41 156.423H163.42Z" fill="#F4A623"/>
<path opacity="0.2" d="M163.42 156.423C161.25 156.633 160.09 156.963 160.09 156.963C160.09 156.963 157.36 162.943 158.98 170.483L163.29 168.543C163.29 168.543 161.91 162.003 163.41 156.423H163.42Z" fill="black"/>
<path d="M158.35 169.583C160.69 165.913 178.74 166.323 182.63 169.333C186.53 172.343 191.24 205.163 185.47 208.833C179.7 212.503 153.08 214.253 152.89 206.833C152.7 199.413 158.76 186.513 158.03 182.253C157.3 177.983 155.15 174.583 158.34 169.583H158.35Z" fill="#F4A623"/>
<path opacity="0.4" d="M158.6 181.043C158.6 181.043 165.18 183.603 179.09 180.493C176.38 181.903 162.08 185.133 158.6 181.043Z" fill="#263238"/>
<path opacity="0.4" d="M166.55 180.083C166.64 180.693 166.3 181.193 165.79 181.193C165.28 181.193 164.8 180.693 164.72 180.083C164.63 179.473 164.97 178.973 165.48 178.973C165.99 178.973 166.47 179.473 166.55 180.083Z" fill="#263238"/>
<path opacity="0.4" d="M181.88 209.363C181.88 209.363 181.83 209.363 181.81 209.353C181.68 209.313 181.6 209.173 181.64 209.043C183.76 202.093 183.5 192.503 180.86 180.553C179.77 175.603 181.01 170.793 181.67 169.803C181.75 169.683 181.9 169.653 182.02 169.733C182.13 169.813 182.17 169.963 182.09 170.083C181.41 171.103 180.34 175.863 181.35 180.443C184.01 192.483 184.27 202.153 182.12 209.183C182.09 209.293 181.99 209.363 181.88 209.363Z" fill="#263238"/>
<g opacity="0.2">
<path d="M192.02 392.063L191.98 400.833H184.63L184.67 392.063H192.02Z" fill="black"/>
<path d="M138.97 385.633L145.99 386.993L142.97 395.593L135.95 394.233L138.97 385.633Z" fill="black"/>
</g>
<path d="M182.64 222.203C182.64 222.203 176.47 278.343 172.71 299.383C168.59 322.413 147.24 394.713 147.24 394.713L134.08 391.913C134.08 391.913 148.78 324.273 150.76 301.473C152.91 276.723 157.3 222.213 157.3 222.213H182.65L182.64 222.203Z" fill="#F4A623"/>
<path d="M150.18 390.263C150.24 390.273 147.94 395.073 147.94 395.073L133.13 391.923L134.19 387.433L150.18 390.273V390.263Z" fill="#263238"/>
<path opacity="0.2" d="M178.14 242.203C168.57 244.093 170.98 280.043 172.86 298.533C175.14 285.463 178.23 260.313 180.33 242.463C179.68 242.143 178.95 242.043 178.15 242.203H178.14Z" fill="black"/>
<path d="M196.58 222.203C196.58 222.203 199.71 277.133 199.78 299.533C199.85 322.833 194.66 399.133 194.66 399.133H182.22C182.22 399.133 178.87 324.193 177.43 301.313C175.86 276.363 170.76 222.203 170.76 222.203H196.59H196.58Z" fill="#F4A623"/>
<path d="M196.85 394.173C196.91 394.173 196.35 399.343 196.35 399.343H181.21L180.62 394.733L196.85 394.173Z" fill="#263238"/>
<path d="M184.42 130.493C184.5 131.083 184.88 131.523 185.27 131.483C185.66 131.443 185.9 130.933 185.82 130.353C185.74 129.763 185.36 129.323 184.97 129.363C184.58 129.403 184.34 129.913 184.42 130.493Z" fill="#263238"/>
<path d="M184.83 131.533C184.83 131.533 186.65 134.783 188.36 136.263C187.45 137.343 185.62 137.073 185.62 137.073L184.83 131.523V131.533Z" fill="#630F0F"/>
<path d="M184.66 126.663C184.76 126.623 184.85 126.543 184.88 126.423C184.93 126.233 184.82 126.043 184.63 125.993C184.56 125.973 182.99 125.573 181.59 126.853C181.45 126.983 181.44 127.203 181.57 127.343C181.7 127.483 181.92 127.493 182.06 127.363C183.18 126.343 184.44 126.663 184.45 126.663C184.52 126.683 184.59 126.673 184.66 126.663Z" fill="#263238"/>
<path d="M164.58 131.263C166.05 138.433 166.54 142.683 170.72 146.013C177.01 151.013 185.48 146.803 186.18 139.423C186.82 132.783 184.31 122.183 176.82 120.043C169.44 117.933 163.11 124.103 164.58 131.273V131.263Z" fill="#7F3E3B"/>
<path d="M180.04 132.333C178.82 136.113 172.03 143.333 169.63 143.893C167.23 144.453 160.64 138.753 160.04 135.783C157.64 135.503 155 130.713 158.68 128.843C155.99 127.473 156.7 120.333 162.18 120.843C158.83 117.623 162.85 112.183 167.4 113.623C168.49 110.843 174.66 109.063 178.2 113.343C180.97 111.783 185.82 114.923 185.46 119.623C185.22 122.843 182.27 125.463 180.12 125.933C181.28 127.353 180.04 132.343 180.04 132.343V132.333Z" fill="#263238"/>
<path d="M176.37 131.333C176.77 133.213 177.91 134.903 179.14 135.953C180.99 137.533 182.47 136.243 182.43 134.073C182.39 132.123 181.38 128.943 179.3 128.193C177.25 127.453 175.91 129.173 176.37 131.333Z" fill="#7F3E3B"/>
</svg>
