<svg width="500" height="501" viewBox="0 0 500 501" fill="none" xmlns="http://www.w3.org/2000/svg">
<path d="M427.818 331.571C421.793 317.866 410.22 306.428 396.32 300.801C381.842 294.938 365.217 297.071 349.967 295.108C336.723 293.403 327.168 287.491 319.258 276.978C311.68 266.906 304.885 255.751 292.497 251.091C282.708 247.408 271.577 248.431 261.848 252.266C243.92 259.336 230.378 274.366 218.973 289.341C208.56 303.013 200.067 317.983 180.807 318.471C161.535 318.958 143.188 307.966 123.785 310.878C98.14 314.728 76.78 336.078 72.305 361.493C68.11 385.313 78.635 408.418 96.7175 421.991H407.522C430.307 397.818 442.263 364.428 427.818 331.571Z" fill="#F7F0E3"/>
<path d="M146.855 421.993H147.71C153.647 415.466 158.3 407.548 161.255 398.758C166.04 384.531 165.84 369.598 160.687 356.713C158.085 350.201 154.325 344.133 150.687 338.263C147 332.311 143.187 326.156 140.6 319.561C139.53 316.833 138.74 313.906 138.265 310.918C138.05 310.891 137.835 310.868 137.622 310.841C138.1 313.936 138.912 316.968 140.02 319.788C142.627 326.436 146.457 332.616 150.16 338.591C153.782 344.436 157.527 350.483 160.11 356.943C165.207 369.691 165.405 384.471 160.665 398.558C157.672 407.458 152.922 415.451 146.857 421.993H146.855Z" fill="white"/>
<path d="M406.02 394.886C412.425 396.251 418.595 397.473 424.562 398.243C424.665 398.046 424.765 397.848 424.865 397.651C418.847 396.886 412.617 395.653 406.15 394.273C396.3 392.176 385.64 389.903 375.065 389.903C368.517 389.903 362.005 390.773 355.74 393.096C353.367 393.976 351.08 395.091 348.9 396.421C343.242 394.011 337.555 391.378 331.922 388.488C336.01 385.408 340.142 382.393 344.317 379.478C375.312 357.836 403.917 345.566 431.552 342.083C431.497 341.881 431.44 341.678 431.382 341.476C403.672 344.986 375.007 357.288 343.962 378.966C339.697 381.943 335.48 385.026 331.307 388.171C324.972 384.898 318.712 381.301 312.652 377.331C301.662 370.131 288.592 359.853 277.177 346.196C321.415 341.233 366.452 334.981 403.232 310.398C404.63 309.466 406.177 308.363 407.78 307.116C407.602 306.991 407.422 306.866 407.245 306.741C405.71 307.931 404.227 308.981 402.887 309.878C366.117 334.453 320.995 340.658 276.702 345.621C268.635 335.863 261.427 324.403 256.42 311.136C248.617 290.468 249.03 270.188 257.55 255.491C257.92 254.853 258.31 254.223 258.712 253.603C258.357 253.766 258.005 253.936 257.652 254.106C257.432 254.461 257.217 254.818 257.01 255.178C248.395 270.038 247.967 290.513 255.835 311.356C260.817 324.551 267.96 335.966 275.96 345.703C273.395 345.991 270.83 346.273 268.275 346.556C259.052 347.573 249.512 348.626 240.252 349.818C236.872 350.253 233.435 350.761 230.012 351.398C222.68 335.921 214.625 320.823 204.212 307.873C204.062 308.021 203.912 308.166 203.762 308.313C214.085 321.163 222.09 336.151 229.38 351.518C214.46 354.363 199.972 359.713 192.237 372.163C185.012 383.791 185.02 399.863 192.257 419.933C192.507 420.628 192.765 421.311 193.027 421.991H193.697C193.41 421.248 193.125 420.496 192.847 419.721C185.677 399.838 185.652 383.948 192.77 372.491C200.412 360.188 214.822 354.911 229.66 352.101C232.25 357.576 234.75 363.098 237.235 368.586L237.505 369.183C246.137 388.238 255.065 406.626 266.752 421.993H267.532C255.737 406.598 246.76 388.101 238.072 368.926L237.802 368.328C235.337 362.888 232.857 357.413 230.292 351.983C233.647 351.363 237.02 350.866 240.335 350.441C249.59 349.248 259.125 348.196 268.347 347.178C271.04 346.881 273.74 346.583 276.44 346.281C287.965 360.151 301.202 370.571 312.317 377.853C318.31 381.781 324.5 385.343 330.762 388.588C320.13 396.631 309.79 405.091 299.692 413.351C296.195 416.211 292.66 419.101 289.095 421.991H290.085C293.447 419.263 296.785 416.536 300.087 413.836C310.255 405.518 320.67 396.996 331.377 388.908C336.98 391.791 342.635 394.418 348.262 396.826C340.565 401.721 334.29 409.303 330.497 418.508C330.022 419.661 329.607 420.826 329.225 421.993H329.882C330.245 420.906 330.632 419.821 331.075 418.746C334.877 409.516 341.205 401.941 348.962 397.123C364.692 403.806 380.15 408.766 393.435 412.696L393.935 412.843C399.532 414.498 405.257 416.196 410.322 418.918C410.465 418.756 410.607 418.596 410.747 418.433C405.6 415.641 399.792 413.921 394.112 412.243L393.612 412.096C380.465 408.206 365.182 403.306 349.622 396.723C351.65 395.516 353.772 394.498 355.967 393.683C372.182 387.673 390.165 391.506 406.03 394.886H406.02Z" fill="white"/>
<path d="M98.285 354.401C101.045 365.701 99.815 377.903 94.905 387.881C91.69 394.416 87.0475 400.333 81.33 405.413C81.4425 405.591 81.56 405.766 81.675 405.941C87.485 400.793 92.2025 394.791 95.465 388.156C100.437 378.048 101.685 365.691 98.89 354.251C96.7075 345.313 92.3175 337.743 86.25 332.266C86.115 332.426 85.98 332.586 85.8475 332.746C91.8125 338.138 96.13 345.596 98.2825 354.401H98.285Z" fill="white"/>
<path d="M239.74 211.263C245.185 216.826 247.625 226.201 244.623 234.841C241.715 243.208 235.343 250.138 227.688 254.596C221.528 258.181 213.493 260.158 207.435 256.403C202.908 253.598 200.56 248.093 200.43 242.771C200.3 237.446 202.09 232.258 204.303 227.413C207.423 220.586 211.62 213.963 217.875 209.811C226.495 204.086 234.505 205.916 239.74 211.263Z" fill="#F7F0E3"/>
<path d="M167.567 113.713H122.482V93.5732H167.567V113.713ZM123.42 112.776H166.63V94.5107H123.42V112.776Z" fill="#E9DDCA"/>
<path d="M138.237 132.973H93.1525V112.833H138.237V132.973ZM94.09 132.036H137.3V113.771H94.09V132.036Z" fill="#E9DDCA"/>
<path d="M424.092 154.436C421.172 144.728 416.037 135.816 408.687 127.668C401.322 119.521 391.277 112.793 378.552 107.473C365.827 102.153 349.66 99.4933 330.05 99.4933C314.405 99.4933 298.462 101.603 282.22 105.823C265.962 110.058 251.86 116.081 239.9 123.908L255.47 166.653L247.125 173.413L259.227 176.971C271.172 170.718 282.057 166.178 291.877 163.351C301.682 160.538 312.102 159.131 323.15 159.131C334.197 159.131 342.537 161.791 348.21 167.111C353.882 172.446 356.712 178.851 356.712 186.373C356.712 195.453 353.792 203.511 347.985 210.558C342.147 217.606 335.71 224.728 328.657 231.928C323.762 236.928 319.002 242.093 314.405 247.413C309.81 252.748 305.737 258.451 302.22 264.566C298.687 270.666 295.857 277.238 293.717 284.286C291.562 291.333 290.5 299.236 290.5 307.996C290.5 310.823 290.56 314.186 290.725 318.101C290.752 318.823 290.79 319.526 290.832 320.221H279.392L291.877 328.663H352.582C352.267 326.783 352.117 324.596 352.117 322.091V316.451C352.117 311.131 353.195 305.888 355.335 300.721C357.475 295.553 360.17 290.631 363.39 285.923C366.607 281.231 370.202 276.766 374.197 272.548C378.18 268.313 382.012 264.323 385.695 260.563C390.59 255.563 395.65 250.246 400.86 244.603C406.07 238.963 410.68 233.031 414.662 226.763C418.645 220.496 421.937 213.693 424.542 206.326C427.147 198.973 428.465 190.916 428.465 182.141C428.465 173.366 426.997 164.148 424.092 154.441V154.436Z" fill="#E49B31"/>
<path d="M310.295 156.146C299.377 156.146 289.08 157.506 279.39 160.228C269.685 162.966 258.93 167.358 247.122 173.411L228.022 122.058C239.842 114.483 253.78 108.653 269.847 104.556C285.9 100.473 301.655 98.4308 317.115 98.4308C336.495 98.4308 352.475 101.006 365.05 106.153C377.625 111.301 387.552 117.811 394.832 125.696C402.097 133.581 407.17 142.206 410.055 151.601C412.925 160.996 414.375 169.931 414.375 178.408C414.375 186.886 413.072 194.698 410.5 201.813C407.925 208.943 404.67 215.528 400.735 221.593C396.8 227.658 392.242 233.398 387.095 238.858C381.947 244.318 376.945 249.466 372.107 254.303C368.467 257.943 364.68 261.803 360.745 265.903C356.795 269.986 353.245 274.306 350.062 278.848C346.882 283.406 344.217 288.168 342.102 293.168C339.987 298.168 338.922 303.243 338.922 308.391V313.851C338.922 316.278 339.07 318.393 339.38 320.213H279.387C278.765 317.181 278.397 313.778 278.247 309.991C278.085 306.203 278.025 302.948 278.025 300.211C278.025 291.733 279.075 284.086 281.205 277.263C283.32 270.443 286.117 264.081 289.607 258.178C293.085 252.261 297.107 246.743 301.65 241.578C306.192 236.431 310.897 231.428 315.735 226.591C322.702 219.623 329.065 212.728 334.835 205.908C340.575 199.088 343.46 191.291 343.46 182.503C343.46 175.223 340.665 169.026 335.057 163.863C329.45 158.716 321.195 156.141 310.292 156.141L310.295 156.146Z" fill="#FBC343"/>
<path d="M356.732 387.583C356.732 398.528 353.19 406.973 346.102 412.931C339.017 418.901 331.007 421.873 322.065 421.873C313.122 421.873 305.102 418.901 298.017 412.931C290.942 406.973 287.4 398.528 287.4 387.583C287.4 376.638 290.942 368.206 298.017 362.236C308.925 353.031 325.062 350.981 337.832 357.441C349.165 363.173 356.732 374.816 356.732 387.583Z" fill="#E49B31"/>
<path d="M344.857 387.583C344.857 398.528 341.315 406.973 334.227 412.931C327.142 418.901 319.132 421.873 310.19 421.873C301.247 421.873 293.227 418.901 286.142 412.931C279.067 406.973 275.525 398.528 275.525 387.583C275.525 376.638 279.067 368.206 286.142 362.236C293.227 356.278 301.237 353.293 310.19 353.293C319.142 353.293 327.14 356.278 334.227 362.236C341.312 368.206 344.857 376.651 344.857 387.583Z" fill="#FBC343"/>
<path d="M165.155 232.447C165.821 228.898 163.483 225.482 159.935 224.816C156.386 224.151 152.97 226.488 152.304 230.037C151.639 233.586 153.976 237.002 157.525 237.667C161.074 238.333 164.49 235.995 165.155 232.447Z" fill="#214F6F" fill-opacity="0.42"/>
<path d="M168.261 244.689C168.635 242.693 167.309 240.77 165.299 240.393C163.289 240.017 161.356 241.33 160.983 243.326C160.609 245.322 161.935 247.246 163.945 247.622C165.954 247.999 167.887 246.686 168.261 244.689Z" fill="#214F6F" fill-opacity="0.42"/>
<path d="M160.789 216.511C170.841 206.458 170.841 190.161 160.789 180.109C150.737 170.057 134.439 170.057 124.387 180.109C114.335 190.161 114.335 206.458 124.387 216.511C134.439 226.563 150.737 226.563 160.789 216.511Z" fill="#214F6F" fill-opacity="0.42"/>
<path d="M132.705 201.551C134.496 201.551 135.947 200.099 135.947 198.308C135.947 196.518 134.496 195.066 132.705 195.066C130.914 195.066 129.462 196.518 129.462 198.308C129.462 200.099 130.914 201.551 132.705 201.551Z" fill="white"/>
<path d="M142.587 201.551C144.378 201.551 145.83 200.099 145.83 198.308C145.83 196.518 144.378 195.066 142.587 195.066C140.797 195.066 139.345 196.518 139.345 198.308C139.345 200.099 140.797 201.551 142.587 201.551Z" fill="white"/>
<path d="M152.472 201.551C154.263 201.551 155.715 200.099 155.715 198.308C155.715 196.518 154.263 195.066 152.472 195.066C150.682 195.066 149.23 196.518 149.23 198.308C149.23 200.099 150.682 201.551 152.472 201.551Z" fill="white"/>
<path d="M124.15 408.988L126.555 418.261C127.182 420.678 129.52 422.313 132.107 422.136C139.992 421.601 156.377 419.668 165.782 412.736L163.11 399.373C150.18 398.643 138.09 399.363 127.617 402.886C124.995 403.768 123.48 406.396 124.152 408.986L124.15 408.988Z" fill="#102048"/>
<path d="M139.217 416.368C139.08 416.368 138.955 416.278 138.917 416.141L135.687 404.578C135.64 404.413 135.737 404.241 135.905 404.193C136.072 404.148 136.245 404.243 136.29 404.411L139.52 415.973C139.567 416.141 139.47 416.311 139.302 416.358C139.275 416.366 139.245 416.371 139.217 416.371V416.368Z" fill="white"/>
<path d="M146.197 414.806C146.06 414.806 145.935 414.716 145.897 414.578L142.667 403.016C142.62 402.851 142.717 402.678 142.885 402.631C143.052 402.583 143.225 402.681 143.27 402.848L146.5 414.411C146.547 414.578 146.45 414.748 146.282 414.796C146.255 414.803 146.225 414.808 146.197 414.808V414.806Z" fill="white"/>
<path d="M154.302 358.868L124.252 367.788L146.57 398.366L178.61 400.913L222.802 382.228L206.007 356.958L154.302 358.868Z" fill="#F4A623"/>
<path d="M191.352 363.116C257.347 343.581 267.952 401.906 164.985 412.523C161.347 408.431 157.097 401.331 155.41 395.393L209.785 370.266L191.352 363.116Z" fill="#F4A623"/>
<path d="M194.155 404.918C191.067 403.931 188.11 401.978 188.11 401.978L177.505 405.306L179.935 416.843L190.952 419.081C194.31 412.941 194.505 407.901 194.155 404.918Z" fill="#F9B384"/>
<path d="M155.645 395.798L155.175 394.988C166.52 388.396 195.575 372.558 220.332 367.886L220.507 368.808C195.895 373.453 166.95 389.231 155.647 395.798H155.645Z" fill="#232323"/>
<path d="M154.302 358.868C92.8749 347.188 76.9649 406.223 179.935 416.841C183.572 412.748 186.422 407.913 188.11 401.976C172.292 391.393 154.607 381.333 135.227 371.751L154.305 358.868H154.302Z" fill="#F4A623"/>
<path d="M187.86 402.371C184.937 400.511 181.892 398.546 178.67 396.463C162.487 386.016 144.147 374.173 128.565 367.421L128.937 366.561C144.59 373.343 162.965 385.208 179.177 395.676C182.4 397.756 185.442 399.721 188.362 401.581L187.86 402.371Z" fill="#232323"/>
<path d="M109.235 388.138L108.415 387.686C110.72 383.511 114.415 380.696 119.392 379.318L119.642 380.221C114.85 381.548 111.445 384.138 109.235 388.138Z" fill="#232323"/>
<path d="M237.442 384.586C235.232 380.586 231.827 377.996 227.035 376.668L227.285 375.766C232.262 377.143 235.957 379.961 238.262 384.133L237.442 384.586Z" fill="#232323"/>
<path d="M174.182 416.323L173.497 415.683C178.412 410.421 181.43 404.866 182.725 398.698L183.642 398.891C182.312 405.228 179.217 410.931 174.185 416.323H174.182Z" fill="#232323"/>
<path d="M224.79 401.481C216.92 396.618 201.662 405.021 197.832 405.446C196.715 405.571 195.425 405.326 194.155 404.918C194.505 407.901 194.31 412.941 190.952 419.081L192.825 419.461C192.825 419.461 205.762 424.203 219.487 421.443C232.155 418.896 230.977 405.306 224.79 401.483V401.481Z" fill="#102048"/>
<path d="M214.062 417.386C214.032 417.386 214 417.381 213.967 417.371C213.802 417.318 213.712 417.143 213.762 416.978C214.697 414.018 215.105 408.193 212.397 404.281C212.3 404.138 212.335 403.943 212.477 403.846C212.62 403.748 212.815 403.783 212.912 403.926C215.747 408.023 215.332 414.088 214.36 417.166C214.317 417.298 214.195 417.383 214.062 417.383V417.386Z" fill="white"/>
<path d="M207.89 418.556C207.86 418.556 207.827 418.551 207.795 418.541C207.63 418.488 207.54 418.313 207.59 418.148C208.525 415.188 208.932 409.363 206.225 405.451C206.127 405.308 206.162 405.113 206.305 405.016C206.447 404.918 206.642 404.953 206.74 405.096C209.575 409.193 209.16 415.258 208.187 418.336C208.145 418.468 208.022 418.553 207.89 418.553V418.556Z" fill="white"/>
<path d="M143.435 282.753C143.435 282.753 158.905 269.598 158.332 267.098C157.922 265.311 153.54 267.931 153.54 267.931C153.54 267.931 159.685 260.638 159.372 259.753C158.815 258.171 154.562 261.121 154.562 261.121C154.562 261.121 157.435 256.986 156.062 256.311C154.69 255.636 151.695 258.186 151.695 258.186C151.695 258.186 153.445 255.891 152.622 255.288C151.8 254.686 148.255 257.163 148.255 257.163C148.255 257.163 149.527 254.268 146.825 255.366C144.122 256.463 125.167 273.858 125.167 273.858L143.435 282.753Z" fill="#F9B384"/>
<path d="M149.765 267.151C149.69 267.151 149.615 267.123 149.555 267.068C146.9 264.643 145.727 264.053 142.8 263.151C142.635 263.101 142.542 262.926 142.592 262.761C142.642 262.596 142.817 262.503 142.982 262.553C146.017 263.486 147.23 264.096 149.977 266.606C150.105 266.723 150.115 266.921 149.997 267.048C149.935 267.116 149.852 267.151 149.767 267.151H149.765Z" fill="#E28B6D"/>
<path d="M145.105 274.286C145.09 274.286 145.075 274.286 145.062 274.283C144.892 274.258 144.772 274.101 144.797 273.931C145.102 271.756 145.787 270.396 146.89 269.776C147.835 269.246 149.062 269.298 150.542 269.938C150.7 270.006 150.775 270.191 150.705 270.348C150.637 270.506 150.452 270.581 150.295 270.511C149.005 269.953 147.962 269.888 147.197 270.321C146.287 270.833 145.687 272.076 145.417 274.018C145.395 274.173 145.262 274.288 145.107 274.288L145.105 274.286Z" fill="#E28B6D"/>
<path d="M144.375 261.136C144.292 261.136 144.21 261.103 144.147 261.038C144.03 260.913 144.035 260.716 144.16 260.596L148.042 256.938C148.167 256.818 148.365 256.826 148.485 256.951C148.602 257.076 148.597 257.273 148.472 257.393L144.59 261.051C144.53 261.108 144.452 261.136 144.375 261.136Z" fill="#E28B6D"/>
<path d="M147.97 262.386C147.892 262.386 147.815 262.356 147.752 262.298C147.627 262.178 147.625 261.981 147.742 261.856L151.472 257.971C151.592 257.846 151.79 257.841 151.915 257.961C152.04 258.081 152.042 258.278 151.925 258.403L148.195 262.288C148.132 262.353 148.052 262.383 147.97 262.383V262.386Z" fill="#E28B6D"/>
<path d="M151.64 264.573C151.562 264.573 151.487 264.546 151.427 264.488C151.302 264.371 151.295 264.173 151.412 264.046L154.337 260.908C154.455 260.783 154.652 260.776 154.78 260.893C154.905 261.011 154.912 261.208 154.795 261.336L151.87 264.473C151.807 264.538 151.725 264.573 151.64 264.573Z" fill="#E28B6D"/>
<path d="M201.875 370.743L145.312 372.931L139.062 321.368C139.062 321.368 157.997 303.408 165.282 296.793L177.582 296.163C215.74 313.508 209.492 335.171 201.875 370.743Z" fill="#214F6F"/>
<path d="M177.582 296.163C177.582 296.163 221.237 299.896 235 329.806C248.467 359.073 193.125 369.493 193.125 369.493L177.582 296.163Z" fill="#214F6F"/>
<path d="M127.682 302.571L145.722 280.618L128.852 270.396C121.815 275.288 108.207 286.371 96.6749 298.921C94.1299 301.691 92.1399 304.926 91.1399 308.488C90.2849 311.528 90.1299 314.531 90.6099 317.471C91.8624 325.136 97.8899 331.048 105.937 331.991C112.81 332.796 139.062 330.741 160.312 324.491L166.562 300.368C163.35 298.546 139.482 298.228 127.682 302.571Z" fill="#214F6F"/>
<g opacity="0.8">
<path d="M214.012 308.031C214.107 308.008 214.2 307.988 214.295 307.966C214.097 307.848 213.9 307.736 213.702 307.621C210.502 308.358 207.202 309.111 203.947 309.503C201.992 309.738 195.457 310.171 193.55 305.818C192.6 303.653 193.32 301.243 194.392 299.553C194.235 299.508 194.08 299.463 193.925 299.418C192.825 301.208 192.117 303.721 193.12 306.006C195.157 310.656 201.967 310.216 204.005 309.968C207.352 309.566 210.74 308.786 214.012 308.031Z" fill="white"/>
<path d="M234.387 341.763C232.302 340.958 230.147 340.123 227.882 340.338C223.91 340.713 220.51 344.643 220.302 349.096C220.162 352.133 221.322 355.316 223.532 358.113C223.665 358.031 223.797 357.946 223.93 357.863C221.767 355.143 220.632 352.056 220.77 349.118C220.965 344.888 224.175 341.158 227.925 340.806C230.077 340.606 232.09 341.381 234.217 342.201C234.977 342.493 235.75 342.791 236.535 343.041C236.575 342.891 236.615 342.738 236.65 342.586C235.885 342.341 235.13 342.051 234.385 341.763H234.387Z" fill="white"/>
<path d="M124.2 326.856C121.475 324.601 117.24 323.998 112.582 325.203C108.432 326.276 104.872 328.403 102.427 331.216C102.587 331.268 102.745 331.326 102.907 331.373C105.287 328.703 108.715 326.686 112.7 325.656C117.207 324.488 121.292 325.058 123.9 327.216C125.14 328.241 126.017 329.573 126.655 331.008C126.815 330.991 126.977 330.971 127.14 330.953C126.472 329.408 125.542 327.966 124.2 326.853V326.856Z" fill="white"/>
<path d="M99.5599 295.853C104.667 294.583 109.65 292.801 114.247 290.153C115.985 289.153 117.945 287.878 119.325 286.006C120.792 284.013 121.28 281.641 120.63 279.661C120.375 278.883 119.922 278.201 119.357 277.656C119.237 277.753 119.117 277.853 118.997 277.951C119.525 278.453 119.947 279.086 120.185 279.808C120.787 281.646 120.327 283.858 118.95 285.728C117.622 287.531 115.71 288.773 114.015 289.748C109.68 292.246 104.99 293.973 100.172 295.221C99.9674 295.431 99.7649 295.643 99.5624 295.853H99.5599Z" fill="white"/>
</g>
<path d="M181.577 284.698L181.57 285.498L181.442 297.931L181.427 299.278C181.405 301.386 180.54 303.296 179.145 304.683C177.757 306.061 175.847 306.926 173.732 306.941C169.47 306.963 165.982 303.541 165.942 299.271L165.792 283.906L181.577 284.698Z" fill="#F9B384"/>
<path d="M181.57 285.498L181.442 297.931C174.532 295.118 171.687 287.638 171.687 287.638L181.567 285.498H181.57Z" fill="#102048"/>
<path d="M184.302 263.803C186.777 266.776 194.01 283.613 186.68 289.358C178.432 295.823 165.88 285.198 165.88 285.198L164.195 265.586L175.09 262.713L184.302 263.803Z" fill="#F9B384"/>
<path d="M158.645 262.723C158.645 262.723 134.477 275.328 154.182 311.661C156.712 316.328 162.32 318.363 167.115 316.088C172.26 313.646 174.207 307.361 171.412 302.398C168.19 296.673 165.077 289.298 166.407 283.813L158.645 262.726V262.723Z" fill="#102048"/>
<path d="M165.552 273.314C168.105 270.761 168.105 266.622 165.552 264.069C162.999 261.516 158.859 261.516 156.306 264.069C153.753 266.622 153.753 270.761 156.306 273.314C158.859 275.867 162.999 275.867 165.552 273.314Z" fill="#F4A623"/>
<path d="M168.97 276.543C168.262 272.466 167.832 269.668 171.955 267.566C171.955 267.566 186.482 270.208 189.255 264.726C192.027 259.246 187.802 250.596 178.955 256.603C156.305 252.178 153.267 273.376 160.135 280.441L166.912 279.401C168.277 279.191 169.205 277.901 168.97 276.541V276.543Z" fill="#102048"/>
<path d="M180.217 277.521C180.75 277.521 181.182 277.089 181.182 276.556C181.182 276.023 180.75 275.591 180.217 275.591C179.684 275.591 179.252 276.023 179.252 276.556C179.252 277.089 179.684 277.521 180.217 277.521Z" fill="#102048"/>
<path d="M186.755 274.301C187.288 274.301 187.72 273.869 187.72 273.336C187.72 272.803 187.288 272.371 186.755 272.371C186.222 272.371 185.79 272.803 185.79 273.336C185.79 273.869 186.222 274.301 186.755 274.301Z" fill="#102048"/>
<path d="M186.085 279.528C186.017 279.528 185.95 279.503 185.897 279.453C185.787 279.348 185.782 279.176 185.887 279.066C186.275 278.658 186.7 278.086 186.52 277.668C186.335 277.236 185.552 277.051 185.192 277.051C184.422 277.051 184.052 275.681 183.985 275.406C183.95 275.258 184.04 275.111 184.187 275.076C184.335 275.038 184.482 275.131 184.517 275.278C184.657 275.858 184.977 276.506 185.192 276.506C185.562 276.506 186.69 276.681 187.022 277.456C187.26 278.008 187.012 278.678 186.282 279.446C186.23 279.503 186.157 279.531 186.085 279.531V279.528Z" fill="#102048"/>
<path d="M186.135 283.193C186.082 283.193 186.03 283.178 185.982 283.146C184.165 281.918 182.327 282.948 182.31 282.958C182.18 283.033 182.012 282.988 181.937 282.858C181.862 282.728 181.907 282.561 182.037 282.486C182.125 282.436 184.19 281.278 186.29 282.693C186.415 282.778 186.447 282.948 186.362 283.073C186.31 283.151 186.222 283.193 186.135 283.193Z" fill="#102048"/>
<path d="M179.795 272.373C180.345 273.408 179.387 273.616 178.265 274.211C177.142 274.806 175.995 275.026 175.732 274.531C175.47 274.038 176.167 273.156 177.29 272.558C178.412 271.961 179.37 271.571 179.795 272.371V272.373Z" fill="#102048"/>
<path d="M183.885 270.506C184.127 271.428 184.815 271.026 185.815 270.763C186.815 270.501 187.625 269.998 187.51 269.558C187.395 269.118 186.49 268.973 185.487 269.236C184.485 269.498 183.695 269.793 183.882 270.508L183.885 270.506Z" fill="#102048"/>
<path opacity="0.4" d="M177.697 283.131C178.853 282.065 178.926 280.263 177.86 279.107C176.793 277.952 174.992 277.879 173.836 278.945C172.68 280.011 172.607 281.813 173.673 282.969C174.74 284.125 176.541 284.197 177.697 283.131Z" fill="#EB5D60"/>
<path d="M168.414 283.764C169.715 282.077 169.217 279.511 167.301 278.033C165.385 276.554 162.776 276.722 161.475 278.409C160.173 280.095 160.671 282.661 162.587 284.14C164.503 285.619 167.112 285.451 168.414 283.764Z" fill="#F9B384"/>
<path d="M166.64 282.501C166.49 282.501 166.367 282.378 166.367 282.228C166.367 281.421 165.975 280.676 165.315 280.231C164.752 279.851 164.08 279.763 163.517 279.991C163.377 280.046 163.217 279.981 163.16 279.841C163.102 279.701 163.17 279.541 163.31 279.483C164.04 279.186 164.902 279.293 165.617 279.776C166.427 280.321 166.912 281.236 166.912 282.226C166.912 282.376 166.79 282.498 166.64 282.498V282.501Z" fill="#102048"/>
<path d="M127.457 302.348L117.59 313.022L118.049 313.446L127.916 302.773L127.457 302.348Z" fill="#102048"/>
<path d="M196.965 348.231L196.782 347.633C203.965 345.443 210.937 342.826 217.255 334.926L217.742 335.316C211.312 343.356 204.245 346.013 196.965 348.233V348.231Z" fill="#102048"/>
<path d="M201.332 324.028H140.227C138.03 324.028 136.247 325.956 136.247 328.333V371.961C136.247 374.338 138.03 376.266 140.227 376.266H201.332C203.53 376.266 205.312 374.338 205.312 371.961V328.333C205.312 325.956 203.53 324.028 201.332 324.028Z" fill="#D3DFFF"/>
<path d="M174.007 347.388C174.24 347.388 174.427 347.591 174.427 347.843V352.448C174.427 352.698 174.24 352.903 174.007 352.903H167.555C167.322 352.903 167.135 352.701 167.135 352.448V347.843C167.135 347.593 167.322 347.388 167.555 347.388H174.007ZM174.007 346.138H167.555C166.635 346.138 165.885 346.903 165.885 347.843V352.448C165.885 353.388 166.635 354.153 167.555 354.153H174.007C174.927 354.153 175.677 353.388 175.677 352.448V347.843C175.677 346.903 174.927 346.138 174.007 346.138Z" fill="#1F3C88"/>
<path d="M438.485 421.368H70.0649V422.618H438.485V421.368Z" fill="#102048"/>
</svg>
