<svg width="500" height="399" viewBox="0 0 500 399" fill="none" xmlns="http://www.w3.org/2000/svg">
<g clip-path="url(#clip0_295_206)">
<path d="M512.638 -56.0822H0V456.556H512.638V-56.0822Z" fill="white"/>
<path d="M90.2346 391.707C87.8047 391.328 85.4055 390.795 83.0576 390.046C73.42 387.012 65.1665 380.645 58.0204 373.498C19.5315 335.051 11.9957 269.453 40.7445 223.265C55.4162 199.694 79.8793 178.44 91.834 152.295C105.286 122.88 98.6828 88.2563 111.683 58.5335C123.659 31.1484 150.787 9.87389 179.516 2.54316C225.725 -9.24752 245.892 20.4547 283.766 37.9972C326.233 57.662 380.101 26.4834 421.758 47.8091C442.438 58.4002 455.346 80.1874 461.702 102.538C470.581 133.758 468.818 166.577 470.766 198.638C471.935 217.882 476.231 236.675 482.649 254.823C487.468 268.459 495.321 280.957 498.879 295.044C504.016 315.406 493.804 335.215 480.465 349.979C467.875 363.912 454.864 379.568 436.368 385.556C426.751 388.673 416.467 388.816 406.358 388.939C307.552 390.149 208.757 391.359 109.951 392.558C103.379 392.651 96.7041 392.722 90.2346 391.707Z" fill="#F5F2EB"/>
<path d="M261.774 397.746C381.11 397.746 477.851 391.705 477.851 384.254C477.851 376.802 381.11 370.761 261.774 370.761C142.438 370.761 45.6965 376.802 45.6965 384.254C45.6965 391.705 142.438 397.746 261.774 397.746Z" fill="#A8BFC9"/>
<path d="M199.857 164.445C200.913 158.129 196.648 152.141 190.322 151.085L186.385 150.429C185.985 148.532 185.401 146.707 184.683 144.944L187.605 142.186C192.26 137.787 192.465 130.436 188.056 125.781C183.658 121.127 176.307 120.922 171.652 125.33L168.689 128.14C167.848 127.74 166.997 127.401 166.126 127.073L166.044 122.982C165.921 116.574 160.63 111.479 154.222 111.602C147.814 111.725 142.719 117.015 142.842 123.423L142.924 127.432C142.032 127.801 141.222 128.314 140.371 128.755L137.254 126.038C132.425 121.824 125.094 122.336 120.89 127.166C116.677 131.995 117.189 139.325 122.018 143.539L125.115 146.236C124.479 147.999 123.976 149.814 123.659 151.711L119.66 152.551C113.385 153.864 109.366 160.015 110.679 166.29C111.991 172.565 118.143 176.584 124.407 175.271L128.344 174.441C129.39 176.04 130.6 177.517 131.902 178.901L130.169 182.571C127.432 188.364 129.913 195.285 135.706 198.012C141.498 200.75 148.419 198.268 151.146 192.476L152.91 188.733C153.638 188.785 154.335 188.949 155.073 188.949C156.252 188.949 157.38 188.723 158.528 188.6L160.456 192.281C163.429 197.961 170.432 200.155 176.112 197.182C181.792 194.208 183.986 187.206 181.013 181.526L179.095 177.865C180.336 176.44 181.443 174.933 182.417 173.313L186.467 173.99C192.814 175.025 198.801 170.76 199.857 164.445ZM158.59 175.005C145.784 177.435 134.762 166.413 137.182 153.607C138.535 146.451 144.308 140.679 151.464 139.315C164.28 136.885 175.302 147.907 172.872 160.723C171.519 167.879 165.746 173.652 158.59 175.005Z" fill="#A8BFC9"/>
<path d="M120.039 212.13C120.439 209.762 118.84 207.527 116.471 207.137L114.995 206.891C114.851 206.184 114.626 205.497 114.359 204.84L115.456 203.805C117.199 202.154 117.271 199.406 115.631 197.664C113.98 195.921 111.232 195.849 109.489 197.489L108.382 198.535C108.064 198.391 107.746 198.258 107.418 198.135L107.387 196.607C107.336 194.208 105.357 192.301 102.969 192.353C100.569 192.394 98.6624 194.383 98.7136 196.772L98.7444 198.268C98.406 198.402 98.1087 198.597 97.7909 198.761L96.6221 197.746C94.8176 196.167 92.0698 196.361 90.5012 198.166C88.9222 199.97 89.117 202.718 90.9215 204.287L92.0801 205.302C91.8443 205.958 91.6597 206.645 91.5367 207.352L90.0398 207.67C87.6919 208.162 86.1847 210.459 86.6769 212.807C87.169 215.155 89.4656 216.662 91.8135 216.17L93.2899 215.862C93.6795 216.457 94.1306 217.01 94.6228 217.533L93.9769 218.907C92.9516 221.071 93.8846 223.665 96.0479 224.69C98.2112 225.715 100.805 224.782 101.83 222.619L102.497 221.214C102.774 221.235 103.03 221.296 103.307 221.296C103.748 221.296 104.168 221.214 104.599 221.163L105.316 222.537C106.424 224.659 109.048 225.479 111.171 224.372C113.293 223.265 114.113 220.64 113.006 218.518L112.288 217.144C112.75 216.611 113.17 216.047 113.529 215.442L115.046 215.698C117.404 216.088 119.65 214.488 120.039 212.13ZM104.599 216.077C99.8107 216.99 95.6788 212.858 96.5913 208.07C97.0937 205.394 99.257 203.231 101.933 202.728C106.731 201.816 110.853 205.948 109.94 210.736C109.438 213.412 107.285 215.575 104.599 216.077Z" fill="#A8BFC9"/>
<path d="M362.64 122.706C362.917 121.055 361.8 119.496 360.149 119.22L359.124 119.045C359.021 118.553 358.867 118.071 358.683 117.61L359.441 116.892C360.662 115.744 360.713 113.827 359.564 112.607C358.416 111.387 356.499 111.335 355.279 112.484L354.5 113.222C354.284 113.119 354.059 113.027 353.833 112.945L353.813 111.879C353.782 110.207 352.398 108.875 350.727 108.905C349.055 108.936 347.723 110.32 347.753 111.991L347.774 113.037C347.538 113.129 347.333 113.263 347.107 113.386L346.297 112.678C345.036 111.581 343.119 111.715 342.022 112.976C340.925 114.237 341.058 116.154 342.319 117.251L343.129 117.959C342.965 118.42 342.832 118.892 342.75 119.384L341.704 119.599C340.064 119.937 339.018 121.547 339.356 123.187C339.695 124.828 341.304 125.874 342.945 125.535L343.97 125.32C344.247 125.74 344.554 126.12 344.903 126.489L344.452 127.453C343.734 128.97 344.38 130.774 345.898 131.492C347.415 132.21 349.219 131.564 349.937 130.047L350.399 129.073C350.593 129.083 350.768 129.134 350.962 129.134C351.27 129.134 351.567 129.073 351.865 129.042L352.367 130.006C353.146 131.492 354.971 132.066 356.458 131.287C357.945 130.508 358.519 128.683 357.74 127.196L357.237 126.243C357.565 125.874 357.852 125.474 358.109 125.053L359.165 125.228C360.805 125.474 362.364 124.356 362.64 122.706ZM351.865 125.464C348.522 126.099 345.641 123.218 346.277 119.876C346.636 118.01 348.143 116.492 350.009 116.144C353.351 115.508 356.232 118.389 355.607 121.732C355.238 123.598 353.731 125.105 351.865 125.464Z" fill="#A8BFC9"/>
<path d="M164.854 338.68H404.697C411.741 338.68 417.452 332.969 417.452 325.926V302.231H152.1V325.926C152.1 332.969 157.811 338.68 164.854 338.68Z" fill="white"/>
<path d="M152.1 302.231H417.452V165.552C417.452 158.908 412.069 153.525 405.425 153.525H164.126C157.483 153.525 152.1 158.908 152.1 165.552V302.231Z" fill="#214856"/>
<path d="M410.89 162.271H160.118V293.496H410.89V162.271Z" fill="#C9E2ED"/>
<path d="M290.604 320.461C290.604 323.68 287.99 326.295 284.771 326.295C281.551 326.295 278.937 323.68 278.937 320.461C278.937 317.242 281.551 314.627 284.771 314.627C287.99 314.627 290.604 317.242 290.604 320.461Z" fill="#C5E1ED"/>
<path d="M316.605 366.527L309.921 338.69H285.129H284.401H259.61L258.564 343.068H278.568H279.296H304.087L310.772 370.904C311.12 372.381 310.977 373.827 310.464 375.108C314.647 374.708 317.61 370.699 316.605 366.527Z" fill="#C5E1ED"/>
<path d="M310.772 370.894L304.087 343.058H279.296H278.568H258.575L252.946 366.516C251.89 370.904 255.222 375.129 259.733 375.129H284.412H285.14H309.818C310.044 375.129 310.259 375.108 310.474 375.088C310.977 373.816 311.13 372.371 310.772 370.894Z" fill="white"/>
<path d="M444.724 132.969C420.917 129.718 406.502 120.224 405.476 119.537V119.496C405.476 119.496 405.466 119.507 405.446 119.517C405.425 119.507 405.415 119.496 405.415 119.496V119.537C404.4 120.224 389.974 129.729 366.167 132.969C366.167 132.969 359.431 183.453 405.415 209.29V209.321C405.425 209.311 405.435 209.311 405.446 209.3C405.456 209.311 405.466 209.311 405.476 209.321V209.29C451.45 183.453 444.724 132.969 444.724 132.969Z" fill="white"/>
<path d="M441.392 135.634C419.605 132.661 406.409 123.967 405.476 123.341V123.3C405.476 123.3 405.466 123.31 405.446 123.321C405.425 123.31 405.415 123.3 405.415 123.3V123.341C404.482 123.967 391.287 132.661 369.499 135.634C369.499 135.634 363.338 181.844 405.415 205.486V205.517C405.425 205.507 405.435 205.507 405.446 205.497C405.456 205.497 405.466 205.507 405.476 205.517V205.486C447.554 181.844 441.392 135.634 441.392 135.634Z" fill="#214F6F"/>
<path d="M411.474 182.93H399.427C394.219 182.93 389.995 178.706 389.995 173.498V161.246C389.995 156.037 394.219 151.813 399.427 151.813H411.474C416.683 151.813 420.907 156.037 420.907 161.246V173.498C420.907 178.706 416.683 182.93 411.474 182.93Z" fill="white"/>
<path d="M405.374 165.716C407.503 165.716 409.229 163.99 409.229 161.861C409.229 159.732 407.503 158.006 405.374 158.006C403.245 158.006 401.519 159.732 401.519 161.861C401.519 163.99 403.245 165.716 405.374 165.716Z" fill="#214F6F"/>
<path d="M403.672 165.111L401.457 176.738H409.444L406.963 165.111H403.672Z" fill="#214F6F"/>
<path d="M397.223 153.843C396.669 149.209 398.371 141.202 403.826 140.197C411.013 138.874 413.617 148.707 413.074 153.843" stroke="white" stroke-width="3.2261" stroke-miterlimit="10"/>
<path d="M394.885 184.663L395.849 186.632L398.023 186.949L396.454 188.477L396.823 190.64L394.885 189.625L392.937 190.64L393.306 188.477L391.738 186.949L393.911 186.632L394.885 184.663Z" fill="white"/>
<path d="M401.929 184.663L402.903 186.632L405.066 186.949L403.498 188.477L403.867 190.64L401.929 189.625L399.981 190.64L400.35 188.477L398.781 186.949L400.955 186.632L401.929 184.663Z" fill="white"/>
<path d="M408.973 184.663L409.947 186.632L412.12 186.949L410.541 188.477L410.91 190.64L408.973 189.625L407.035 190.64L407.404 188.477L405.825 186.949L407.999 186.632L408.973 184.663Z" fill="white"/>
<path d="M416.016 184.663L416.99 186.632L419.164 186.949L417.585 188.477L417.964 190.64L416.016 189.625L414.078 190.64L414.448 188.477L412.879 186.949L415.042 186.632L416.016 184.663Z" fill="white"/>
<path d="M251.818 115.744V112.627C251.818 108.936 248.824 105.953 245.144 105.953H210.417C206.726 105.953 203.743 108.946 203.743 112.627V115.744V117.528V199.447H322.162V115.754H251.818V115.744Z" fill="#214F6F"/>
<path d="M275.857 91.2523L222.612 103.675L240.537 180.503L293.782 168.08L275.857 91.2523Z" fill="white"/>
<path d="M257.388 102.102L226.966 109.2L228.948 117.696L259.37 110.598L257.388 102.102Z" fill="#C5E1ED"/>
<path d="M275.621 112.474L230.872 122.915L231.394 125.151L276.143 114.711L275.621 112.474Z" fill="#C5E1ED"/>
<path d="M276.563 116.493L231.814 126.933L232.335 129.17L277.084 118.729L276.563 116.493Z" fill="#C5E1ED"/>
<path d="M277.496 120.523L232.747 130.964L233.269 133.2L278.018 122.76L277.496 120.523Z" fill="#C5E1ED"/>
<path d="M278.44 124.551L233.691 134.992L234.213 137.228L278.962 126.788L278.44 124.551Z" fill="#C5E1ED"/>
<path d="M279.383 128.58L234.634 139.02L235.156 141.257L279.905 130.816L279.383 128.58Z" fill="#C5E1ED"/>
<path d="M280.317 132.61L235.568 143.051L236.09 145.287L280.839 134.847L280.317 132.61Z" fill="#C5E1ED"/>
<path d="M281.258 136.629L236.509 147.069L237.031 149.306L281.78 138.865L281.258 136.629Z" fill="#C5E1ED"/>
<path d="M287.436 154.061L257.014 161.159L258.996 169.656L289.418 162.558L287.436 154.061Z" fill="#C5E1ED"/>
<path d="M284.941 143.32L250.935 151.254L251.352 153.041L285.358 145.107L284.941 143.32Z" fill="#C5E1ED"/>
<path d="M285.771 146.899L251.765 154.833L252.182 156.62L286.188 148.686L285.771 146.899Z" fill="#C5E1ED"/>
<path d="M286.603 150.489L252.597 158.423L253.014 160.21L287.02 152.276L286.603 150.489Z" fill="#C5E1ED"/>
<path d="M322.186 112.431L264.521 100.426L247.199 183.637L304.864 195.641L322.186 112.431Z" fill="white"/>
<path d="M315.467 119.803L267.006 109.715L266.503 112.134L314.963 122.222L315.467 119.803Z" fill="#C5E1ED"/>
<path d="M314.565 124.162L266.104 114.074L265.601 116.493L314.062 126.581L314.565 124.162Z" fill="#C5E1ED"/>
<path d="M313.652 128.528L265.191 118.44L264.687 120.859L313.148 130.947L313.652 128.528Z" fill="#C5E1ED"/>
<path d="M312.75 132.886L264.289 122.798L263.786 125.217L312.247 135.305L312.75 132.886Z" fill="#C5E1ED"/>
<path d="M311.836 137.253L263.376 127.165L262.872 129.584L311.333 139.672L311.836 137.253Z" fill="#C5E1ED"/>
<path d="M310.935 141.611L262.474 131.523L261.97 133.942L310.431 144.03L310.935 141.611Z" fill="#C5E1ED"/>
<path d="M310.023 145.968L261.562 135.88L261.058 138.299L309.519 148.387L310.023 145.968Z" fill="#C5E1ED"/>
<path d="M304.292 177.132L271.339 170.272L269.423 179.476L302.376 186.336L304.292 177.132Z" fill="#C5E1ED"/>
<path d="M306.713 165.503L269.885 157.837L269.482 159.774L306.309 167.441L306.713 165.503Z" fill="#C5E1ED"/>
<path d="M305.903 169.378L269.075 161.712L268.672 163.649L305.5 171.316L305.903 169.378Z" fill="#C5E1ED"/>
<path d="M305.094 173.253L268.266 165.586L267.863 167.523L304.691 175.19L305.094 173.253Z" fill="#C5E1ED"/>
<path d="M251.818 125.023V121.906C251.818 118.215 248.824 115.231 245.144 115.231H210.417C206.726 115.231 203.743 118.225 203.743 121.906V125.023V126.807V196.987C203.743 203.467 209.003 208.726 215.482 208.726H310.423C316.903 208.726 322.162 203.467 322.162 196.987V125.033H251.818V125.023Z" fill="#214F6F"/>
<path d="M451.888 243.017L359.684 243.192L359.938 376.242L452.141 376.067L451.888 243.017Z" fill="white"/>
<path d="M443.973 256.472L366.492 256.62L366.5 260.495L443.98 260.348L443.973 256.472Z" fill="#C5E1ED"/>
<path d="M443.983 263.454L366.503 263.602L366.51 267.477L443.99 267.33L443.983 263.454Z" fill="#C5E1ED"/>
<path d="M443.993 270.426L366.513 270.574L366.52 274.449L444.001 274.302L443.993 270.426Z" fill="#C5E1ED"/>
<path d="M444.014 277.398L366.533 277.546L366.541 281.421L444.021 281.273L444.014 277.398Z" fill="#C5E1ED"/>
<path d="M444.024 284.37L366.544 284.517L366.551 288.393L444.031 288.245L444.024 284.37Z" fill="#C5E1ED"/>
<path d="M444.034 291.342L366.554 291.489L366.561 295.365L444.041 295.217L444.034 291.342Z" fill="#C5E1ED"/>
<path d="M444.044 298.314L366.564 298.461L366.572 302.337L444.052 302.189L444.044 298.314Z" fill="#C5E1ED"/>
<path d="M445.305 347.909L392.616 348.01L392.645 362.733L445.333 362.632L445.305 347.909Z" fill="#C5E1ED"/>
<path d="M445.275 329.315L386.384 329.427L386.389 332.524L445.281 332.411L445.275 329.315Z" fill="#C5E1ED"/>
<path d="M445.286 335.508L386.394 335.62L386.4 338.716L445.292 338.604L445.286 335.508Z" fill="#C5E1ED"/>
<path d="M445.306 341.711L386.414 341.823L386.42 344.919L445.312 344.807L445.306 341.711Z" fill="#C5E1ED"/>
<path d="M401.016 259.026H315.416V382.541H401.016V259.026Z" fill="white"/>
<path d="M369.007 268.992H320.091V282.659H369.007V268.992Z" fill="#C5E1ED"/>
<path d="M393.101 291.292H321.168V294.891H393.101V291.292Z" fill="#C5E1ED"/>
<path d="M393.101 297.761H321.168V301.36H393.101V297.761Z" fill="#C5E1ED"/>
<path d="M393.101 304.231H321.168V307.829H393.101V304.231Z" fill="#C5E1ED"/>
<path d="M393.101 310.711H321.168V314.309H393.101V310.711Z" fill="#C5E1ED"/>
<path d="M393.101 317.18H321.168V320.779H393.101V317.18Z" fill="#C5E1ED"/>
<path d="M393.101 323.66H321.168V327.258H393.101V323.66Z" fill="#C5E1ED"/>
<path d="M393.101 330.129H321.168V333.728H393.101V330.129Z" fill="#C5E1ED"/>
<path d="M396.341 358.899H347.425V372.565H396.341V358.899Z" fill="#C5E1ED"/>
<path d="M396.331 341.633H341.663V344.514H396.331V341.633Z" fill="#C5E1ED"/>
<path d="M396.331 347.395H341.663V350.276H396.331V347.395Z" fill="#C5E1ED"/>
<path d="M396.331 353.147H341.663V356.028H396.331V353.147Z" fill="#C5E1ED"/>
<path d="M199.58 379.209H156.016C147.24 379.209 140.125 372.094 140.125 363.317V239.146C140.125 230.37 147.24 223.254 156.016 223.254H199.58C208.357 223.254 215.472 230.37 215.472 239.146V363.317C215.472 372.094 208.357 379.209 199.58 379.209Z" fill="#214F6F"/>
<path d="M140.166 254.095H140.996V241.474H140.166C139.171 241.474 138.371 242.273 138.371 243.268V252.301C138.371 253.295 139.171 254.095 140.166 254.095Z" fill="#214F6F"/>
<path d="M140.166 268.992H140.996V256.371H140.166C139.171 256.371 138.371 257.171 138.371 258.165V267.198C138.371 268.182 139.171 268.992 140.166 268.992Z" fill="#214F6F"/>
<path d="M215.431 272.488H214.601V259.867H215.431C216.426 259.867 217.225 260.667 217.225 261.661V270.694C217.225 271.688 216.415 272.488 215.431 272.488Z" fill="#214F6F"/>
<path d="M198.053 375.703H157.534C150.254 375.703 144.349 369.797 144.349 362.518V242.745C144.349 235.465 150.254 229.56 157.534 229.56H198.053C205.332 229.56 211.238 235.465 211.238 242.745V362.518C211.238 369.807 205.332 375.703 198.053 375.703Z" fill="white"/>
<path d="M154.91 254.858C168.88 251.414 177.412 237.297 173.967 223.327C170.523 209.358 156.406 200.826 142.436 204.27C128.467 207.715 119.935 221.832 123.379 235.801C126.824 249.771 140.941 258.303 154.91 254.858Z" fill="white" stroke="#F5F2EB" stroke-miterlimit="10"/>
<path d="M186.344 314.268H169.242C164.393 314.268 160.466 310.341 160.466 305.492V288.154C160.466 283.305 164.393 279.378 169.242 279.378H186.344C191.194 279.378 195.12 283.305 195.12 288.154V305.492C195.12 310.341 191.194 314.268 186.344 314.268Z" fill="#214F6F"/>
<path d="M182.028 290.656C182.028 293.035 180.1 294.973 177.711 294.973C175.333 294.973 173.395 293.045 173.395 290.656C173.395 288.267 175.322 286.34 177.711 286.34C180.09 286.34 182.028 288.267 182.028 290.656Z" fill="white"/>
<path d="M175.804 294.296L173.323 307.327H182.274L179.485 294.296H175.804Z" fill="white"/>
<path d="M167.582 267.844C167.582 267.844 187.318 260.933 186.918 279.696" stroke="#214F6F" stroke-miterlimit="10"/>
<path d="M197.591 318.995H157.995V330.201H197.591V318.995Z" fill="#214856"/>
<path d="M151.926 213.884L151.608 237.262H147.924L147.606 213.884H151.926ZM149.766 246.665C148.982 246.665 148.31 246.384 147.749 245.823C147.188 245.262 146.907 244.589 146.907 243.806C146.907 243.022 147.188 242.35 147.749 241.789C148.31 241.228 148.982 240.947 149.766 240.947C150.55 240.947 151.222 241.228 151.783 241.789C152.344 242.35 152.625 243.022 152.625 243.806C152.625 244.325 152.492 244.801 152.228 245.235C151.974 245.669 151.629 246.019 151.195 246.283C150.772 246.537 150.295 246.665 149.766 246.665Z" fill="#F5F2EB"/>
<path d="M167.407 329.115L170.557 322.115H171.837L174.997 329.115H173.637L170.927 322.805H171.447L168.747 329.115H167.407ZM168.857 327.495L169.207 326.475H172.987L173.337 327.495H168.857ZM175.767 329.115V321.695H177.017V329.115H175.767ZM181.167 329.185C180.574 329.185 180.054 329.069 179.607 328.835C179.167 328.595 178.824 328.269 178.577 327.855C178.337 327.442 178.217 326.972 178.217 326.445C178.217 325.912 178.334 325.442 178.567 325.035C178.807 324.622 179.134 324.299 179.547 324.065C179.967 323.832 180.444 323.715 180.977 323.715C181.497 323.715 181.961 323.829 182.367 324.055C182.774 324.282 183.094 324.602 183.327 325.015C183.561 325.429 183.677 325.915 183.677 326.475C183.677 326.529 183.674 326.589 183.667 326.655C183.667 326.722 183.664 326.785 183.657 326.845H179.207V326.015H182.997L182.507 326.275C182.514 325.969 182.451 325.699 182.317 325.465C182.184 325.232 182.001 325.049 181.767 324.915C181.541 324.782 181.277 324.715 180.977 324.715C180.671 324.715 180.401 324.782 180.167 324.915C179.941 325.049 179.761 325.235 179.627 325.475C179.501 325.709 179.437 325.985 179.437 326.305V326.505C179.437 326.825 179.511 327.109 179.657 327.355C179.804 327.602 180.011 327.792 180.277 327.925C180.544 328.059 180.851 328.125 181.197 328.125C181.497 328.125 181.767 328.079 182.007 327.985C182.247 327.892 182.461 327.745 182.647 327.545L183.317 328.315C183.077 328.595 182.774 328.812 182.407 328.965C182.047 329.112 181.634 329.185 181.167 329.185ZM184.878 329.115V323.775H186.068V325.245L185.928 324.815C186.088 324.455 186.338 324.182 186.678 323.995C187.025 323.809 187.455 323.715 187.968 323.715V324.905C187.915 324.892 187.865 324.885 187.818 324.885C187.771 324.879 187.725 324.875 187.678 324.875C187.205 324.875 186.828 325.015 186.548 325.295C186.268 325.569 186.128 325.979 186.128 326.525V329.115H184.878ZM191.234 329.185C190.647 329.185 190.194 329.035 189.874 328.735C189.554 328.429 189.394 327.979 189.394 327.385V322.595H190.644V327.355C190.644 327.609 190.707 327.805 190.834 327.945C190.967 328.085 191.15 328.155 191.384 328.155C191.664 328.155 191.897 328.082 192.084 327.935L192.434 328.825C192.287 328.945 192.107 329.035 191.894 329.095C191.68 329.155 191.46 329.185 191.234 329.185ZM188.514 324.815V323.815H192.074V324.815H188.514Z" fill="white"/>
<path d="M163.46 381.885H116.123C110.935 381.885 106.721 377.682 106.721 372.483V353.362C106.721 348.174 110.925 343.96 116.123 343.96H163.46C168.648 343.96 172.862 348.164 172.862 353.362V372.483C172.862 377.671 168.648 381.885 163.46 381.885Z" fill="#214F6F"/>
<path d="M172.851 351.906H106.721V360.724H172.851V351.906Z" fill="#214856"/>
<path d="M165.008 377.477H157.79C156.375 377.477 155.227 376.328 155.227 374.913V370.341C155.227 368.926 156.375 367.777 157.79 367.777H165.008C166.423 367.777 167.571 368.926 167.571 370.341V374.913C167.571 376.328 166.423 377.477 165.008 377.477Z" fill="white"/>
<path d="M136.7 366.896H108.484V370.423H136.7V366.896Z" fill="#F5F2EB"/>
<path d="M115.538 372.186H108.484V374.831H115.538V372.186Z" fill="white"/>
<path d="M124.356 372.186H117.302V374.831H124.356V372.186Z" fill="white"/>
<path d="M133.183 372.186H126.13V374.831H133.183V372.186Z" fill="white"/>
<path d="M142.001 372.186H134.947V374.831H142.001V372.186Z" fill="white"/>
<path d="M207.506 371.468V375.067C207.506 375.908 207.998 376.677 208.757 377.025C212.345 378.697 223.162 382.716 234.717 377.015C235.455 376.656 235.916 375.898 235.916 375.077V371.95C235.926 371.961 222.793 379.691 207.506 371.468Z" fill="#FCD144"/>
<path d="M235.926 371.55C235.926 373.868 229.559 375.744 221.716 375.744C213.873 375.744 207.506 373.868 207.506 371.55C207.506 369.233 213.873 367.357 221.716 367.357C229.57 367.367 235.926 369.244 235.926 371.55Z" fill="#FCD144"/>
<path d="M221.716 367.695C215.441 367.695 210.202 368.977 208.839 370.689C210.981 369.397 215.503 368.516 220.732 368.516C228.032 368.516 233.958 370.248 233.958 372.391C233.958 372.688 233.835 372.986 233.609 373.273C234.46 372.76 234.942 372.186 234.942 371.581C234.942 369.428 229.026 367.695 221.716 367.695Z" fill="#D39A19"/>
<path d="M220.732 368.475C215.503 368.475 210.981 369.367 208.839 370.669C208.613 370.956 208.49 371.253 208.49 371.55C208.49 373.704 214.406 375.446 221.716 375.446C226.945 375.446 231.466 374.554 233.609 373.252C233.835 372.965 233.958 372.668 233.958 372.371C233.958 370.228 228.042 368.475 220.732 368.475Z" fill="#F8AE0D"/>
<path d="M212.448 366.537V370.136C212.448 370.976 212.94 371.745 213.698 372.094C217.287 373.765 228.104 377.784 239.658 372.084C240.397 371.725 240.858 370.966 240.858 370.146V367.019C240.868 367.029 227.724 374.749 212.448 366.537Z" fill="#FCD144"/>
<path d="M240.868 366.619C240.868 368.936 234.501 370.812 226.658 370.812C218.815 370.812 212.448 368.936 212.448 366.619C212.448 364.302 218.815 362.425 226.658 362.425C234.501 362.425 240.868 364.302 240.868 366.619Z" fill="#FCD144"/>
<path d="M226.658 362.764C220.383 362.764 215.144 364.045 213.781 365.758C215.923 364.466 220.445 363.584 225.674 363.584C232.974 363.584 238.9 365.317 238.9 367.46C238.9 367.767 238.777 368.054 238.551 368.341C239.402 367.829 239.884 367.255 239.884 366.65C239.884 364.497 233.958 362.764 226.658 362.764Z" fill="#D39A19"/>
<path d="M225.674 363.543C220.445 363.543 215.923 364.435 213.78 365.737C213.555 366.024 213.432 366.322 213.432 366.619C213.432 368.772 219.348 370.515 226.658 370.515C231.887 370.515 236.408 369.623 238.551 368.321C238.777 368.034 238.9 367.736 238.9 367.439C238.889 365.286 232.974 363.543 225.674 363.543Z" fill="#F8AE0D"/>
<path d="M205.537 361.605V365.204C205.537 366.045 206.029 366.814 206.788 367.162C210.377 368.833 221.193 372.853 232.748 367.152C233.486 366.793 233.948 366.034 233.948 365.214V362.087C233.958 362.097 220.814 369.818 205.537 361.605Z" fill="#FCD144"/>
<path d="M233.958 361.687C233.958 364.004 227.591 365.881 219.748 365.881C211.904 365.881 205.537 364.004 205.537 361.687C205.537 359.37 211.904 357.494 219.748 357.494C227.591 357.494 233.958 359.37 233.958 361.687Z" fill="#FCD144"/>
<path d="M219.748 357.822C213.473 357.822 208.234 359.104 206.87 360.816C209.013 359.524 213.534 358.642 218.763 358.642C226.063 358.642 231.989 360.375 231.989 362.518C231.989 362.825 231.866 363.112 231.641 363.399C232.492 362.887 232.974 362.313 232.974 361.708C232.974 359.555 227.048 357.822 219.748 357.822Z" fill="#D39A19"/>
<path d="M218.763 358.611C213.534 358.611 209.013 359.503 206.87 360.806C206.645 361.093 206.521 361.39 206.521 361.687C206.521 363.84 212.437 365.583 219.748 365.583C224.976 365.583 229.498 364.691 231.641 363.389C231.866 363.102 231.989 362.805 231.989 362.507C231.989 360.354 226.063 358.611 218.763 358.611Z" fill="#F8AE0D"/>
<path d="M212.448 355.679V359.278C212.448 360.119 212.94 360.888 213.698 361.236C217.287 362.907 228.104 366.926 239.658 361.226C240.397 360.867 240.858 360.108 240.858 359.288V356.161C240.868 356.171 227.724 363.892 212.448 355.679Z" fill="#FCD144"/>
<path d="M240.868 355.761C240.868 358.078 234.501 359.955 226.658 359.955C218.815 359.955 212.448 358.078 212.448 355.761C212.448 353.444 218.815 351.568 226.658 351.568C234.501 351.568 240.868 353.444 240.868 355.761Z" fill="#FCD144"/>
<path d="M226.658 351.906C220.383 351.906 215.144 353.188 213.781 354.9C215.923 353.608 220.445 352.726 225.674 352.726C232.974 352.726 238.9 354.459 238.9 356.602C238.9 356.899 238.777 357.197 238.551 357.484C239.402 356.971 239.884 356.397 239.884 355.792C239.884 353.639 233.958 351.906 226.658 351.906Z" fill="#D39A19"/>
<path d="M225.674 352.685C220.445 352.685 215.923 353.577 213.78 354.879C213.555 355.167 213.432 355.464 213.432 355.761C213.432 357.914 219.348 359.657 226.658 359.657C231.887 359.657 236.408 358.765 238.551 357.463C238.777 357.176 238.9 356.879 238.9 356.581C238.889 354.428 232.974 352.685 225.674 352.685Z" fill="#F8AE0D"/>
<path d="M207.506 350.748V354.346C207.506 355.187 207.998 355.956 208.757 356.305C212.345 357.976 223.162 361.995 234.717 356.294C235.455 355.935 235.916 355.177 235.916 354.357V351.229C235.926 351.24 222.793 358.96 207.506 350.748Z" fill="#FCD144"/>
<path d="M235.926 350.83C235.926 353.147 229.559 355.023 221.716 355.023C213.873 355.023 207.506 353.147 207.506 350.83C207.506 348.512 213.873 346.636 221.716 346.636C229.57 346.636 235.926 348.512 235.926 350.83Z" fill="#FCD144"/>
<path d="M221.716 346.964C215.441 346.964 210.202 348.246 208.839 349.958C210.981 348.666 215.503 347.785 220.732 347.785C228.032 347.785 233.958 349.517 233.958 351.66C233.958 351.968 233.835 352.255 233.609 352.542C234.46 352.029 234.942 351.455 234.942 350.85C234.942 348.697 229.026 346.964 221.716 346.964Z" fill="#D39A19"/>
<path d="M220.732 347.754C215.503 347.754 210.981 348.646 208.839 349.948C208.613 350.235 208.49 350.532 208.49 350.83C208.49 352.983 214.406 354.726 221.716 354.726C226.945 354.726 231.466 353.834 233.609 352.532C233.835 352.244 233.958 351.947 233.958 351.65C233.958 349.497 228.042 347.754 220.732 347.754Z" fill="#F8AE0D"/>
<path d="M212.448 345.806V349.404C212.448 350.245 212.94 351.014 213.698 351.363C217.287 353.034 228.104 357.053 239.658 351.353C240.397 350.994 240.858 350.235 240.858 349.415V346.288C240.868 346.298 227.724 354.018 212.448 345.806Z" fill="#FCD144"/>
<path d="M240.868 345.888C240.868 348.205 234.501 350.081 226.658 350.081C218.815 350.081 212.448 348.205 212.448 345.888C212.448 343.571 218.815 341.694 226.658 341.694C234.501 341.705 240.868 343.581 240.868 345.888Z" fill="#FCD144"/>
<path d="M226.658 342.033C220.383 342.033 215.144 343.314 213.781 345.027C215.923 343.735 220.445 342.853 225.674 342.853C232.974 342.853 238.9 344.586 238.9 346.728C238.9 347.036 238.777 347.323 238.551 347.61C239.402 347.098 239.884 346.523 239.884 345.919C239.884 343.765 233.958 342.033 226.658 342.033Z" fill="#D39A19"/>
<path d="M225.674 342.812C220.445 342.812 215.923 343.704 213.78 345.006C213.555 345.293 213.432 345.59 213.432 345.888C213.432 348.041 219.348 349.784 226.658 349.784C231.887 349.784 236.408 348.892 238.551 347.59C238.777 347.303 238.9 347.005 238.9 346.708C238.889 344.555 232.974 342.812 225.674 342.812Z" fill="#F8AE0D"/>
<path d="M205.537 340.874V344.473C205.537 345.314 206.029 346.083 206.788 346.431C210.377 348.102 221.193 352.121 232.748 346.421C233.486 346.062 233.948 345.303 233.948 344.483V341.356C233.958 341.366 220.814 349.087 205.537 340.874Z" fill="#FCD144"/>
<path d="M233.958 340.956C233.958 343.273 227.591 345.15 219.748 345.15C211.904 345.15 205.537 343.273 205.537 340.956C205.537 338.639 211.904 336.763 219.748 336.763C227.591 336.763 233.958 338.639 233.958 340.956Z" fill="#FCD144"/>
<path d="M219.748 337.091C213.473 337.091 208.234 338.372 206.87 340.085C209.013 338.793 213.534 337.911 218.763 337.911C226.063 337.911 231.989 339.644 231.989 341.787C231.989 342.094 231.866 342.381 231.641 342.668C232.492 342.156 232.974 341.582 232.974 340.977C232.974 338.824 227.048 337.091 219.748 337.091Z" fill="#D39A19"/>
<path d="M218.763 337.88C213.534 337.88 209.013 338.772 206.87 340.074C206.645 340.362 206.521 340.659 206.521 340.956C206.521 343.109 212.437 344.852 219.748 344.852C224.976 344.852 229.498 343.96 231.641 342.658C231.866 342.371 231.989 342.074 231.989 341.776C231.989 339.623 226.063 337.88 218.763 337.88Z" fill="#F8AE0D"/>
<path d="M212.448 334.948V338.547C212.448 339.387 212.94 340.156 213.698 340.505C217.287 342.176 228.104 346.195 239.658 340.495C240.397 340.136 240.858 339.377 240.858 338.557V335.43C240.868 335.44 227.724 343.161 212.448 334.948Z" fill="#FCD144"/>
<path d="M240.868 335.03C240.868 337.347 234.501 339.223 226.658 339.223C218.815 339.223 212.448 337.347 212.448 335.03C212.448 332.713 218.815 330.837 226.658 330.837C234.501 330.847 240.868 332.723 240.868 335.03Z" fill="#FCD144"/>
<path d="M226.658 331.175C220.383 331.175 215.144 332.457 213.781 334.169C215.923 332.877 220.445 331.995 225.674 331.995C232.974 331.995 238.9 333.728 238.9 335.871C238.9 336.178 238.777 336.465 238.551 336.753C239.402 336.24 239.884 335.666 239.884 335.061C239.884 332.908 233.958 331.175 226.658 331.175Z" fill="#D39A19"/>
<path d="M225.674 331.954C220.445 331.954 215.923 332.846 213.78 334.148C213.555 334.435 213.432 334.733 213.432 335.03C213.432 337.183 219.348 338.926 226.658 338.926C231.887 338.926 236.408 338.034 238.551 336.732C238.777 336.445 238.9 336.148 238.9 335.85C238.889 333.697 232.974 331.954 225.674 331.954Z" fill="#F8AE0D"/>
<path d="M222.321 377.395V380.993C222.321 381.834 222.813 382.603 223.572 382.951C227.16 384.623 237.977 388.642 249.532 382.941C250.27 382.582 250.731 381.824 250.731 381.003V377.876C250.731 377.887 237.598 385.607 222.321 377.395Z" fill="#FCD144"/>
<path d="M250.731 377.477C250.731 379.794 244.364 381.67 236.521 381.67C228.678 381.67 222.311 379.794 222.311 377.477C222.311 375.159 228.678 373.283 236.521 373.283C244.364 373.283 250.731 375.159 250.731 377.477Z" fill="#FCD144"/>
<path d="M236.531 373.621C230.257 373.621 225.017 374.903 223.654 376.615C225.797 375.323 230.318 374.442 235.547 374.442C242.847 374.442 248.773 376.174 248.773 378.317C248.773 378.625 248.65 378.912 248.424 379.199C249.275 378.686 249.757 378.112 249.757 377.507C249.747 375.354 243.831 373.621 236.531 373.621Z" fill="#D39A19"/>
<path d="M235.537 374.401C230.308 374.401 225.786 375.293 223.644 376.595C223.418 376.882 223.295 377.179 223.295 377.477C223.295 379.63 229.211 381.373 236.521 381.373C241.75 381.373 246.271 380.481 248.414 379.178C248.64 378.891 248.763 378.594 248.763 378.297C248.763 376.144 242.847 374.401 235.537 374.401Z" fill="#F8AE0D"/>
<path d="M227.253 372.463V376.062C227.253 376.902 227.745 377.671 228.503 378.02C232.092 379.691 242.909 383.71 254.463 378.01C255.202 377.651 255.663 376.892 255.663 376.072V372.945C255.673 372.955 242.529 380.675 227.253 372.463Z" fill="#FCD144"/>
<path d="M255.673 372.545C255.673 374.862 249.306 376.738 241.463 376.738C233.62 376.738 227.253 374.862 227.253 372.545C227.253 370.228 233.62 368.352 241.463 368.352C249.306 368.352 255.673 370.228 255.673 372.545Z" fill="#FCD144"/>
<path d="M241.463 368.68C235.188 368.68 229.949 369.961 228.585 371.673C230.728 370.382 235.25 369.5 240.479 369.5C247.779 369.5 253.705 371.233 253.705 373.375C253.705 373.673 253.582 373.97 253.356 374.257C254.207 373.745 254.689 373.17 254.689 372.565C254.689 370.412 248.763 368.68 241.463 368.68Z" fill="#D39A19"/>
<path d="M240.479 369.469C235.25 369.469 230.728 370.361 228.585 371.663C228.36 371.95 228.237 372.248 228.237 372.545C228.237 374.698 234.153 376.441 241.463 376.441C246.692 376.441 251.213 375.549 253.356 374.247C253.582 373.96 253.705 373.662 253.705 373.365C253.705 371.212 247.779 369.469 240.479 369.469Z" fill="#F8AE0D"/>
<path d="M220.342 367.521V371.12C220.342 371.961 220.834 372.729 221.593 373.078C225.181 374.749 235.998 378.768 247.563 373.068C248.301 372.709 248.763 371.95 248.763 371.13V368.003C248.763 368.013 235.619 375.734 220.342 367.521Z" fill="#FCD144"/>
<path d="M234.552 371.796C242.401 371.796 248.763 369.919 248.763 367.603C248.763 365.287 242.401 363.41 234.552 363.41C226.704 363.41 220.342 365.287 220.342 367.603C220.342 369.919 226.704 371.796 234.552 371.796Z" fill="#FCD144"/>
<path d="M234.553 363.748C228.278 363.748 223.039 365.03 221.675 366.742C223.818 365.45 228.339 364.568 233.568 364.568C240.868 364.568 246.794 366.301 246.794 368.444C246.794 368.751 246.671 369.039 246.446 369.326C247.297 368.813 247.779 368.239 247.779 367.634C247.779 365.481 241.852 363.748 234.553 363.748Z" fill="#D39A19"/>
<path d="M233.568 364.527C228.339 364.527 223.818 365.419 221.675 366.721C221.449 367.008 221.326 367.306 221.326 367.603C221.326 369.756 227.242 371.499 234.552 371.499C239.781 371.499 244.303 370.607 246.446 369.305C246.671 369.018 246.794 368.721 246.794 368.423C246.794 366.27 240.868 364.527 233.568 364.527Z" fill="#F8AE0D"/>
<path d="M227.253 361.605V365.204C227.253 366.045 227.745 366.814 228.503 367.162C232.092 368.833 242.909 372.853 254.463 367.152C255.202 366.793 255.663 366.034 255.663 365.214V362.087C255.673 362.097 242.529 369.818 227.253 361.605Z" fill="#FCD144"/>
<path d="M255.673 361.687C255.673 364.004 249.306 365.881 241.463 365.881C233.62 365.881 227.253 364.004 227.253 361.687C227.253 359.37 233.62 357.494 241.463 357.494C249.306 357.494 255.673 359.37 255.673 361.687Z" fill="#FCD144"/>
<path d="M241.463 357.822C235.188 357.822 229.949 359.104 228.585 360.816C230.728 359.524 235.25 358.642 240.479 358.642C247.779 358.642 253.705 360.375 253.705 362.518C253.705 362.825 253.582 363.112 253.356 363.399C254.207 362.887 254.689 362.313 254.689 361.708C254.689 359.555 248.763 357.822 241.463 357.822Z" fill="#D39A19"/>
<path d="M240.479 358.611C235.25 358.611 230.728 359.503 228.585 360.806C228.36 361.093 228.237 361.39 228.237 361.687C228.237 363.84 234.153 365.583 241.463 365.583C246.692 365.583 251.213 364.691 253.356 363.389C253.582 363.102 253.705 362.805 253.705 362.507C253.705 360.354 247.779 358.611 240.479 358.611Z" fill="#F8AE0D"/>
<path d="M121.588 295.741C121.588 295.741 125.955 294.921 127.452 291.128L122.941 292.204L125.258 290.738C125.258 290.738 124.643 289.908 123.177 290.779L121.741 291.62C121.741 291.62 120.296 291.774 120.009 293.158L121.588 295.741Z" fill="#FA977A"/>
<path d="M88.7788 290.277C86.4309 288.8 86.3284 285.735 87.3947 283.52C88.0508 282.157 89.1171 280.824 90.7473 280.803C91.6803 280.793 92.6031 281.172 93.4028 281.716C94.264 282.3 95.156 283.1 95.7097 283.992C95.7097 283.992 101.461 293.26 104.845 294.665C108.228 296.07 120.183 292.655 120.183 292.655L121.598 295.741C121.598 295.741 110.248 303.554 103.615 300.991C96.9708 298.428 90.8088 291.558 88.7788 290.277Z" fill="#FA977A"/>
<path d="M98.9187 287.488C98.9187 287.488 93.5771 276.917 88.2969 280.567C83.0167 284.217 88.2969 291.117 90.3474 293.896L98.9187 287.488Z" fill="#214F6F"/>
<path d="M93.8847 275.974L94.2743 281.049L88.9224 278.599C88.9224 278.599 90.1527 276.425 89.5785 274.754C89.5888 274.744 92.9927 275.051 93.8847 275.974Z" fill="#F08668"/>
<path d="M100.446 269.125L100.436 269.146C102.036 260.072 94.6741 261.631 94.6741 261.631C92.2749 261.702 87.7945 263.589 87.979 266.562C88.1636 269.546 87.6817 275.605 92.1929 277.625C95.9865 279.327 97.873 279.06 99.4826 273.339C99.7185 273.339 99.985 273.288 100.303 273.114C101.195 272.611 100.446 269.125 100.446 269.125Z" fill="#FA977A"/>
<path d="M92.4083 271.36C92.9209 270.315 92.8389 268.91 93.5668 267.915C94.3768 266.808 95.7199 266.736 96.9605 266.542C98.4574 266.306 99.862 265.783 101.103 264.891C101.851 264.358 102.548 263.681 103.03 262.892C103.389 262.297 103.973 261.159 103.533 260.482C102.989 259.641 101.913 260.267 101.174 260.41C98.7855 260.882 96.3556 261.19 93.9154 261.282C91.6701 261.364 86.4206 259.888 85.2826 262.635C85.016 263.271 85.0058 263.978 85.0673 264.655C85.1596 265.639 85.3339 266.603 85.5081 267.567C85.7645 268.982 86.1336 270.417 86.8308 271.678C87.2819 272.488 87.9483 273.493 88.7993 273.934C90.3987 274.775 91.7213 272.652 92.357 271.483C92.3775 271.432 92.3877 271.391 92.4083 271.36Z" fill="#214F6F"/>
<path d="M71.8309 378.819L76.9299 379.521L77.8417 372.899L72.7427 372.197L71.8309 378.819Z" fill="#F9AF88"/>
<path d="M71.8001 377.907L71.4105 380.768C71.3388 381.291 71.7079 381.762 72.2205 381.834C75.1938 382.224 84.1547 383.31 83.9907 382.418C83.7959 381.352 77.5007 379.271 77.5007 379.271L71.8001 377.907Z" fill="#F5F2EB"/>
<path d="M91.1852 375.315L96.2816 376.033L97.2148 369.414L92.1184 368.695L91.1852 375.315Z" fill="#F9AF88"/>
<path d="M91.1677 374.38L90.7678 377.23C90.696 377.753 91.0549 378.225 91.5778 378.297C94.5408 378.697 103.512 379.814 103.348 378.922C103.153 377.856 96.8682 375.754 96.8682 375.754L91.1677 374.38Z" fill="#F5F2EB"/>
<path d="M94.0897 311.367C96.0787 315.611 97.8935 319.948 99.5749 324.316C101.482 329.278 103.727 334.241 104.414 339.552C104.988 344.001 103.686 348.246 102.784 352.542C101.461 358.796 100.149 365.05 98.8265 371.294H89.3632C90.5012 368.105 91.5368 364.886 92.521 361.646C94.8382 353.998 97.0015 346.226 93.1157 338.701C91.7931 336.148 90.4807 333.584 89.1581 331.031C88.8916 330.519 88.5737 329.965 88.0303 329.801C88.4917 329.934 89.8553 338.516 90.0501 339.49C90.6038 342.269 91.0446 345.109 90.1321 347.959C89.1684 350.994 87.7843 353.967 86.5539 356.899C83.8677 363.297 80.9764 369.613 78.321 376.021L72.0155 374.811C73.2151 371.222 74.3736 365.665 75.5117 362.056C76.4447 359.093 77.634 356.223 78.5158 353.239C80.3613 347.026 79.2642 341.284 78.0646 335.112C76.7625 328.417 75.3784 321.742 73.9635 315.068C73.9635 315.047 73.861 314.576 73.861 314.576C73.8508 314.596 94.0897 311.367 94.0897 311.367Z" fill="#214F6F"/>
<path d="M72.5178 314.217C73.0407 306.568 75.4911 286.76 86.7691 277.635C87.7124 276.866 89.076 276.866 90.0603 277.584L93.2079 279.891C94.8278 281.08 95.8326 282.946 95.9249 284.956C96.2222 291.589 96.8681 306.814 96.7143 313.212C96.6836 314.617 95.5763 315.755 94.1819 315.847L75.4193 317.108C73.7584 317.221 72.405 315.857 72.5178 314.217Z" fill="white"/>
<path d="M109.479 311.018C109.479 311.018 113.662 312.525 116.871 310.013L112.442 308.65L115.19 308.557C115.19 308.557 115.087 307.532 113.375 307.542L111.714 307.532C111.714 307.532 110.392 306.937 109.448 307.983L109.479 311.018Z" fill="#FA977A"/>
<path d="M83.9497 289.682C82.6681 287.221 84.1343 284.525 86.1746 283.151C87.4357 282.3 89.0248 281.695 90.4397 282.505C91.2497 282.967 91.8546 283.766 92.2647 284.638C92.7056 285.581 93.0747 286.719 93.1054 287.775C93.1054 287.775 93.3618 298.684 95.5764 301.606C97.791 304.538 109.817 307.635 109.817 307.635L109.469 311.008C109.469 311.008 95.7199 311.992 91.301 306.425C86.8923 300.858 85.057 291.815 83.9497 289.682Z" fill="#FA977A"/>
<path d="M94.1102 292.409C94.1102 292.409 94.8587 280.588 88.4609 281.07C82.0632 281.541 83.1192 290.164 83.4781 293.599L94.1102 292.409Z" fill="#214F6F"/>
<path d="M93.3617 270.171C93.6077 270.889 93.3514 271.617 92.808 271.801C92.2544 271.986 91.6085 271.565 91.3726 270.848C91.1266 270.13 91.3829 269.402 91.9263 269.218C92.4799 269.033 93.1259 269.453 93.3617 270.171Z" fill="#FA977A"/>
<path d="M318.412 284.695L314.838 285.199L315.492 289.838L319.066 289.334L318.412 284.695Z" fill="#F9AF88"/>
<path d="M319.107 288.677L319.394 290.677C319.445 291.035 319.189 291.374 318.83 291.425C316.749 291.702 310.464 292.491 310.577 291.866C310.71 291.117 315.119 289.651 315.119 289.651L319.107 288.677Z" fill="#214856"/>
<path d="M327.475 288.724L323.902 289.228L324.556 293.868L328.129 293.364L327.475 288.724Z" fill="#F9AF88"/>
<path d="M328.171 292.696L328.458 294.696C328.509 295.055 328.253 295.393 327.894 295.444C325.812 295.721 319.528 296.51 319.64 295.885C319.774 295.137 324.182 293.67 324.182 293.67L328.171 292.696Z" fill="#214856"/>
<path d="M310.156 247.656C309.736 247.943 309.336 248.271 308.977 248.63C304.425 253.172 307.501 262.133 308.813 267.403C310.454 273.975 312.597 280.475 315.109 286.76H319.999L315.98 260.646C315.519 257.673 317.826 254.997 320.83 254.997H341.991L343.539 249.727C336.926 249.727 328.765 245.226 322.152 245.226C318.451 245.236 313.489 245.37 310.156 247.656Z" fill="#214F6F"/>
<path d="M319.158 252.167C318.738 252.454 318.338 252.782 317.979 253.141C313.427 257.683 316.493 266.644 317.815 271.914C319.456 278.486 321.599 284.986 324.11 291.271H329.001L324.982 265.157C324.521 262.184 326.827 259.508 329.832 259.508H344.032C347.876 259.508 350.993 256.391 350.993 252.547C350.993 250.998 349.732 249.737 348.184 249.737C342.504 249.737 336.834 249.737 331.154 249.737C327.453 249.737 322.491 249.871 319.158 252.167Z" fill="#214F6F"/>
<path d="M339.961 212.899L338.546 217.339L343.827 216.272C343.827 216.272 343.191 214.078 344.052 212.704C344.052 212.704 340.956 212.253 339.961 212.899Z" fill="#F08668"/>
<path d="M335.553 205.415V205.435C336.024 197.018 342.258 199.94 342.258 199.94C344.38 200.504 347.979 203.128 347.189 205.743C346.4 208.357 345.559 213.863 341.12 214.724C337.378 215.442 335.747 214.816 335.522 209.372C335.317 209.331 335.081 209.229 334.835 209.003C334.158 208.367 335.553 205.415 335.553 205.415Z" fill="#FA977A"/>
<path d="M332.682 247.471C346.072 253.008 350.142 250.527 350.142 250.527C353.31 237.424 350.019 215.77 346.369 215.565C344.647 215.473 342.34 215.883 340.382 216.334C337.736 216.949 335.563 218.866 334.671 221.429C333.605 224.485 332.713 228.781 334.199 232.42C336.834 238.89 332.682 247.471 332.682 247.471Z" fill="white"/>
<path d="M335.737 251.378L301.595 248.261" stroke="#F5F2EB" stroke-miterlimit="10"/>
<path d="M323.444 250.547L317.139 235.137L295.362 233.148L301.667 248.558L323.444 250.547Z" fill="#F5F2EB"/>
<path d="M324.705 242.817C324.705 242.817 321.26 244.057 318.605 241.986L322.265 240.858L319.999 240.776C319.999 240.776 320.091 239.925 321.496 239.936L322.87 239.925C322.87 239.925 323.967 239.433 324.746 240.295L324.705 242.817Z" fill="#FA977A"/>
<path d="M345.764 225.223C346.82 223.193 345.611 220.968 343.929 219.84C342.894 219.143 341.581 218.641 340.412 219.307C339.746 219.686 339.244 220.343 338.905 221.06C338.536 221.84 338.229 222.773 338.208 223.644C338.208 223.644 337.993 232.636 336.168 235.055C334.343 237.475 324.418 240.028 324.418 240.028L324.705 242.817C324.705 242.817 336.045 243.627 339.684 239.033C343.334 234.44 344.852 226.976 345.764 225.223Z" fill="#FA977A"/>
<path d="M337.378 227.468C337.378 227.468 336.762 217.718 342.043 218.108C347.323 218.497 346.451 225.613 346.154 228.442L337.378 227.468Z" fill="white"/>
<path d="M336.537 200.862C336.537 200.862 337.839 203.754 340.392 205.394C342.945 207.035 343.867 214.109 342.35 218.989C341.479 221.799 343.416 223.716 345.651 225.1C346.41 225.572 347.394 225.828 348.194 225.438C348.82 225.131 349.199 224.505 349.671 223.993C350.142 223.48 350.86 223.049 351.506 223.316C352.541 223.747 352.9 225.397 354.264 224.239C357.135 221.778 356.181 216.19 352.541 214.96C352.234 214.857 351.895 214.755 351.67 214.509C350.45 213.186 351.947 210.572 352.152 209.136C352.388 207.568 352.029 205.814 350.973 204.594C349.927 203.385 348.204 203.395 347.148 202.257C346.42 201.478 346.267 200.309 345.416 199.622C344.544 198.925 343.314 198.853 342.248 198.853C336.486 198.894 336.537 200.862 336.537 200.862Z" fill="#214F6F"/>
<path d="M282.218 224.833H299.104C301.329 224.833 303.143 223.029 303.143 220.794V220.271C303.143 218.046 301.339 216.231 299.104 216.231H282.218C279.993 216.231 278.178 218.036 278.178 220.271V220.794C278.178 223.029 279.982 224.833 282.218 224.833Z" fill="#FCFFFA"/>
<path d="M296.397 222.362C297.405 222.362 298.222 221.545 298.222 220.537C298.222 219.53 297.405 218.712 296.397 218.712C295.389 218.712 294.572 219.53 294.572 220.537C294.572 221.545 295.389 222.362 296.397 222.362Z" fill="#C5E1ED"/>
<path d="M288.831 220.537C288.831 221.542 289.651 222.362 290.656 222.362C291.66 222.362 292.481 221.542 292.481 220.537C292.481 219.533 291.66 218.712 290.656 218.712C289.651 218.712 288.831 219.522 288.831 220.537Z" fill="#C5E1ED"/>
<path d="M284.924 222.362C285.932 222.362 286.749 221.545 286.749 220.537C286.749 219.53 285.932 218.712 284.924 218.712C283.916 218.712 283.099 219.53 283.099 220.537C283.099 221.545 283.916 222.362 284.924 222.362Z" fill="#C5E1ED"/>
<path d="M299.729 224.69H295.198L297.463 228.094L299.729 224.69Z" fill="#FCFFFA"/>
</g>
<defs>
<clipPath id="clip0_295_206">
<rect width="500" height="398.104" fill="white"/>
</clipPath>
</defs>
</svg>
