<?xml version="1.0" encoding="UTF-8"?>
<svg id="Layer_4" data-name="Layer 4" xmlns="http://www.w3.org/2000/svg" viewBox="0 0 32 32">
  <defs>
    <style>
      .cls-1 {
        fill: #214f6f;
      }
    </style>
  </defs>
  <rect class="cls-1" x="5.75" y="8.7" width="5.64" height="3.59" rx=".97" ry=".97"/>
  <rect class="cls-1" x="5.75" y="13.5" width="5.64" height="3.59" rx=".97" ry=".97"/>
  <rect class="cls-1" x="5.75" y="19.27" width="5.64" height="3.59" rx=".97" ry=".97"/>
  <rect class="cls-1" x="13.36" y="3.3" width="5.48" height="3.54" rx=".97" ry=".97"/>
  <rect class="cls-1" x="20.73" y="8.7" width="5.52" height="3.61" rx=".97" ry=".97"/>
  <rect class="cls-1" x="13.37" y="14.11" width="5.46" height="3.58" rx=".97" ry=".97"/>
  <path class="cls-1" d="M11.45,4.18v1.7c0,.53-.43,.97-.97,.97h-3.6c-.65,0-1.11-.62-.93-1.24s.49-1.18,.98-1.64c.41-.38,1.06-.63,1.62-.7,.63-.08,1.27-.06,1.94-.05,.52,.01,.94,.44,.94,.97Z"/>
  <path class="cls-1" d="M5.85,26.29c-.13-.61,.32-1.18,.94-1.18,1.2,0,2.4,0,3.61,0h0c.53,0,.97,.43,.97,.97v1.77c0,.49-.37,.91-.86,.96-2.62,.26-4.25-.61-4.66-2.52Z"/>
  <path class="cls-1" d="M25.21,6.87h-3.52c-.53,0-.97-.43-.97-.97,0-.58,0-1.16,0-1.73,0-.49,.37-.9,.85-.96,2.43-.32,4.15,.62,4.57,2.47,.14,.61-.32,1.18-.94,1.18Z"/>
  <path class="cls-1" d="M20.72,15.08v1.7c0,.53,.43,.97,.97,.97h3.56c.59,0,1.05-.53,.96-1.12-.24-1.41-1.43-2.51-2.94-2.51-.52,0-1.05,0-1.58,0s-.97,.43-.97,.97Z"/>
  <rect class="cls-1" x="20.73" y="19.52" width="5.52" height="3.61" rx=".97" ry=".97"/>
  <rect class="cls-1" x="13.37" y="25.27" width="5.46" height="3.58" rx=".97" ry=".97"/>
  <path class="cls-1" d="M20.72,27.88v-1.7c0-.53,.43-.97,.97-.97h3.56c.59,0,1.05,.53,.96,1.12-.24,1.41-1.43,2.51-2.94,2.51-.52,0-1.05,0-1.58,0s-.97-.43-.97-.97Z"/>
</svg>