<svg width="16" height="16" viewBox="0 0 16 16" fill="none" xmlns="http://www.w3.org/2000/svg">
<path d="M13.1361 8.00001L7.47475 2.18201C7.42814 2.13512 7.39129 2.07946 7.36634 2.01824C7.34138 1.95702 7.32881 1.89145 7.32936 1.82534C7.32991 1.75923 7.34357 1.69389 7.36954 1.63309C7.39551 1.57229 7.43328 1.51725 7.48066 1.47114C7.52804 1.42504 7.5841 1.38879 7.64558 1.36449C7.70707 1.34019 7.77276 1.32833 7.83886 1.32959C7.90496 1.33085 7.97016 1.3452 8.03067 1.37182C8.09119 1.39844 8.14583 1.4368 8.19142 1.48468L14.1914 7.65134C14.2822 7.74469 14.333 7.86978 14.333 8.00001C14.333 8.13024 14.2822 8.25533 14.1914 8.34868L8.19142 14.5153C8.14583 14.5632 8.09119 14.6016 8.03067 14.6282C7.97016 14.6548 7.90496 14.6692 7.83886 14.6704C7.77276 14.6717 7.70707 14.6598 7.64558 14.6355C7.5841 14.6112 7.52804 14.575 7.48066 14.5289C7.43328 14.4828 7.39551 14.4277 7.36954 14.3669C7.34357 14.3061 7.32991 14.2408 7.32936 14.1747C7.32881 14.1086 7.34138 14.043 7.36634 13.9818C7.39129 13.9206 7.42814 13.8649 7.47475 13.818L13.1361 8.00001Z" fill="white"/>
</svg>
