<svg width="51" height="51" viewBox="0 0 51 51" fill="none" xmlns="http://www.w3.org/2000/svg">
<rect width="51" height="51" rx="25.5" fill="#214F6F"/>
<path d="M23.9309 27.9167L35.8476 16M23.9309 27.9167L27.7226 35.5C27.7701 35.6037 27.8465 35.6916 27.9425 35.7532C28.0385 35.8149 28.1502 35.8476 28.2643 35.8476C28.3784 35.8476 28.4901 35.8149 28.5861 35.7532C28.6821 35.6916 28.7584 35.6037 28.8059 35.5L35.8476 16M23.9309 27.9167L16.3476 24.125C16.2439 24.0775 16.156 24.0012 16.0944 23.9051C16.0328 23.8091 16 23.6974 16 23.5833C16 23.4692 16.0328 23.3575 16.0944 23.2615C16.156 23.1655 16.2439 23.0892 16.3476 23.0417L35.8476 16" stroke="white" stroke-width="2" stroke-linecap="round" stroke-linejoin="round"/>
</svg>
