<svg width="49" height="23" viewBox="0 0 49 23" fill="none" xmlns="http://www.w3.org/2000/svg">
<path d="M46.0165 1H24.1983C23.1029 1 22.2148 1.88803 22.2148 2.98347V19.843C22.2148 20.9384 23.1029 21.8264 24.1983 21.8264H46.0165C47.1119 21.8264 48 20.9384 48 19.843V2.98347C48 1.88803 47.1119 1 46.0165 1Z" stroke="#214F6F" stroke-width="1.5" stroke-linecap="round" stroke-linejoin="round"/>
<path d="M22.2148 3.47935L33.838 13.3967C34.1944 13.6936 34.6436 13.8561 35.1074 13.8561C35.5712 13.8561 36.0204 13.6936 36.3768 13.3967L48 3.47935" stroke="#214F6F" stroke-width="1.5" stroke-linecap="round" stroke-linejoin="round"/>
<line y1="4.41528" x2="16.6612" y2="4.41528" stroke="#214F6F" stroke-width="1.5"/>
<line x1="4.16553" y1="11.3574" x2="16.6614" y2="11.3574" stroke="#214F6F" stroke-width="1.5"/>
<line x1="9.71924" y1="16.9112" x2="16.6614" y2="16.9112" stroke="#214F6F" stroke-width="1.5"/>
</svg>
