<svg width="119" height="118" viewBox="0 0 119 118" fill="none" xmlns="http://www.w3.org/2000/svg">
<g opacity="0.5">
<path d="M84.9036 49.0651L61.131 39.8121C57.7121 38.4813 53.875 40.1048 52.5607 43.4382L48.4654 53.8247C47.1511 57.1581 48.8572 60.9392 52.2762 62.27L76.0488 71.523C79.4677 72.8537 83.3048 71.2303 84.6191 67.8969L88.7144 57.5103C90.0287 54.1769 88.3226 50.3958 84.9036 49.0651Z" fill="#F4A623"/>
<path d="M73.0974 79.0544L49.3249 69.8014C45.9059 68.4707 42.0688 70.0941 40.7545 73.4275L36.6592 83.8141C35.3449 87.1475 37.0511 90.9286 40.47 92.2593L64.2426 101.512C67.6616 102.843 71.4987 101.22 72.813 97.8862L76.9083 87.4997C78.2226 84.1663 76.5164 80.3852 73.0974 79.0544Z" fill="#F4A623"/>
<path d="M58.9309 115.039L35.1584 105.786C31.7394 104.455 27.9023 106.079 26.588 109.412L22.4927 119.798C21.1784 123.132 22.8846 126.913 26.3036 128.244L50.0761 137.497C53.4951 138.827 57.3322 137.204 58.6465 133.871L62.7418 123.484C64.0561 120.151 62.3499 116.37 58.9309 115.039Z" fill="#F4A623"/>
<path d="M145.961 34.0185L123.212 25.1639C119.793 23.8332 115.956 25.4566 114.641 28.79L110.688 38.8166C109.374 42.15 111.08 45.931 114.499 47.2617L137.248 56.1163C140.667 57.4471 144.504 55.8236 145.818 52.4902L149.771 42.4636C151.086 39.1303 149.38 35.3493 145.961 34.0185Z" fill="#F4A623"/>
<path d="M119.346 101.474L96.7149 92.6648C93.296 91.3341 89.459 92.9575 88.1447 96.2908L84.0817 106.595C82.7674 109.929 84.4736 113.71 87.8925 115.04L110.524 123.849C113.943 125.18 117.78 123.556 119.094 120.223L123.157 109.919C124.471 106.585 122.765 102.804 119.346 101.474Z" fill="#F4A623"/>
<path d="M102.553 23.4908L98.3678 34.106C97.0522 37.4427 93.22 39.0641 89.7976 37.732L66.7469 28.76C62.6031 27.1472 61.1854 22.1051 63.8714 18.6792C66.5806 15.2435 69.9236 12.5073 74.1932 10.9052C77.7855 9.54891 82.5148 9.57849 86.3294 10.5538C90.5491 11.6303 94.6207 13.3283 98.8935 15.1046C102.217 16.4923 103.843 20.2195 102.553 23.4908Z" fill="#F4A623"/>
<path d="M79.4944 46.8222L55.7218 37.5692C52.3029 36.2384 48.4658 37.8619 47.1515 41.1953L43.0562 51.5819C41.7419 54.9153 43.448 58.6963 46.867 60.0271L70.6396 69.2801C74.0586 70.6109 77.8956 68.9874 79.21 65.654L83.3052 55.2674C84.6195 51.934 82.9134 48.153 79.4944 46.8222Z" fill="white"/>
<path d="M67.6883 76.8116L43.9157 67.5586C40.4967 66.2278 36.6596 67.8512 35.3453 71.1846L31.25 81.5712C29.9357 84.9046 31.6419 88.6857 35.0609 90.0164L58.8334 99.2694C62.2524 100.6 66.0895 98.9768 67.4038 95.6434L71.4991 85.2568C72.8134 81.9234 71.1072 78.1423 67.6883 76.8116Z" fill="white"/>
<path d="M53.5218 112.796L29.7492 103.543C26.3302 102.212 22.4931 103.836 21.1788 107.169L17.0836 117.556C15.7692 120.889 17.4754 124.67 20.8944 126.001L44.6669 135.254C48.0859 136.585 51.923 134.961 53.2373 131.628L57.3326 121.241C58.6469 117.908 56.9407 114.127 53.5218 112.796Z" fill="white"/>
<path d="M140.551 31.7756L117.802 22.921C114.383 21.5903 110.546 23.2137 109.232 26.5471L105.279 36.5737C103.964 39.9071 105.671 43.6881 109.089 45.0188L131.838 53.8734C135.257 55.2042 139.094 53.5807 140.409 50.2474L144.362 40.2207C145.676 36.8874 143.97 33.1064 140.551 31.7756Z" fill="white"/>
<path d="M113.937 99.2306L91.3057 90.4219C87.8868 89.0912 84.0498 90.7146 82.7355 94.0479L78.6725 104.352C77.3582 107.686 79.0644 111.467 82.4833 112.797L105.115 121.606C108.534 122.937 112.371 121.314 113.685 117.98L117.748 107.676C119.062 104.342 117.356 100.561 113.937 99.2306Z" fill="white"/>
<path d="M97.1441 21.2479L92.9586 31.8631C91.643 35.1998 87.8108 36.8212 84.3884 35.4891L61.3377 26.5171C57.1939 24.9043 55.7762 19.8622 58.4622 16.4364C61.1715 13.0006 64.5144 10.2644 68.784 8.66234C72.3763 7.30602 77.1056 7.3356 80.9202 8.31095C85.14 9.38741 89.2115 11.0854 93.4843 12.8617C96.8073 14.2494 98.4339 17.9766 97.1441 21.2479Z" fill="white"/>
</g>
</svg>
