<svg width="520" height="347" viewBox="0 0 520 347" fill="none" xmlns="http://www.w3.org/2000/svg">
<path d="M46.3569 150.055C46.3569 150.055 40.5662 149.638 41.0994 162.629C41.6326 175.62 42.9582 182.539 42.9582 182.539C42.9582 182.539 42.7883 185.42 40.5572 184.854C38.3261 184.289 34.13 181.486 32.0569 183.582C29.9076 185.754 30.6717 189.088 33.5226 193.014C36.3736 196.941 42.3051 205.772 42.8383 206.572C43.3617 207.359 43.5718 208.832 41.9903 208.691C40.4088 208.549 29.735 204.931 28.3213 210.099C26.9075 215.267 36.6482 224.899 37.693 225.973C38.7379 227.046 38.7941 227.724 38.3704 228.373C37.9468 229.023 34.4732 227.468 31.3955 226.564C28.3171 225.659 24.5897 225.15 24.024 228.2C23.4582 231.25 27.7486 240.176 43.8152 249.556L51.5445 253.415L58.8605 248.749C73.9079 237.808 77.2838 228.498 76.4164 225.521C75.5484 222.543 71.8903 223.423 68.9187 224.63C65.9464 225.838 62.6461 227.732 62.1594 227.128C61.6727 226.524 61.6609 225.844 62.5927 224.672C63.5246 223.499 72.2529 212.941 70.3296 207.94C68.4063 202.94 58.1478 207.608 56.5885 207.906C55.0291 208.205 55.0909 206.718 55.5332 205.884C55.9839 205.034 61.0022 195.654 63.4462 191.462C65.8902 187.27 66.3173 183.878 63.9614 181.93C61.6893 180.052 57.7942 183.261 55.631 184.047C53.4678 184.832 53.0102 181.983 53.0102 181.983C53.0102 181.983 53.6369 174.966 52.868 161.987C52.0991 149.008 46.2398 150.055 46.2398 150.055" fill="#EBEBEB"/>
<path d="M46.8145 161.69C46.8145 161.69 46.8298 161.781 46.8457 161.961C46.8603 162.153 46.8811 162.418 46.9074 162.758C46.956 163.473 47.026 164.504 47.1154 165.826C47.2929 168.49 47.521 172.347 47.7838 177.115C48.3135 186.649 48.9327 199.826 49.5684 214.379C50.2042 228.939 50.7908 242.117 51.2671 251.653C51.5091 256.411 51.7053 260.266 51.8412 262.945C51.9071 264.268 51.9584 265.3 51.9937 266.015C52.0076 266.356 52.018 266.622 52.0263 266.814C52.0319 266.994 52.027 267.087 52.027 267.087C52.027 267.087 52.0118 266.995 51.9958 266.815C51.9813 266.623 51.9605 266.359 51.9341 266.018C51.8856 265.303 51.8155 264.272 51.7261 262.951C51.5486 260.287 51.3205 256.43 51.0577 251.663C50.528 242.129 49.9089 228.95 49.2724 214.391C48.6366 199.837 48.0507 186.661 47.5744 177.124C47.3325 172.367 47.1362 168.512 46.9997 165.831C46.9338 164.509 46.8825 163.476 46.8471 162.761C46.8333 162.42 46.8229 162.154 46.8145 161.961C46.8097 161.782 46.8145 161.69 46.8145 161.69Z" fill="#E0E0E0"/>
<path d="M37.7693 187.739C37.7839 187.725 37.9544 187.868 38.2505 188.139C38.5479 188.409 38.9653 188.813 39.477 189.317C40.4969 190.328 41.869 191.761 43.3527 193.37C44.8046 194.958 46.1178 196.395 47.1328 197.506C47.5842 197.996 47.9676 198.412 48.283 198.754C48.5555 199.048 48.6997 199.217 48.6859 199.232C48.672 199.247 48.5 199.105 48.2019 198.836C47.9052 198.564 47.4871 198.16 46.981 197.651C45.9708 196.63 44.6181 195.18 43.1343 193.571C41.6714 191.994 40.3492 190.568 39.3259 189.464C38.8717 188.976 38.4855 188.562 38.1687 188.221C37.8976 187.925 37.7548 187.753 37.7693 187.739Z" fill="#E0E0E0"/>
<path d="M49.4527 198.977C49.3944 198.919 52.2211 195.96 55.7655 192.366C59.3112 188.771 62.2315 185.905 62.2897 185.962C62.348 186.02 59.5219 188.979 55.9762 192.574C52.4319 196.167 49.5109 199.034 49.4527 198.977Z" fill="#E0E0E0"/>
<path d="M49.4208 221.375C49.4118 221.357 49.6038 221.236 49.9595 221.033C50.372 220.801 50.8768 220.517 51.4717 220.184C52.7474 219.467 54.5057 218.471 56.4061 217.302C58.31 216.138 59.9976 215.026 61.213 214.212C61.7801 213.833 62.2613 213.512 62.6551 213.25C62.9976 213.025 63.1925 212.908 63.2049 212.925C63.2167 212.941 63.0448 213.089 62.7231 213.344C62.4007 213.597 61.9278 213.955 61.3329 214.384C60.1453 215.243 58.4709 216.387 56.5607 217.556C54.6541 218.727 52.8736 219.698 51.5701 220.368C50.917 220.701 50.3852 220.964 50.0122 221.135C49.6399 221.306 49.4298 221.393 49.4208 221.375Z" fill="#E0E0E0"/>
<path d="M36.6163 213.536C36.6267 213.519 36.8167 213.609 37.1509 213.787C37.485 213.965 37.9641 214.232 38.5521 214.566C39.7287 215.234 41.3441 216.176 43.1184 217.231C44.8933 218.287 46.4921 219.256 47.641 219.971C48.2158 220.329 48.6782 220.622 48.9944 220.831C49.3105 221.04 49.4804 221.163 49.47 221.181C49.4596 221.198 49.2696 221.108 48.9354 220.93C48.6013 220.752 48.1222 220.486 47.5342 220.151C46.3576 219.483 44.7422 218.541 42.9672 217.485C41.193 216.43 39.5949 215.46 38.4453 214.746C37.8705 214.389 37.4081 214.095 37.0919 213.886C36.7751 213.678 36.6052 213.554 36.6163 213.536Z" fill="#E0E0E0"/>
<path d="M34.0759 233.307C34.0863 233.289 34.3276 233.407 34.7561 233.635C35.2324 233.898 35.8356 234.231 36.5553 234.627C38.0674 235.477 40.1467 236.667 42.434 237.998C44.722 239.329 46.7847 240.549 48.2698 241.444C48.9708 241.873 49.558 242.233 50.0212 242.517C50.4316 242.776 50.6535 242.928 50.6431 242.945C50.6327 242.963 50.3914 242.845 49.9629 242.617C49.4866 242.354 48.8834 242.021 48.1638 241.625C46.6516 240.775 44.5716 239.585 42.2843 238.254C39.997 236.923 37.9343 235.704 36.4492 234.808C35.7482 234.379 35.161 234.019 34.6971 233.734C34.2874 233.476 34.0655 233.324 34.0759 233.307Z" fill="#E0E0E0"/>
<path d="M50.3117 242.604C50.302 242.586 50.5419 242.427 50.9835 242.154C51.4751 241.854 52.106 241.47 52.8625 241.01C54.4481 240.043 56.6335 238.702 59.0054 237.154C61.3801 235.609 63.494 234.156 65.0173 233.095C65.7446 232.59 66.3513 232.169 66.8234 231.84C67.2519 231.546 67.4946 231.391 67.5063 231.408C67.5188 231.424 67.299 231.61 66.8914 231.933C66.4837 232.256 65.8867 232.713 65.1386 233.266C63.6445 234.372 61.5458 235.855 59.1662 237.403C56.7902 238.953 54.5826 240.269 52.9678 241.191C52.1594 241.649 51.5007 242.014 51.0404 242.254C50.5807 242.496 50.3214 242.622 50.3117 242.604Z" fill="#E0E0E0"/>
<path d="M61.9285 255.943H40.5447L47.5238 308.774H54.9487L61.9285 255.943Z" fill="#E0E0E0"/>
<path d="M41.6548 262.437C41.6465 262.443 41.6783 262.512 41.7692 262.625C41.86 262.737 42.0278 262.884 42.285 262.994C42.7918 263.214 43.6821 263.232 44.5432 262.716C45.4064 262.24 46.1587 261.305 47.3158 260.891C48.4633 260.453 49.8853 260.531 51.2477 260.969C52.6268 261.396 53.8242 262.094 54.9092 262.744C55.9964 263.39 56.9927 263.967 57.8864 264.341C58.7739 264.729 59.5469 264.907 60.0822 264.976C60.3505 265.011 60.5599 265.023 60.7027 265.018C60.8449 265.018 60.919 265.012 60.9197 265C60.9315 264.93 59.7092 264.941 57.9869 264.116C57.1237 263.722 56.1538 263.131 55.0749 262.468C54.0017 261.805 52.7745 261.077 51.351 260.636C49.9443 260.184 48.4314 260.102 47.2008 260.591C46.5858 260.826 46.0692 261.193 45.6387 261.557C45.2019 261.918 44.8108 262.259 44.4149 262.506C43.6329 263.011 42.8113 263.032 42.3322 262.867C41.8399 262.696 41.6818 262.408 41.6548 262.437Z" fill="#F5F5F5"/>
<path d="M42.4348 272.167C42.4632 272.185 42.6039 271.95 42.9388 271.6C43.2792 271.261 43.8367 270.817 44.6465 270.517C45.4487 270.209 46.4797 270.026 47.6202 270.069C48.7656 270.109 50.0136 270.361 51.3413 270.576C52.6663 270.799 53.9788 270.899 55.1512 270.734C56.3229 270.584 57.3414 270.246 58.1492 269.879C58.959 269.509 59.558 269.105 59.9518 268.807C60.3463 268.508 60.5342 268.307 60.5231 268.293C60.4829 268.235 59.6572 268.975 58.0507 269.653C57.2492 269.983 56.2515 270.287 55.113 270.415C53.9746 270.557 52.7141 270.453 51.3968 270.232C50.0801 270.019 48.812 269.772 47.6306 269.748C46.4471 269.722 45.3807 269.938 44.555 270.289C43.7216 270.632 43.1586 271.131 42.839 271.51C42.685 271.708 42.5727 271.865 42.5152 271.984C42.4521 272.099 42.4244 272.162 42.4348 272.167Z" fill="#F5F5F5"/>
<path d="M59.506 277.377C59.5144 277.361 59.3161 277.227 58.9167 277.071C58.5187 276.914 57.9114 276.752 57.1445 276.691C56.3784 276.63 55.4611 276.68 54.4655 276.845C53.4685 277.006 52.3994 277.281 51.2769 277.52C50.1551 277.756 49.0728 277.915 48.0924 277.88C47.1127 277.846 46.2412 277.631 45.5645 277.333C44.1889 276.729 43.6987 275.85 43.6467 275.905C43.6336 275.913 43.7306 276.133 44.0087 276.463C44.2839 276.793 44.7651 277.213 45.4605 277.556C46.1545 277.897 47.0579 278.147 48.0785 278.2C49.1012 278.255 50.214 278.099 51.349 277.86C52.484 277.619 53.5448 277.336 54.5203 277.16C55.4951 276.981 56.386 276.908 57.1307 276.936C58.6311 276.987 59.4845 277.441 59.506 277.377Z" fill="#F5F5F5"/>
<path d="M44.3241 284.703C44.3345 284.76 45.0875 284.228 46.3999 284.494C47.0434 284.61 47.763 284.936 48.5722 285.304C49.3778 285.68 50.3492 286.001 51.3913 286.081C53.4921 286.283 55.3606 285.604 56.5067 284.896C57.0939 284.547 57.503 284.172 57.7796 283.917C58.0396 283.64 58.1734 283.48 58.1561 283.464C58.1096 283.413 57.5474 284.045 56.3826 284.682C55.2379 285.316 53.4338 285.927 51.4218 285.733C49.3972 285.617 47.8435 284.41 46.4395 284.251C45.7551 284.148 45.1831 284.247 44.8268 284.391C44.4662 284.532 44.3137 284.691 44.3241 284.703Z" fill="#F5F5F5"/>
<path d="M45.5153 294.844C45.5146 294.884 46.2322 294.88 47.2978 294.49C48.3725 294.131 49.703 293.306 51.2568 292.689C52.0361 292.393 52.8182 292.21 53.5288 292.214C54.2402 292.217 54.8753 292.39 55.3557 292.63C56.3382 293.119 56.6225 293.815 56.6766 293.77C56.6918 293.763 56.6488 293.589 56.4734 293.32C56.3008 293.051 55.9735 292.701 55.4715 292.413C54.971 292.127 54.2984 291.914 53.533 291.892C52.7661 291.87 51.9397 292.056 51.132 292.363C49.522 293.005 48.2338 293.853 47.207 294.26C46.194 294.697 45.507 294.788 45.5153 294.844Z" fill="#F5F5F5"/>
<path d="M46.5636 299.562C46.5518 299.605 47.0641 299.79 47.9176 300.001C48.7697 300.213 49.9664 300.439 51.3018 300.572C52.6385 300.702 53.8553 300.713 54.7331 300.671C55.6109 300.629 56.1496 300.549 56.1468 300.504C56.1413 300.398 53.9801 300.491 51.3365 300.225C48.6921 299.971 46.5899 299.46 46.5636 299.562Z" fill="#F5F5F5"/>
<path d="M479.914 37.5683L440.55 23.4319L401.568 37.3776C396.591 39.728 392.226 41.1355 392.226 45.7711V68.8536C392.226 84.8834 396.426 100.768 405.067 114.792C412.339 126.593 423.599 138.744 440.932 146.467C456.866 141.291 468.76 127.493 476.032 115.692C484.673 101.668 488.873 85.7834 488.873 69.7535V48.9972C488.873 42.3862 485.369 39.1581 479.914 37.5683Z" fill="#F5F5F5"/>
<path d="M440.932 133.071C427.218 126.961 418.31 117.142 412.557 107.806C405.72 96.7103 402.397 84.1429 402.397 71.4605V55.2698C402.397 51.602 404.61 48.1666 409.004 46.1157L440.557 34.3172L440.55 23.4319L401.568 37.3776C397.476 39.165 392.226 41.1355 392.226 45.7711V68.8536C392.226 84.8834 396.426 100.768 405.067 114.792C412.339 126.593 423.599 138.744 440.932 146.467V133.071Z" fill="#EBEBEB"/>
<path d="M440.932 146.467C443.693 145.543 446.23 144.478 448.666 143.151C455.201 139.591 460.776 134.702 465.03 130.277C469.789 125.328 473.336 119.979 476.414 114.982C485.055 100.958 489.255 85.0741 488.873 68.6019L488.897 49.5449C488.873 40.0553 484.006 39.3557 479.914 37.5683L440.55 23.4319L440.556 34.3172L472.478 46.3057C476.872 48.3565 479.084 51.792 479.084 55.4597V71.6519C479.084 84.3343 475.761 96.9017 468.925 107.996C463.172 117.334 454.646 126.961 440.932 133.071V146.467Z" fill="#E0E0E0"/>
<path d="M450.992 70.4226L451.036 67.3074C451.036 61.672 446.451 57.087 440.816 57.087C435.18 57.087 430.595 61.672 430.595 67.2915L430.551 70.4649C427.793 70.8732 425.675 73.2437 425.675 76.1148V94.4896C425.675 97.6477 428.235 100.209 431.394 100.209H450.47C453.629 100.209 456.19 97.6484 456.19 94.4896V76.1148C456.19 73.1328 453.906 70.6867 450.992 70.4226ZM443.541 89.9163H438.552L439.331 86.3131C438.467 85.7764 437.89 84.8217 437.89 83.7304C437.89 82.0505 439.252 80.6888 440.932 80.6888C442.612 80.6888 443.974 82.0512 443.974 83.7304C443.974 84.7829 443.439 85.7099 442.627 86.2562C442.98 87.6533 443.541 89.9163 443.541 89.9163ZM448.79 70.3962H432.754L432.797 67.3074C432.797 62.886 436.394 59.289 440.816 59.289C445.237 59.289 448.834 62.886 448.834 67.2915L448.79 70.3962Z" fill="#E0E0E0"/>
<path d="M408.776 70.1979C408.689 70.2104 408.416 68.9957 408.186 67.001C407.95 65.0076 407.775 62.2301 407.866 59.1642C407.91 57.6313 408.011 56.1725 408.151 54.8517C408.278 53.5316 408.52 52.294 409.031 51.3684C409.531 50.4372 410.229 49.8826 410.755 49.6357C411.289 49.3875 411.622 49.3993 411.626 49.4368C411.693 49.5234 410.297 49.798 409.465 51.5868C409.056 52.4521 408.874 53.6016 408.782 54.9092C408.679 56.221 408.598 57.6659 408.555 59.1836C408.465 62.2184 408.56 64.9688 408.671 66.9594C408.775 68.9506 408.877 70.1848 408.776 70.1979Z" fill="white"/>
<path d="M409.354 80.2457C409.164 80.2499 408.991 79.3007 408.968 78.1276C408.945 76.9538 409.08 75.9991 409.27 75.9956C409.46 75.9921 409.633 76.9399 409.656 78.1144C409.68 79.2875 409.544 80.2422 409.354 80.2457Z" fill="white"/>
<path d="M497.548 308.82C497.548 308.92 391.716 309.001 261.195 309.001C130.63 309.001 24.8199 308.92 24.8199 308.82C24.8199 308.721 130.63 308.64 261.195 308.64C391.716 308.639 497.548 308.721 497.548 308.82Z" fill="#263238"/>
<path d="M413.196 43.0248H112.339C107.153 43.0248 102.948 47.2292 102.948 52.4153V264.917C102.948 270.104 107.153 274.309 112.339 274.309H227.808C227.808 274.309 235.153 297.022 212.383 308.774H320.352C320.352 308.774 294.645 299.96 301.255 274.309H413.197C418.383 274.309 422.587 270.104 422.587 264.918V52.416C422.587 47.2292 418.383 43.0248 413.196 43.0248Z" fill="#214F6F"/>
<path d="M266.785 251.96C270.878 257.809 264.473 264.215 258.622 260.123C258.429 259.987 258.254 259.812 258.119 259.619C254.037 253.771 260.435 247.374 266.282 251.457C266.474 251.592 266.65 251.767 266.785 251.96Z" fill="#263238"/>
<path d="M417.408 235.433H108.129V53.6411C108.129 49.9276 111.139 46.9179 114.852 46.9179H410.684C414.397 46.9179 417.407 49.9283 417.407 53.6411V235.433H417.408Z" fill="white"/>
<path d="M417.408 62.5824H108.129V53.2647C108.129 49.7599 110.97 46.9179 114.476 46.9179H412.197C415.075 46.9179 417.408 49.2509 417.408 52.129L417.408 62.5824Z" fill="#EBEBEB"/>
<path d="M117.978 57.2513C119.178 57.2513 120.151 56.2785 120.151 55.0784C120.151 53.8783 119.178 52.9055 117.978 52.9055C116.778 52.9055 115.805 53.8783 115.805 55.0784C115.805 56.2785 116.778 57.2513 117.978 57.2513Z" fill="#E0E0E0"/>
<path d="M124.455 57.2506C125.654 57.2506 126.627 56.2781 126.627 55.0784C126.627 53.8787 125.654 52.9062 124.455 52.9062C123.255 52.9062 122.283 53.8787 122.283 55.0784C122.283 56.2781 123.255 57.2506 124.455 57.2506Z" fill="#E0E0E0"/>
<path d="M130.614 57.2506C131.813 57.2506 132.786 56.2781 132.786 55.0784C132.786 53.8787 131.813 52.9062 130.614 52.9062C129.414 52.9062 128.441 53.8787 128.441 55.0784C128.441 56.2781 129.414 57.2506 130.614 57.2506Z" fill="#E0E0E0"/>
<path d="M359.408 274.339C359.408 274.439 316.596 274.519 263.797 274.519C210.979 274.519 168.176 274.439 168.176 274.339C168.176 274.239 210.979 274.159 263.797 274.159C316.595 274.159 359.408 274.239 359.408 274.339Z" fill="#263238"/>
<path d="M310.537 89.11L263.38 71.7399L216.681 88.8763C210.719 91.7648 205.489 93.4939 205.489 99.1904V127.553C205.489 147.25 210.521 166.769 220.873 184.001C229.584 198.502 243.073 213.432 263.838 222.923C282.927 216.563 297.175 199.608 305.886 185.108C316.238 167.875 321.269 148.357 321.269 128.66V103.154C321.269 95.0304 317.072 91.0638 310.537 89.11Z" fill="#214F6F"/>
<g opacity="0.8">
<path d="M310.537 89.11L263.38 71.7399L216.681 88.8763C210.719 91.7648 205.489 93.4939 205.489 99.1904V127.553C205.489 147.25 210.521 166.769 220.873 184.001C229.584 198.502 243.073 213.432 263.838 222.923C282.927 216.563 297.175 199.608 305.886 185.108C316.238 167.875 321.269 148.357 321.269 128.66V103.154C321.269 95.0304 317.072 91.0638 310.537 89.11Z" fill="white"/>
</g>
<path d="M292.177 160.91H283.512V113.747C283.512 102.646 274.48 93.6146 263.379 93.6146C252.278 93.6146 243.247 102.646 243.247 113.747V160.91H234.582V113.747C234.582 97.8682 247.501 84.9493 263.38 84.9493C279.259 84.9493 292.178 97.8682 292.178 113.747V160.91H292.177Z" fill="#214F6F"/>
<g opacity="0.4">
<path d="M292.177 160.91H283.512V113.747C283.512 102.646 274.48 93.6146 263.379 93.6146C252.278 93.6146 243.247 102.646 243.247 113.747V160.91H234.582V113.747C234.582 97.8682 247.501 84.9493 263.38 84.9493C279.259 84.9493 292.178 97.8682 292.178 113.747V160.91H292.177Z" fill="black"/>
</g>
<path d="M298.16 189.727H228.6C226.375 189.727 224.571 187.923 224.571 185.698V143.96C224.571 141.735 226.375 139.931 228.6 139.931H298.159C300.384 139.931 302.188 141.735 302.188 143.96V185.698C302.188 187.924 300.385 189.727 298.16 189.727Z" fill="#214F6F"/>
<g opacity="0.5">
<path d="M269.868 158.341C269.868 154.758 266.963 151.854 263.38 151.854C259.797 151.854 256.892 154.758 256.892 158.341C256.892 161.307 258.893 163.779 261.611 164.554V174.253H265.15V164.554C267.866 163.779 269.868 161.307 269.868 158.341Z" fill="black"/>
</g>
<path d="M228.71 185.005C228.532 185.005 228.387 176.7 228.387 166.458C228.387 156.213 228.532 147.91 228.71 147.91C228.888 147.91 229.032 156.213 229.032 166.458C229.032 176.701 228.888 185.005 228.71 185.005Z" fill="#FAFAFA"/>
<path d="M258.299 166.658C258.278 166.69 257.995 166.557 257.539 166.226C257.081 165.898 256.472 165.338 255.866 164.522C254.657 162.935 253.55 160.053 254.268 156.94C255.022 153.835 257.304 151.755 259.097 150.879C260.004 150.421 260.799 150.193 261.355 150.106C261.912 150.016 262.224 150.023 262.229 150.062C262.256 150.184 260.998 150.302 259.316 151.279C257.659 152.214 255.59 154.221 254.896 157.089C254.23 159.963 255.181 162.684 256.241 164.263C257.306 165.892 258.378 166.561 258.299 166.658Z" fill="#FAFAFA"/>
<path d="M321.678 211.923C321.678 211.923 321.864 211.663 322.239 211.169C322.333 211.044 322.439 210.906 322.555 210.753C322.662 210.593 322.758 210.404 322.874 210.206C323.1 209.806 323.384 209.353 323.586 208.78C323.697 208.499 323.83 208.207 323.942 207.889C324.032 207.563 324.126 207.221 324.226 206.861C324.341 206.505 324.402 206.119 324.463 205.715C324.515 205.311 324.625 204.897 324.638 204.454C324.828 202.694 324.712 200.64 324.359 198.372C323.656 193.823 321.727 188.466 318.775 182.643C315.827 176.808 311.767 170.532 306.779 163.99C301.789 157.446 295.791 150.686 288.893 143.899C281.99 137.121 274.173 130.31 265.412 123.856C261.029 120.635 256.405 117.51 251.531 114.567C246.662 111.617 241.528 108.867 236.113 106.483C230.698 104.129 224.985 102.077 218.958 101.105C215.955 100.642 212.857 100.419 209.81 100.88C208.291 101.114 206.797 101.528 205.391 102.16C204.007 102.835 202.734 103.735 201.682 104.872C200.671 106.047 199.918 107.412 199.403 108.864C198.937 110.334 198.689 111.864 198.631 113.401C198.515 116.481 199.091 119.535 199.891 122.467C201.542 128.346 204.23 133.79 207.186 138.904C210.171 144.013 213.488 148.803 216.974 153.305C220.453 157.814 224.085 162.052 227.784 166.041C235.195 174.012 242.85 181.003 250.372 187.091C257.901 193.171 265.298 198.362 272.368 202.575C279.436 206.785 286.133 210.104 292.265 212.369C298.386 214.64 303.927 215.946 308.526 216.127C310.818 216.218 312.872 216.1 314.599 215.711C315.038 215.648 315.436 215.491 315.831 215.394C316.225 215.288 316.602 215.183 316.942 215.028C317.288 214.888 317.617 214.756 317.931 214.629C318.234 214.481 318.51 214.316 318.776 214.174C319.322 213.908 319.74 213.574 320.111 213.304C320.294 213.166 320.471 213.05 320.618 212.925C320.757 212.792 320.882 212.672 320.995 212.564C321.441 212.137 321.678 211.923 321.678 211.923C321.678 211.923 321.46 212.154 321.018 212.593C320.907 212.703 320.783 212.826 320.647 212.962C320.501 213.088 320.325 213.208 320.143 213.349C319.773 213.626 319.356 213.965 318.811 214.239C318.544 214.384 318.268 214.553 317.965 214.705C317.651 214.834 317.32 214.971 316.973 215.114C316.632 215.272 316.254 215.381 315.858 215.49C315.462 215.591 315.06 215.751 314.62 215.818C312.885 216.22 310.821 216.351 308.518 216.269C303.898 216.11 298.334 214.819 292.193 212.561C286.04 210.309 279.323 207 272.235 202.797C265.146 198.592 257.729 193.406 250.182 187.328C242.642 181.242 234.968 174.249 227.539 166.271C223.83 162.279 220.189 158.035 216.699 153.519C213.203 149.009 209.876 144.21 206.879 139.085C203.912 133.955 201.21 128.491 199.544 122.567C198.736 119.61 198.153 116.526 198.269 113.391C198.328 111.826 198.58 110.262 199.06 108.752C199.589 107.259 200.366 105.849 201.412 104.636C202.499 103.459 203.814 102.53 205.237 101.837C206.682 101.188 208.209 100.766 209.756 100.527C212.857 100.058 215.986 100.287 219.014 100.754C225.087 101.736 230.822 103.798 236.255 106.162C241.686 108.556 246.832 111.315 251.708 114.275C256.591 117.227 261.22 120.361 265.608 123.591C274.378 130.063 282.198 136.891 289.102 143.688C295.999 150.494 301.996 157.273 306.981 163.837C311.963 170.4 316.015 176.697 318.953 182.555C321.897 188.399 323.812 193.78 324.497 198.353C324.841 200.632 324.946 202.697 324.744 204.467C324.728 204.912 324.615 205.329 324.56 205.735C324.496 206.14 324.431 206.528 324.313 206.885C324.21 207.246 324.113 207.59 324.02 207.917C323.904 208.236 323.768 208.529 323.654 208.811C323.444 209.384 323.154 209.837 322.921 210.235C322.802 210.433 322.704 210.622 322.594 210.78C322.475 210.932 322.367 211.069 322.27 211.191C321.883 211.68 321.678 211.923 321.678 211.923Z" fill="#214F6F"/>
<path d="M343.873 158.348C343.873 158.348 343.839 158.031 343.79 157.412C343.778 157.257 343.764 157.084 343.749 156.892C343.722 156.702 343.667 156.496 343.622 156.272C343.526 155.823 343.436 155.296 343.206 154.734C343.102 154.45 343.006 154.144 342.878 153.832C342.728 153.529 342.57 153.21 342.405 152.876C342.254 152.533 342.042 152.205 341.82 151.864C341.589 151.527 341.396 151.145 341.11 150.806C340.08 149.366 338.626 147.91 336.854 146.452C333.301 143.526 328.296 140.811 322.216 138.432C316.132 136.04 308.925 134.059 300.848 132.497C292.768 130.935 283.792 129.884 274.127 129.41C264.462 128.947 254.096 129.067 243.262 130.083C237.847 130.598 232.316 131.343 226.719 132.391C221.122 133.431 215.46 134.796 209.833 136.622C204.224 138.47 198.595 140.743 193.451 144.029C190.902 145.683 188.441 147.578 186.475 149.95C185.497 151.136 184.658 152.439 184.029 153.847C183.446 155.272 183.095 156.791 183.066 158.34C183.093 159.889 183.44 161.409 184.022 162.836C184.653 164.244 185.486 165.551 186.466 166.736C188.429 169.112 190.892 171.008 193.441 172.663C198.586 175.951 204.217 178.225 209.826 180.073C215.455 181.899 221.119 183.265 226.717 184.305C232.314 185.354 237.845 186.1 243.262 186.613C254.098 187.629 264.465 187.75 274.13 187.287C283.796 186.812 292.772 185.761 300.852 184.199C308.929 182.637 316.136 180.656 322.219 178.264C328.298 175.884 333.303 173.17 336.855 170.244C338.627 168.786 340.081 167.33 341.111 165.891C341.396 165.552 341.59 165.169 341.82 164.833C342.043 164.491 342.254 164.163 342.405 163.821C342.57 163.487 342.728 163.168 342.878 162.865C343.005 162.553 343.101 162.247 343.205 161.963C343.435 161.401 343.525 160.875 343.622 160.426C343.667 160.201 343.721 159.996 343.748 159.805C343.764 159.614 343.777 159.44 343.789 159.285C343.839 158.666 343.873 158.348 343.873 158.348C343.873 158.348 343.864 158.666 343.827 159.287C343.817 159.443 343.807 159.617 343.795 159.81C343.771 160.001 343.719 160.208 343.676 160.435C343.585 160.887 343.5 161.418 343.275 161.985C343.173 162.271 343.079 162.58 342.953 162.895C342.805 163.201 342.649 163.523 342.485 163.86C342.336 164.206 342.126 164.538 341.904 164.883C341.675 165.223 341.483 165.61 341.198 165.952C340.172 167.407 338.718 168.878 336.945 170.351C333.391 173.307 328.38 176.047 322.294 178.45C316.203 180.866 308.987 182.868 300.901 184.449C292.811 186.03 283.824 187.097 274.146 187.585C264.468 188.062 254.087 187.952 243.232 186.944C237.806 186.434 232.265 185.691 226.654 184.644C221.044 183.605 215.365 182.239 209.717 180.41C204.088 178.556 198.435 176.278 193.248 172.964C190.678 171.296 188.189 169.383 186.189 166.966C185.191 165.759 184.338 164.423 183.69 162.978C183.091 161.511 182.733 159.941 182.706 158.339C182.734 156.738 183.097 155.169 183.697 153.704C184.343 152.258 185.202 150.927 186.197 149.72C188.2 147.306 190.687 145.393 193.258 143.727C198.444 140.416 204.096 138.138 209.724 136.286C215.37 134.457 221.047 133.092 226.657 132.053C232.266 131.006 237.806 130.263 243.231 129.752C254.084 128.744 264.464 128.635 274.142 129.111C283.819 129.599 292.806 130.666 300.896 132.246C308.983 133.827 316.198 135.829 322.29 138.244C328.377 140.647 333.388 143.387 336.943 146.344C338.716 147.817 340.169 149.287 341.197 150.742C341.481 151.085 341.675 151.472 341.903 151.812C342.125 152.157 342.335 152.489 342.485 152.835C342.649 153.173 342.805 153.494 342.953 153.801C343.079 154.116 343.172 154.425 343.275 154.711C343.5 155.278 343.586 155.809 343.677 156.262C343.719 156.489 343.771 156.695 343.796 156.887C343.807 157.08 343.818 157.254 343.827 157.41C343.864 158.031 343.873 158.348 343.873 158.348Z" fill="#214F6F"/>
<path d="M314.466 91.6594C314.466 91.6594 314.194 91.4923 313.675 91.1518C313.545 91.0666 313.4 90.9709 313.239 90.8655C313.072 90.7705 312.876 90.6873 312.671 90.5854C312.257 90.3864 311.786 90.1354 311.2 89.9725C310.912 89.881 310.611 89.7693 310.286 89.6785C309.955 89.6113 309.607 89.5405 309.241 89.4671C308.878 89.3762 308.488 89.3422 308.082 89.3097C307.676 89.2854 307.255 89.2043 306.812 89.2216C305.042 89.1537 303.001 89.4109 300.764 89.9184C296.274 90.9328 291.062 93.2263 285.457 96.5737C279.839 99.917 273.857 104.399 267.675 109.825C261.489 115.254 255.16 121.704 248.864 129.052C242.577 136.406 236.321 144.674 230.486 153.858C227.574 158.453 224.775 163.281 222.175 168.346C219.567 173.407 217.177 178.718 215.172 184.285C213.197 189.849 211.544 195.691 210.989 201.769C210.734 204.797 210.724 207.903 211.395 210.911C211.732 212.41 212.249 213.872 212.975 215.231C213.744 216.565 214.73 217.773 215.937 218.745C217.178 219.672 218.591 220.33 220.075 220.744C221.573 221.107 223.117 221.25 224.655 221.202C227.736 221.105 230.743 220.321 233.612 219.32C239.364 217.268 244.61 214.212 249.508 210.911C254.399 207.581 258.949 203.942 263.2 200.154C267.459 196.373 271.437 192.458 275.162 188.492C282.603 180.551 289.051 172.431 294.606 164.509C300.153 156.579 304.823 148.841 308.538 141.498C312.252 134.157 315.101 127.247 316.938 120.974C318.782 114.711 319.704 109.093 319.566 104.492C319.5 102.199 319.241 100.158 318.734 98.4624C318.64 98.029 318.457 97.6421 318.332 97.2539C318.199 96.8684 318.069 96.5002 317.891 96.1709C317.728 95.8353 317.572 95.5157 317.425 95.2113C317.256 94.9194 317.072 94.656 316.912 94.4001C316.609 93.8739 316.248 93.4801 315.952 93.1285C315.802 92.9552 315.673 92.786 315.54 92.6481C315.397 92.5191 315.268 92.4019 315.153 92.2972C314.696 91.8812 314.466 91.6594 314.466 91.6594C314.466 91.6594 314.711 91.8618 315.18 92.2716C315.297 92.3749 315.429 92.49 315.573 92.6169C315.71 92.7535 315.842 92.9205 315.994 93.0932C316.296 93.4426 316.663 93.8351 316.974 94.3606C317.138 94.6164 317.325 94.8799 317.497 95.1725C317.648 95.4769 317.807 95.7979 317.973 96.1335C318.155 96.4635 318.289 96.8323 318.425 97.2192C318.553 97.6082 318.741 97.9978 318.838 98.4318C319.358 100.135 319.63 102.185 319.708 104.488C319.867 109.108 318.963 114.747 317.132 121.03C315.309 127.324 312.472 134.253 308.766 141.612C305.06 148.974 300.396 156.731 294.853 164.679C289.3 172.62 282.853 180.758 275.405 188.719C271.678 192.694 267.695 196.619 263.431 200.411C259.172 204.21 254.614 207.86 249.708 211.203C244.794 214.516 239.529 217.588 233.733 219.658C230.84 220.667 227.803 221.462 224.667 221.562C223.102 221.611 221.524 221.467 219.984 221.093C218.459 220.668 216.998 219.989 215.715 219.03C214.467 218.026 213.45 216.778 212.66 215.406C211.913 214.01 211.386 212.516 211.042 210.989C210.361 207.928 210.374 204.79 210.631 201.737C211.192 195.61 212.855 189.747 214.839 184.165C216.853 178.581 219.252 173.258 221.868 168.188C224.477 163.114 227.285 158.28 230.205 153.679C236.057 144.484 242.33 136.213 248.636 128.857C254.951 121.507 261.301 115.058 267.506 109.633C273.709 104.21 279.713 99.7339 285.354 96.3997C290.982 93.0613 296.218 90.7788 300.733 89.7811C302.983 89.2819 305.036 89.0344 306.815 89.1141C307.26 89.0989 307.684 89.1835 308.093 89.2105C308.502 89.2466 308.893 89.284 309.258 89.3776C309.625 89.4553 309.975 89.5288 310.308 89.5995C310.633 89.6931 310.936 89.8089 311.224 89.9032C311.811 90.0723 312.283 90.3309 312.696 90.5355C312.901 90.6409 313.096 90.7261 313.263 90.8246C313.422 90.9334 313.566 91.0319 313.695 91.12C314.209 91.4722 314.466 91.6594 314.466 91.6594Z" fill="#214F6F"/>
<path d="M182.01 191.569C183.178 192.737 183.178 194.63 182.01 195.797C180.843 196.964 178.95 196.964 177.782 195.797C176.615 194.629 176.615 192.736 177.782 191.569C178.95 190.402 180.843 190.402 182.01 191.569Z" fill="#214F6F"/>
<path d="M350.676 98.9359C350.676 100.587 349.338 101.926 347.687 101.926C346.035 101.926 344.697 100.587 344.697 98.9359C344.697 97.2851 346.035 95.9469 347.687 95.9469C349.338 95.9469 350.676 97.2844 350.676 98.9359Z" fill="#214F6F"/>
<path d="M200.889 201.399C200.889 201.818 200.548 202.159 200.129 202.159C199.709 202.159 199.369 201.818 199.369 201.399C199.369 200.979 199.709 200.639 200.129 200.639C200.548 200.639 200.889 200.979 200.889 201.399Z" fill="#214F6F"/>
<path d="M217.104 117.631C217.104 118.05 216.763 118.391 216.344 118.391C215.924 118.391 215.584 118.05 215.584 117.631C215.584 117.211 215.924 116.871 216.344 116.871C216.764 116.871 217.104 117.211 217.104 117.631Z" fill="#214F6F"/>
<path d="M335.659 158.348C335.659 158.768 335.319 159.108 334.899 159.108C334.48 159.108 334.14 158.768 334.14 158.348C334.14 157.929 334.48 157.588 334.899 157.588C335.32 157.588 335.659 157.929 335.659 158.348Z" fill="#214F6F"/>
<path d="M346.217 122.93C346.217 123.35 345.877 123.69 345.458 123.69C345.038 123.69 344.698 123.35 344.698 122.93C344.698 122.511 345.038 122.17 345.458 122.17C345.877 122.17 346.217 122.511 346.217 122.93Z" fill="#214F6F"/>
<path d="M468.361 236.359C471.693 234.267 475.511 232.953 479.425 232.552C481.232 232.366 483.208 232.419 484.658 233.514C484.966 233.746 485.266 234.09 485.197 234.469C485.146 234.748 484.91 234.951 484.685 235.123C480.183 238.557 473.374 238.991 468.361 236.359Z" fill="#214F6F"/>
<path d="M468.645 236.047C471.149 234.092 473.669 232.124 475.79 229.76C477.912 227.395 479.636 224.587 480.271 221.474C480.463 220.53 480.522 219.451 479.916 218.702C474.221 223.15 469.746 228.903 468.645 236.047Z" fill="#214F6F"/>
<path d="M468.42 236.316C468.849 233.201 469.003 229.997 468.288 226.934C467.572 223.871 465.906 220.94 463.29 219.192C462.306 221.493 462.729 224.144 463.422 226.548C464.494 230.264 466.174 233.802 468.377 236.981" fill="#214F6F"/>
<path d="M462.836 246.322C466.226 246.734 469.178 248.52 471.709 250.813C474.24 253.105 476.039 256.193 476.784 259.525C473.459 259.32 470.639 256.975 468.593 254.346C466.547 251.717 465.13 248.832 462.883 246.373" fill="#214F6F"/>
<path d="M461.623 247.922C464.354 241.197 463.364 233.094 459.097 227.223C457.165 234.092 457.875 241.851 461.623 247.922Z" fill="#214F6F"/>
<path d="M454.246 256.707C457.322 256.516 460.45 257.248 463.12 258.786C465.792 260.324 467.996 262.66 469.376 265.416C469.563 265.791 469.728 266.267 469.477 266.603C469.259 266.895 468.838 266.922 468.474 266.898C465.492 266.705 462.85 264.911 460.669 262.868C458.488 260.825 456.588 258.465 454.178 256.698" fill="#214F6F"/>
<path d="M454.481 256.228C456.068 251.151 456.166 245.618 454.762 240.488C454.207 238.462 453.276 236.328 451.403 235.378C451.243 235.297 451.057 235.225 450.889 235.288C450.73 235.348 450.638 235.511 450.565 235.665C449.898 237.057 449.704 238.638 449.773 240.18C449.842 241.723 450.162 243.241 450.481 244.752C451.071 247.546 451.385 250.549 452.917 252.959C453.281 253.531 453.602 254.148 453.891 254.761C454.181 255.374 454.183 255.589 454.449 256.076" fill="#214F6F"/>
<path d="M434.952 259.138C436.399 253.635 434.863 246.963 431.395 242.45C431.14 242.118 430.801 241.762 430.384 241.801C429.745 241.86 429.58 242.711 429.608 243.352C429.859 248.976 431.735 254.519 434.952 259.138Z" fill="#214F6F"/>
<path d="M433.191 260.342C426.505 262.082 418.834 260.39 413.272 256.291C416.569 254.62 420.453 254.143 424.055 254.967C427.657 255.791 430.949 257.405 433.191 260.342Z" fill="#214F6F"/>
<path d="M431.706 256.677C427.961 250.571 420.782 246.586 413.628 246.223C414.452 249.133 416.843 251.394 419.541 252.761C422.239 254.127 425.25 254.722 428.219 255.299C429.374 255.523 430.957 255.77 431.706 256.677Z" fill="#214F6F"/>
<path d="M434.58 238.896C433.566 235.421 432.546 231.917 432.268 228.308C431.989 224.7 432.504 220.933 434.376 217.836C437.874 224.605 438.228 232.514 434.685 239.258" fill="#214F6F"/>
<path d="M422.802 232.943C418.712 225.508 410.365 219.569 401.92 218.737C405.178 226.848 414.063 233.117 422.802 232.943Z" fill="#214F6F"/>
<path d="M425.376 234.4C419.275 235.329 414.077 239.226 408.376 241.588C407.157 242.093 405.841 242.495 404.533 242.324C403.225 242.153 401.933 241.275 401.64 239.988C401.396 238.919 401.882 237.785 402.649 237.001C403.416 236.219 404.429 235.729 405.441 235.308C411.65 232.723 418.309 232.658 424.85 234.226" fill="#214F6F"/>
<path d="M428.906 238.679C427.525 239.074 427.053 239.789 425.96 240.72C422.249 243.881 417.798 246.167 413.069 247.343C412.576 247.465 411.93 247.514 411.686 247.069C411.473 246.68 411.743 246.21 412.02 245.864C414.002 243.384 416.829 241.688 419.804 240.58C422.779 239.472 425.356 238.136 428.907 238.423" fill="#214F6F"/>
<path d="M432.89 212.835C427.929 217.466 420.942 219.844 414.186 219.199C413.879 219.17 413.544 219.12 413.335 218.893C412.864 218.381 413.429 217.59 413.978 217.162C419.476 212.876 426.137 211.099 432.89 212.835Z" fill="#214F6F"/>
<path d="M428.167 211.107C421.61 206.19 412.617 204.707 404.828 207.256C407.767 210.153 411.845 211.711 415.949 212.139C420.054 212.566 424.164 212.111 428.167 211.107Z" fill="#214F6F"/>
<path d="M430.044 199.231C430.584 193.742 430.233 189.409 430.615 183.895C430.645 183.455 430.74 182.924 431.152 182.765C431.726 182.544 432.205 183.25 432.392 183.835C434.027 188.919 433.134 194.749 430.052 199.11" fill="#214F6F"/>
<path d="M430.439 199.837C426.719 197.537 423.928 194.532 421.347 191C419.551 188.543 418.037 185.599 418.445 182.583C420.967 182.532 423.364 183.924 425.004 185.84C426.644 187.756 427.619 190.152 428.347 192.566C429.076 194.983 429.585 197.464 430.439 199.837Z" fill="#214F6F"/>
<path d="M421.506 197.356C413.342 194.337 405.724 189.845 399.131 184.162C401.803 183.085 404.864 183.729 407.536 184.808C413.641 187.273 418.629 191.432 421.623 197.296" fill="#214F6F"/>
<path d="M427.927 202.84C423.797 203.292 419.601 203.586 415.503 202.901C411.475 202.227 407.668 200.631 403.904 199.046C403.592 198.915 403.253 198.757 403.116 198.448C402.967 198.112 403.125 197.702 403.399 197.456C403.671 197.209 404.034 197.091 404.388 196.992C408.48 195.847 412.897 196.383 416.923 197.741C420.949 199.099 424.25 200.712 427.927 202.84Z" fill="#214F6F"/>
<path d="M451.513 213.023C454.331 207.334 454.149 200.696 451.714 194.834C450 197.445 449.79 200.77 450.104 203.877C450.417 206.985 451.363 210.183 451.425 213.306" fill="#214F6F"/>
<path d="M462.772 207.345C469.808 207.21 476.846 210.209 481.623 215.376C478.112 215.928 474.495 215.022 471.3 213.462C468.106 211.902 465.268 209.714 462.454 207.541" fill="#214F6F"/>
<path d="M470.341 204.813C473.783 204.534 477.094 204.108 480.404 205.122C483.714 206.136 486.726 208.438 488.075 211.626C484.856 211.989 481.591 211.182 478.64 209.844C475.689 208.508 473.006 206.656 470.341 204.813Z" fill="#214F6F"/>
<path d="M459.134 204.929C462.23 202.9 465.41 200.834 469.016 199.993C472.621 199.153 476.8 199.774 479.314 202.491C476.395 204.204 472.854 204.406 469.47 204.404C466.086 204.401 461.938 204.363 458.747 205.492" fill="#214F6F"/>
<path d="M459.115 205.093C464.409 199.895 466.416 190.556 464.286 183.449C460.125 189.772 458.261 197.572 459.115 205.093Z" fill="#214F6F"/>
<path d="M444.558 190.364C443.56 188.043 442.858 185.607 441.962 183.245C441.066 180.882 439.953 178.557 438.26 176.681C436.568 174.805 434.227 173.408 431.704 173.283C433.283 180.436 438.035 186.827 444.429 190.401" fill="#214F6F"/>
<path d="M447.193 193.433C448.845 191.159 450.754 188.072 452.995 186.375C455.236 184.678 458.153 183.65 460.887 184.302C458.106 189.273 452.851 192.777 447.193 193.433Z" fill="#214F6F"/>
<path d="M446.666 190.554C447.749 187.802 448.84 185.021 449.278 182.096C449.716 179.172 449.449 176.048 447.954 173.497C445.049 178.99 444.113 184.886 446.518 190.616" fill="#214F6F"/>
<path d="M444.532 173.496C442.886 168.051 437.9 164.041 432.517 162.202C431.838 161.97 431.119 161.777 430.41 161.886C429.7 161.996 429.006 162.481 428.857 163.182C428.661 164.109 429.426 164.938 430.145 165.554C434.338 169.138 439.265 171.859 444.532 173.496Z" fill="#214F6F"/>
<path d="M444.472 169.043C444.263 165.532 444.044 161.97 442.902 158.644C441.76 155.317 439.559 152.196 436.357 150.74C435.812 154.287 437.377 157.814 439.263 160.866C441.15 163.917 443.424 166.797 444.558 170.201" fill="#214F6F"/>
<path d="M444.558 171.46C445.919 167.491 446.059 162.451 448.436 158.993C450.097 156.576 452.757 154.93 454.188 152.37C455.139 154.761 454.848 157.516 453.853 159.889C452.859 162.262 451.216 164.304 449.457 166.182C447.699 168.061 446.193 169.474 444.558 171.46Z" fill="#214F6F"/>
<path d="M444.532 288.33C444.638 288.33 444.73 261.856 444.737 229.207C444.744 196.546 444.664 170.077 444.558 170.077C444.452 170.077 444.361 196.545 444.354 229.207C444.347 261.856 444.427 288.33 444.532 288.33Z" fill="#214F6F"/>
<path d="M421.397 209.028C421.389 209.054 421.744 209.186 422.393 209.402C423.107 209.643 424.028 209.954 425.132 210.326C427.441 211.113 430.615 212.252 434.059 213.664C437.468 215.127 440.684 216.314 442.515 217.901C443.43 218.684 443.955 219.532 444.214 220.149C444.477 220.771 444.524 221.151 444.559 221.144C444.572 221.142 444.568 221.047 444.548 220.866C444.517 220.688 444.472 220.421 444.354 220.095C444.131 219.441 443.62 218.535 442.695 217.698C441.775 216.859 440.494 216.105 439.026 215.419C437.558 214.734 435.931 214.019 434.204 213.31C430.75 211.894 427.552 210.791 425.216 210.069C424.05 209.705 423.097 209.437 422.436 209.259C421.773 209.086 421.405 209.003 421.397 209.028Z" fill="#214F6F"/>
<path d="M413.814 190.401C413.805 190.411 413.901 190.513 414.093 190.699C414.318 190.911 414.599 191.175 414.942 191.497C415.731 192.214 416.804 193.19 418.113 194.378C420.852 196.817 424.565 200.123 428.669 203.777C432.789 207.445 436.35 210.949 438.818 213.588C440.053 214.906 441.027 215.997 441.69 216.759C442 217.112 442.254 217.402 442.457 217.635C442.634 217.834 442.733 217.934 442.743 217.926C442.754 217.917 442.675 217.801 442.517 217.587C442.356 217.374 442.123 217.057 441.804 216.664C441.174 215.871 440.229 214.75 439.016 213.405C436.593 210.712 433.051 207.167 428.923 203.491C424.788 199.832 421.026 196.545 418.291 194.175C416.95 193.023 415.849 192.079 415.04 191.385C414.677 191.084 414.38 190.839 414.143 190.641C413.936 190.475 413.822 190.391 413.814 190.401Z" fill="#214F6F"/>
<path d="M433.117 207.506C433.225 207.459 432.364 205.471 431.506 202.957C430.64 200.444 430.233 198.323 430.124 198.341C430.024 198.352 430.267 200.535 431.145 203.08C431.576 204.351 432.051 205.469 432.426 206.262C432.801 207.055 433.071 207.527 433.117 207.506Z" fill="#214F6F"/>
<path d="M444.508 223.53C444.529 223.545 444.755 223.282 445.143 222.793C445.573 222.24 446.119 221.541 446.769 220.707C448.136 218.941 450.025 216.504 452.141 213.836C454.26 211.167 456.206 208.774 457.615 207.043C458.28 206.22 458.837 205.53 459.277 204.985C459.665 204.496 459.871 204.217 459.851 204.2C459.83 204.183 459.587 204.429 459.163 204.889C458.739 205.349 458.139 206.025 457.407 206.869C455.943 208.557 453.962 210.927 451.84 213.598C449.721 216.269 447.864 218.736 446.552 220.545C445.895 221.449 445.373 222.188 445.022 222.705C444.671 223.221 444.486 223.514 444.508 223.53Z" fill="#214F6F"/>
<path d="M449.58 217.018C449.643 217.085 450.996 215.479 451.705 213.039C452.229 211.32 452.252 209.747 452.187 209.028L452.018 209.042C452.094 209.349 452.149 209.51 452.18 209.505C452.21 209.5 452.211 209.33 452.186 209.014L452.017 209.028C451.956 209.742 451.847 211.26 451.338 212.93C450.654 215.295 449.478 216.953 449.58 217.018Z" fill="#214F6F"/>
<path d="M456.129 208.78C456.179 208.833 456.614 208.284 457.613 207.918C458.605 207.535 460.096 207.45 461.733 207.59C463.371 207.71 464.834 208.003 465.881 208.26C466.928 208.519 467.569 208.723 467.588 208.67C467.606 208.625 466.996 208.329 465.954 207.999C464.913 207.672 463.43 207.332 461.762 207.209C460.107 207.066 458.537 207.194 457.513 207.667C456.473 208.127 456.095 208.77 456.129 208.78Z" fill="#214F6F"/>
<path d="M457.682 206.783C457.711 206.843 458.546 206.437 459.955 205.955C461.361 205.471 463.365 204.964 465.627 204.788C467.89 204.619 469.948 204.817 471.41 205.082C472.876 205.344 473.763 205.618 473.783 205.555C473.791 205.53 473.577 205.44 473.181 205.299C472.786 205.152 472.199 204.983 471.464 204.817C469.996 204.48 467.902 204.235 465.598 204.406C463.296 204.585 461.264 205.146 459.863 205.701C459.162 205.977 458.607 206.232 458.239 206.437C457.868 206.638 457.67 206.76 457.682 206.783Z" fill="#214F6F"/>
<path d="M444.558 198.34C444.661 198.367 445.403 195.788 446.216 192.582C447.029 189.376 447.606 186.756 447.503 186.729C447.4 186.703 446.659 189.281 445.845 192.488C445.033 195.694 444.456 198.315 444.558 198.34Z" fill="#214F6F"/>
<path d="M444.453 198.34C444.567 198.377 445.044 196.655 446.29 194.893C447.503 193.094 449.051 192.191 448.995 192.103C448.975 192.062 448.548 192.22 447.952 192.641C447.354 193.057 446.615 193.762 445.978 194.673C444.684 196.507 444.361 198.334 444.453 198.34Z" fill="#214F6F"/>
<path d="M444.532 274.218C444.574 274.224 444.651 273.581 444.949 272.457C445.244 271.333 445.799 269.739 446.719 267.873C448.548 264.136 451.876 259.397 456.105 254.65C458.2 252.255 460.234 249.997 461.96 247.834C463.688 245.674 465.109 243.617 466.146 241.797C467.187 239.978 467.864 238.417 468.259 237.316C468.453 236.764 468.596 236.333 468.675 236.035C468.759 235.739 468.796 235.582 468.783 235.578C468.749 235.567 468.557 236.184 468.121 237.263C467.685 238.342 466.975 239.873 465.913 241.661C464.854 243.45 463.421 245.477 461.686 247.614C459.953 249.754 457.918 252 455.818 254.399C451.578 259.158 448.257 263.957 446.476 267.756C445.58 269.653 445.059 271.278 444.807 272.422C444.684 272.995 444.601 273.442 444.572 273.749C444.533 274.055 444.519 274.215 444.532 274.218Z" fill="#214F6F"/>
<path d="M423.627 250.605C423.614 250.633 424.014 250.836 424.722 251.22C425.424 251.615 426.422 252.223 427.564 253.099C428.707 253.974 429.984 255.122 431.296 256.503C432.606 257.887 433.956 259.494 435.333 261.215C438.086 264.67 440.662 267.727 442.204 270.168C442.987 271.378 443.556 272.399 443.929 273.114C444.305 273.829 444.504 274.23 444.532 274.218C444.544 274.212 444.508 274.105 444.431 273.907C444.349 273.71 444.239 273.414 444.063 273.049C443.729 272.309 443.193 271.261 442.433 270.024C440.935 267.525 438.38 264.426 435.631 260.976C434.251 259.251 432.885 257.641 431.551 256.259C430.214 254.88 428.902 253.739 427.726 252.882C426.55 252.025 425.521 251.446 424.791 251.089C424.429 250.906 424.132 250.795 423.937 250.71C423.738 250.628 423.632 250.592 423.627 250.605Z" fill="#214F6F"/>
<path d="M423.217 258.265C423.212 258.32 424.102 258.428 425.533 258.601C426.959 258.785 428.945 259.024 431.025 259.682C433.098 260.358 434.821 261.386 435.943 262.263C437.077 263.139 437.611 263.864 437.664 263.822C437.682 263.808 437.572 263.611 437.321 263.289C437.073 262.964 436.668 262.531 436.114 262.054C435.01 261.102 433.27 260.012 431.143 259.318C429.013 258.644 426.999 258.448 425.56 258.332C424.115 258.227 423.221 258.215 423.217 258.265Z" fill="#214F6F"/>
<path d="M436.988 262.981C437.109 262.912 436.065 261.318 435.255 259.174C434.495 257.01 434.318 255.113 434.181 255.134C434.132 255.14 434.134 255.615 434.219 256.377C434.31 257.136 434.493 258.192 434.895 259.304C435.3 260.414 435.83 261.342 436.238 261.988C436.652 262.634 436.945 263.007 436.988 262.981Z" fill="#214F6F"/>
<path d="M416.856 230.039C416.851 230.051 416.979 230.119 417.226 230.236C417.513 230.366 417.873 230.53 418.314 230.73C418.791 230.935 419.37 231.194 420.021 231.538C420.676 231.876 421.439 232.223 422.234 232.701C422.637 232.93 423.059 233.17 423.497 233.419C423.935 233.671 424.369 233.97 424.83 234.259C425.761 234.824 426.694 235.519 427.69 236.23C429.639 237.709 431.687 239.459 433.66 241.48C435.614 243.522 437.294 245.63 438.705 247.628C439.381 248.648 440.045 249.604 440.577 250.555C440.85 251.026 441.134 251.469 441.371 251.915C441.605 252.362 441.83 252.791 442.046 253.203C442.496 254.013 442.817 254.788 443.132 255.454C443.453 256.117 443.692 256.704 443.881 257.187C444.066 257.635 444.217 258 444.338 258.292C444.447 258.543 444.51 258.673 444.522 258.669C444.535 258.665 444.496 258.526 444.411 258.266C444.307 257.967 444.178 257.592 444.02 257.134C443.853 256.64 443.632 256.042 443.328 255.369C443.031 254.692 442.725 253.905 442.288 253.081C442.078 252.664 441.859 252.228 441.63 251.775C441.399 251.322 441.119 250.872 440.851 250.395C440.326 249.431 439.668 248.462 438.995 247.428C437.589 245.404 435.904 243.272 433.934 241.215C431.946 239.177 429.874 237.42 427.899 235.946C426.89 235.238 425.944 234.548 424.999 233.99C424.531 233.705 424.091 233.411 423.646 233.164C423.201 232.92 422.772 232.687 422.363 232.463C421.555 231.998 420.778 231.666 420.113 231.345C419.449 231.018 418.859 230.777 418.372 230.593C417.918 230.419 417.549 230.277 417.254 230.164C416.998 230.07 416.86 230.026 416.856 230.039Z" fill="#214F6F"/>
<path d="M433.401 241.125C433.435 241.119 433.251 240.476 432.492 239.77C431.751 239.064 430.399 238.411 428.826 238.364C427.258 238.322 425.897 238.761 424.968 239.118C424.034 239.484 423.491 239.782 423.509 239.826C423.531 239.879 424.113 239.67 425.057 239.373C425.998 239.086 427.327 238.706 428.814 238.747C430.294 238.792 431.574 239.363 432.315 239.976C433.073 240.585 433.34 241.161 433.401 241.125Z" fill="#214F6F"/>
<path d="M435.874 243.676C435.979 243.618 435.047 242.25 434.834 240.29C434.589 238.333 435.182 236.787 435.067 236.755C435.025 236.737 434.816 237.097 434.637 237.741C434.456 238.382 434.337 239.315 434.454 240.334C434.574 241.353 434.905 242.233 435.229 242.815C435.552 243.4 435.838 243.703 435.874 243.676Z" fill="#214F6F"/>
<path d="M462.817 278.011C462.246 288.128 459.197 298.418 454.508 308.82H434.115C429.643 298.521 426.805 288.247 426.301 278.011H462.817Z" fill="#263238"/>
<path d="M429.606 294.382C429.606 294.488 436.32 294.574 444.601 294.574C452.884 294.574 459.597 294.488 459.597 294.382C459.597 294.277 452.884 294.191 444.601 294.191C436.32 294.191 429.606 294.276 429.606 294.382Z" fill="#FAFAFA"/>
<path d="M430.061 298.047C430.061 298.153 436.356 298.239 444.119 298.239C451.884 298.239 458.177 298.153 458.177 298.047C458.177 297.942 451.884 297.856 444.119 297.856C436.356 297.856 430.061 297.942 430.061 298.047Z" fill="#FAFAFA"/>
<path d="M454.179 284.654C454.073 284.654 453.988 286.757 453.988 289.35C453.988 291.945 454.073 294.048 454.179 294.048C454.284 294.048 454.37 291.945 454.37 289.35C454.37 286.756 454.284 284.654 454.179 284.654Z" fill="#FAFAFA"/>
<path d="M443.253 284.654C443.147 284.654 443.061 286.831 443.061 289.518C443.061 292.205 443.147 294.382 443.253 294.382C443.358 294.382 443.444 292.205 443.444 289.518C443.444 286.831 443.358 284.654 443.253 284.654Z" fill="#FAFAFA"/>
<path d="M432.996 284.571C432.89 284.571 432.804 286.792 432.804 289.533C432.804 292.273 432.89 294.494 432.996 294.494C433.101 294.494 433.187 292.273 433.187 289.533C433.187 286.792 433.102 284.571 432.996 284.571Z" fill="#FAFAFA"/>
<path d="M426.948 284.654C426.948 284.759 434.823 284.845 444.536 284.845C454.251 284.845 462.124 284.759 462.124 284.654C462.124 284.548 454.25 284.462 444.536 284.462C434.823 284.462 426.948 284.548 426.948 284.654Z" fill="#FAFAFA"/>
<path d="M75.3154 286.21L72.0214 303.066L65.572 315.648C65.1074 316.555 65.5075 317.665 66.4435 318.067C66.9677 318.293 67.5639 318.253 68.0506 317.955C71.1492 316.061 82.5136 309.037 82.6855 307.789C82.8845 306.345 87.3406 290.239 87.3406 290.239L75.3154 286.21Z" fill="#214F6F"/>
<path d="M66.4435 318.067L82.933 306.658L82.777 307.369C82.6418 307.983 82.2965 308.531 81.796 308.912C80.4564 309.93 76.6951 312.661 68.1012 317.967C67.6013 318.276 66.9767 318.314 66.4435 318.067Z" fill="#263238"/>
<path d="M80.6596 301.698C80.1757 301.896 79.899 302.502 80.0772 302.994C80.2554 303.485 80.869 303.772 81.3564 303.582C81.8438 303.392 82.1981 302.675 81.9658 302.207C81.7336 301.738 80.9952 301.441 80.5674 301.742" fill="#EBEBEB"/>
<path d="M71.8855 311.578C71.7801 311.604 71.595 310.643 70.7006 309.951C69.827 309.233 68.8487 309.267 68.8501 309.158C68.8445 309.114 69.0858 309.03 69.49 309.06C69.8915 309.088 70.4468 309.268 70.9356 309.656C71.4223 310.046 71.7212 310.547 71.8376 310.932C71.9583 311.321 71.9299 311.574 71.8855 311.578Z" fill="#263238"/>
<path d="M70.1979 313.563C70.1022 313.618 69.6834 312.954 68.8702 312.516C68.0666 312.059 67.2824 312.056 67.2783 311.945C67.2484 311.849 68.1338 311.67 69.0532 312.186C69.9767 312.691 70.295 313.537 70.1979 313.563Z" fill="#263238"/>
<path d="M74.7413 309.186C74.6456 309.249 74.0057 308.225 72.8013 307.432C71.6088 306.62 70.419 306.419 70.4398 306.306C70.4322 306.21 71.7301 306.25 73.0114 307.118C74.3003 307.972 74.8321 309.157 74.7413 309.186Z" fill="#263238"/>
<path d="M76.1703 304.146C76.1037 304.237 75.2613 303.646 74.0653 303.338C72.8728 303.014 71.8494 303.11 71.8362 302.998C71.8078 302.906 72.8797 302.628 74.1617 302.974C75.4471 303.308 76.241 304.08 76.1703 304.146Z" fill="#263238"/>
<path d="M77.2629 299.223C77.1894 299.309 76.3803 298.545 75.0935 298.323C73.8115 298.074 72.7847 298.5 72.7466 298.394C72.7272 298.353 72.956 298.183 73.3921 298.044C73.8247 297.904 74.4702 297.826 75.1614 297.952C75.8527 298.081 76.4282 298.382 76.7832 298.666C77.1416 298.95 77.2955 299.191 77.2629 299.223Z" fill="#263238"/>
<path d="M75.3286 297.392C75.3071 297.388 75.3188 297.154 75.445 296.753C75.5712 296.355 75.8201 295.782 76.3138 295.201C76.5634 294.929 76.84 294.57 77.3565 294.452C77.6138 294.391 77.9514 294.511 78.1019 294.776C78.2516 295.036 78.2537 295.325 78.201 295.592C77.95 296.653 76.8102 297.482 75.5788 297.373C74.3475 297.241 73.4087 296.315 73.1335 295.291C73.0815 295.031 73.0731 294.723 73.2659 294.468C73.4565 294.21 73.8226 294.171 74.0535 294.265C74.5354 294.448 74.7871 294.804 75.0325 295.081C75.5088 295.673 75.7591 296.24 75.8915 296.636C76.024 297.034 76.0434 297.267 76.0219 297.272C75.9532 297.303 75.7785 296.355 74.8287 295.254C74.5853 294.995 74.3087 294.674 73.9578 294.563C73.7866 294.507 73.6209 294.543 73.528 294.671C73.4344 294.792 73.4233 295.011 73.4725 295.217C73.7103 296.058 74.57 296.902 75.6128 296.997C76.6493 297.1 77.6505 296.369 77.8606 295.517C77.9084 295.311 77.8987 295.091 77.8155 294.945C77.733 294.801 77.5756 294.731 77.4072 294.76C77.0522 294.82 76.7561 295.124 76.5121 295.378C75.5359 296.455 75.3993 297.425 75.3286 297.392Z" fill="#263238"/>
<path d="M131.497 287.521L134.304 304.466L140.389 317.227C140.828 318.147 140.396 319.245 139.448 319.62C138.918 319.831 138.323 319.774 137.845 319.462C134.802 317.479 123.645 310.131 123.509 308.879C123.352 307.43 119.361 291.203 119.361 291.203L131.497 287.521Z" fill="#214F6F"/>
<path d="M139.448 319.62L123.293 307.741L123.429 308.456C123.546 309.074 123.876 309.632 124.365 310.027C125.675 311.083 129.356 313.921 137.794 319.472C138.285 319.795 138.908 319.851 139.448 319.62Z" fill="#263238"/>
<path d="M125.709 302.849C126.187 303.061 126.446 303.674 126.254 304.16C126.061 304.647 125.44 304.916 124.958 304.712C124.476 304.509 124.143 303.782 124.388 303.32C124.634 302.858 125.381 302.582 125.8 302.896" fill="#EBEBEB"/>
<path d="M134.195 312.978C134.299 313.006 134.513 312.051 135.427 311.385C136.32 310.692 137.298 310.754 137.299 310.646C137.306 310.602 137.068 310.511 136.662 310.53C136.26 310.546 135.7 310.71 135.2 311.084C134.702 311.46 134.389 311.952 134.261 312.334C134.13 312.718 134.151 312.971 134.195 312.978Z" fill="#263238"/>
<path d="M135.825 315.01C135.92 315.067 136.357 314.416 137.183 314.001C138 313.567 138.784 313.587 138.791 313.477C138.823 313.381 137.943 313.177 137.01 313.666C136.071 314.145 135.729 314.981 135.825 315.01Z" fill="#263238"/>
<path d="M131.41 310.504C131.504 310.57 132.172 309.565 133.399 308.807C134.615 308.029 135.81 307.862 135.792 307.749C135.802 307.654 134.505 307.657 133.198 308.487C131.885 309.304 131.319 310.473 131.41 310.504Z" fill="#263238"/>
<path d="M130.125 305.425C130.19 305.518 131.048 304.952 132.253 304.678C133.455 304.389 134.475 304.515 134.491 304.403C134.522 304.312 133.459 304.003 132.167 304.312C130.874 304.608 130.058 305.357 130.125 305.425Z" fill="#263238"/>
<path d="M129.176 300.472C129.246 300.559 130.077 299.82 131.369 299.636C132.658 299.423 133.673 299.879 133.714 299.774C133.734 299.734 133.51 299.557 133.078 299.406C132.65 299.254 132.007 299.157 131.312 299.263C130.617 299.371 130.033 299.656 129.67 299.929C129.305 300.204 129.144 300.439 129.176 300.472Z" fill="#263238"/>
<path d="M131.161 298.698C131.183 298.695 131.178 298.461 131.064 298.056C130.949 297.654 130.716 297.075 130.24 296.48C129.999 296.201 129.732 295.834 129.219 295.7C128.964 295.633 128.623 295.742 128.465 296.003C128.308 296.259 128.297 296.547 128.342 296.816C128.563 297.884 129.678 298.746 130.912 298.672C132.147 298.576 133.112 297.678 133.417 296.662C133.476 296.403 133.493 296.096 133.308 295.835C133.125 295.571 132.76 295.522 132.526 295.609C132.04 295.779 131.778 296.127 131.524 296.397C131.031 296.975 130.764 297.534 130.62 297.926C130.476 298.321 130.451 298.553 130.471 298.558C130.539 298.591 130.741 297.649 131.722 296.575C131.973 296.323 132.258 296.01 132.613 295.909C132.786 295.859 132.95 295.899 133.04 296.03C133.13 296.154 133.135 296.372 133.079 296.578C132.817 297.411 131.933 298.23 130.888 298.295C129.849 298.368 128.869 297.609 128.684 296.751C128.642 296.544 128.658 296.324 128.746 296.18C128.832 296.038 128.992 295.974 129.16 296.007C129.513 296.077 129.8 296.39 130.036 296.651C130.981 297.756 131.09 298.73 131.161 298.698Z" fill="#263238"/>
<path d="M76.9253 175.847C75.3598 173.463 68.8639 302.989 69.2993 303.732L86.4101 303.978L95.7243 234.768L100.789 181.849L108.956 231.573L118.976 304.447L137.676 304.716L126.118 172.621L101.902 158.744L76.9253 175.847Z" fill="#263238"/>
<path d="M93.2637 88.8313C93.2637 88.8313 88.0186 89.743 86.0191 91.4909C84.0195 93.2388 81.9873 97.2573 81.9873 97.2573L72.0179 104.024L80.7941 138.999L73.4378 187.332L74.907 191.499L129.899 190.58L130.947 186.787L125.262 142.798L127.759 113.316L130.055 101.478L120.096 97.0161C120.096 97.0161 124.658 95.601 124.867 94.814C125.075 94.0271 114.59 88.6441 114.59 88.6441C114.59 88.6441 98.0456 85.8402 93.2637 88.8313Z" fill="#214F6F"/>
<g opacity="0.3">
<path d="M76.5814 164.629C82.784 172.668 91.26 178.594 99.598 184.39C101.357 185.612 103.183 186.864 105.285 187.278C108.295 187.871 111.6 186.484 113.284 183.919C114.49 182.081 114.9 179.764 116.331 178.094C117.299 176.966 118.653 176.235 119.691 175.171C120.589 174.251 121.223 173.111 121.846 171.986C122.983 169.933 124.119 167.881 125.256 165.829C121.111 165.811 117.282 167.853 113.543 169.64C109.804 171.427 105.647 173.042 101.607 172.118C96.0135 170.839 92.4497 165.147 87.075 163.139C83.695 161.875 79.7444 162.251 76.6632 164.129" fill="black"/>
</g>
<path d="M72.0179 104.025C72.0179 104.025 69.9691 106.64 69.515 112.132C69.0608 117.624 65.5228 146.437 66.7125 150.578C67.9023 154.719 83.3019 172.002 88.4312 171.576L90.3462 170.884L92.1793 172.305L100.376 166.162L82.3104 143.43L83.2811 110.706C83.2811 110.706 77.7324 102.73 72.0179 104.025Z" fill="#214F6F"/>
<path d="M86.0191 91.4916C86.0288 91.5061 85.8534 91.606 85.5698 91.8688C85.2855 92.1294 84.8959 92.5538 84.4674 93.1688C84.0271 93.7775 83.5806 94.5831 83.0315 95.533C82.447 96.4586 81.7773 97.5201 81.0278 98.7078L80.9113 98.565C81.9076 98.1767 83.1258 98.1705 84.2913 98.5525C85.4616 98.9276 86.5945 99.5994 87.6914 100.414C89.8823 102.073 91.8847 104.385 93.8232 107.008C97.6886 112.28 101.455 118.796 105.089 126.017L105.109 126.055L105.107 126.101C105.025 128.959 104.939 131.95 104.852 134.998C104.411 150.464 104.012 164.465 103.723 174.619C103.565 179.675 103.438 183.772 103.349 186.626C103.298 188.029 103.257 189.125 103.229 189.889C103.212 190.249 103.198 190.53 103.189 190.738C103.178 190.929 103.169 191.027 103.162 191.027C103.156 191.027 103.153 190.928 103.151 190.737C103.153 190.529 103.154 190.247 103.155 189.887C103.168 189.122 103.185 188.025 103.207 186.622C103.269 183.767 103.357 179.67 103.466 174.613C103.711 164.473 104.024 150.467 104.489 134.988C104.579 131.939 104.666 128.948 104.749 126.088L104.767 126.172C101.152 118.968 97.4043 112.449 93.5799 107.185C91.6607 104.564 89.6868 102.264 87.5389 100.616C86.4614 99.804 85.3535 99.1383 84.222 98.7653C83.0939 98.3861 81.936 98.3854 80.9799 98.7445L80.704 98.8485L80.8634 98.6017C81.6261 97.4237 82.3084 96.3713 82.9025 95.4526C83.4586 94.5214 83.9273 93.7089 84.3821 93.107C84.8272 92.4969 85.2342 92.0781 85.533 91.8278C85.8333 91.5762 86.0191 91.4916 86.0191 91.4916Z" fill="#263238"/>
<path d="M122.974 95.6696C122.991 95.7271 121.921 96.0412 120.256 96.7075C118.598 97.3766 116.334 98.4284 114.171 100.091C112.002 101.749 110.318 103.587 109.099 104.903C108.532 105.52 108.052 106.045 107.659 106.473C107.316 106.841 107.118 107.038 107.099 107.022C107.08 107.006 107.242 106.778 107.553 106.382C107.864 105.985 108.322 105.419 108.907 104.733C110.081 103.37 111.749 101.489 113.951 99.8033C116.153 98.1115 118.471 97.0805 120.164 96.4683C121.013 96.1598 121.715 95.9546 122.203 95.8263C122.692 95.6987 122.968 95.6474 122.974 95.6696Z" fill="#263238"/>
<path d="M105.052 126.156C105.028 126.153 105.053 125.788 105.12 125.127C105.197 124.469 105.337 123.518 105.558 122.353C105.99 120.022 106.762 116.836 107.779 113.366C108.817 109.901 109.909 106.808 110.862 104.634C111.332 103.545 111.761 102.684 112.079 102.102C112.411 101.526 112.604 101.215 112.626 101.227C112.647 101.24 112.496 101.574 112.205 102.166C111.927 102.764 111.536 103.636 111.098 104.733C110.211 106.921 109.16 110.015 108.127 113.47C107.112 116.929 106.303 120.094 105.809 122.405C105.557 123.559 105.38 124.498 105.26 125.148C105.15 125.799 105.077 126.159 105.052 126.156Z" fill="#263238"/>
<path d="M106.761 106.816C106.671 106.773 107.929 103.976 109.57 100.571C111.212 97.1644 112.615 94.4389 112.705 94.4826C112.795 94.5256 111.537 97.3218 109.895 100.727C108.254 104.133 106.851 106.859 106.761 106.816Z" fill="#263238"/>
<path d="M108.472 119.789L108.633 119.445C108.799 119.57 109.047 119.659 109.285 119.662C109.558 119.667 109.669 119.577 109.671 119.455C109.677 119.083 108.518 119.322 108.529 118.584C108.534 118.247 108.81 117.969 109.375 117.978C109.624 117.981 109.879 118.044 110.062 118.163L109.915 118.511C109.732 118.403 109.542 118.349 109.366 118.347C109.094 118.343 108.987 118.444 108.986 118.569C108.98 118.935 110.139 118.699 110.128 119.429C110.124 119.761 109.844 120.04 109.276 120.033C108.963 120.026 108.646 119.928 108.472 119.789Z" fill="white"/>
<path d="M111.98 119.667L111.975 120.035L110.437 120.013L110.465 118.027L111.966 118.048L111.961 118.417L110.917 118.402L110.91 118.833L111.833 118.846L111.828 119.204L110.906 119.191L110.899 119.651L111.98 119.667Z" fill="white"/>
<path d="M112.226 119.046C112.234 118.447 112.7 118.025 113.319 118.034C113.662 118.039 113.947 118.168 114.131 118.398L113.832 118.666C113.701 118.511 113.535 118.429 113.336 118.426C112.964 118.421 112.696 118.678 112.691 119.053C112.685 119.427 112.945 119.692 113.318 119.698C113.517 119.701 113.685 119.624 113.82 119.47L114.112 119.746C113.921 119.974 113.632 120.094 113.286 120.09C112.671 120.08 112.217 119.645 112.226 119.046Z" fill="white"/>
<path d="M115.895 119.497C115.864 119.4 115.837 119.303 115.813 119.207C115.787 119.142 115.767 119.075 115.745 119.009L115.742 119.199C115.737 119.576 115.573 119.73 115.292 119.726C115.014 119.722 114.851 119.564 114.857 119.186L114.873 118.091L114.413 118.084L114.397 119.196C114.389 119.781 114.719 120.11 115.284 120.117C115.615 120.122 115.865 120.01 116.02 119.802C115.97 119.706 115.929 119.603 115.895 119.497Z" fill="white"/>
<path d="M115.999 118.589L115.989 119.265C115.995 119.289 116.002 119.313 116.009 119.337C116.028 119.391 116.051 119.44 116.065 119.497C116.084 119.581 116.103 119.664 116.124 119.747C116.178 119.979 116.188 120.196 116.164 120.397C116.335 120.245 116.432 120.014 116.437 119.708L116.453 118.596L115.999 118.589Z" fill="white"/>
<path d="M118.145 120.607L117.77 120.048H117.747L117.347 120.042L117.339 120.596L116.879 120.589L116.908 118.602L117.767 118.615C118.298 118.622 118.626 118.903 118.62 119.348C118.615 119.646 118.462 119.863 118.202 119.97L118.638 120.614L118.145 120.607ZM117.737 118.988L117.363 118.983L117.353 119.676L117.727 119.681C118.008 119.685 118.152 119.557 118.155 119.341C118.158 119.122 118.018 118.993 117.737 118.988Z" fill="white"/>
<path d="M118.995 118.632L119.455 118.639L119.427 120.625L118.967 120.619L118.995 118.632Z" fill="white"/>
<path d="M120.333 119.026L119.697 119.017L119.703 118.643L121.433 118.667L121.428 119.042L120.792 119.033L120.769 120.645L120.309 120.638L120.333 119.026Z" fill="white"/>
<path d="M122.579 119.967L122.569 120.671L122.109 120.664L122.12 119.954L121.369 118.666L121.857 118.673L122.375 119.563L122.918 118.688L123.37 118.695L122.579 119.967Z" fill="white"/>
<path d="M117.616 125.148C117.593 125.157 117.497 124.972 117.342 124.627C117.185 124.284 116.986 123.775 116.766 123.136C116.325 121.86 115.846 120.044 115.584 117.994C115.325 115.943 115.335 114.065 115.443 112.719C115.497 112.046 115.562 111.503 115.629 111.131C115.692 110.759 115.739 110.555 115.764 110.558C115.821 110.565 115.74 111.394 115.699 112.733C115.656 114.071 115.687 115.923 115.942 117.948C116.201 119.973 116.635 121.774 117.01 123.059C117.383 124.345 117.67 125.127 117.616 125.148Z" fill="#263238"/>
<g opacity="0.3">
<path d="M106.408 119.629C106.113 122.097 105.321 123.317 105.285 125.802C105.278 126.334 104.433 134.739 104.929 134.933C105.513 135.161 107.738 129.038 108.223 125.987C108.604 123.596 109.278 120.449 109.678 118.061C110.845 111.093 113.431 107.342 117.055 101.277C117.741 100.129 120.303 97.0029 120.303 97.0029C120.056 96.8469 119.04 97.3281 118.328 97.6484C116.284 98.5677 112.625 101.492 112.625 101.492C112.625 101.492 110.426 105.694 109.683 107.808C108.261 111.864 107.16 115.956 106.352 120.031" fill="black"/>
</g>
<g opacity="0.3">
<path d="M83.512 98.4727C83.512 98.4727 81.2774 99.6937 81.2919 100.677C81.3058 101.66 82.0588 102.497 82.9192 102.973C83.7796 103.449 84.7586 103.656 85.68 103.999C87.8495 104.808 89.6563 106.361 91.2898 108.002C93.9682 110.692 96.3199 113.707 98.2779 116.96C99.9059 119.665 101.398 122.678 104.124 124.272C102.279 120.972 100.366 117.779 98.5206 114.48C96.6791 111.186 94.5519 108.062 92.153 105.15C89.7534 102.237 85.843 98.7071 83.512 98.4727Z" fill="black"/>
</g>
<path d="M75.5546 147.177C75.5456 147.177 75.5359 147.116 75.5248 146.996C75.5116 146.876 75.5109 146.696 75.5303 146.463C75.5726 146.002 75.7189 145.308 76.1931 144.569C76.6549 143.842 77.4883 143.055 78.6857 142.762C79.856 142.467 81.3543 142.661 82.5254 143.616L82.2563 143.748C82.1517 141.638 82.2841 139.244 82.6689 136.77C83.0211 134.489 83.4378 132.339 83.6763 130.365C83.9231 128.392 84.0521 126.604 84.0847 125.1C84.1297 123.596 84.1235 122.376 84.1048 121.534C84.102 121.147 84.0999 120.827 84.0985 120.563C84.1013 120.34 84.1082 120.223 84.1207 120.223C84.1332 120.222 84.1498 120.338 84.1713 120.559C84.1914 120.822 84.2157 121.142 84.2455 121.528C84.3079 122.371 84.353 123.593 84.3405 125.104C84.3398 126.616 84.2372 128.418 84.007 130.404C83.7851 132.393 83.3761 134.555 83.0266 136.822C82.6446 139.282 82.5025 141.64 82.5843 143.733L82.5989 144.102L82.3153 143.865C81.2503 142.978 79.8498 142.768 78.7488 143.026C77.627 143.279 76.8241 143.996 76.3568 144.677C75.8798 145.368 75.7071 146.03 75.6336 146.475C75.565 146.926 75.5795 147.176 75.5546 147.177Z" fill="#263238"/>
<path d="M77.2976 164.068C77.3038 164.062 77.3794 164.128 77.5188 164.261C77.6762 164.415 77.8772 164.611 78.1261 164.853C78.6662 165.361 79.458 166.107 80.5265 166.975C81.5977 167.837 82.9316 168.847 84.5644 169.826C85.3812 170.308 86.2673 170.813 87.2511 171.178C87.7371 171.359 88.2634 171.459 88.7958 171.409C89.3158 171.366 89.8677 171.152 90.2227 170.781L90.3302 170.669L90.4453 170.758C91.0228 171.202 91.6455 171.682 92.2826 172.173L92.0795 172.171C94.6032 170.275 97.371 168.195 100.268 166.017L100.237 166.276C100.191 166.218 100.141 166.157 100.091 166.094C97.6192 163.018 95.4179 159.981 93.3691 157.254C91.3293 154.52 89.4781 152.07 87.8758 150.051C86.277 148.029 84.9215 146.443 83.9488 145.381C83.469 144.843 83.0765 144.445 82.8117 144.173C82.5482 143.899 82.4144 143.752 82.4227 143.742C82.431 143.733 82.5822 143.863 82.8623 144.12C83.1445 144.376 83.5542 144.76 84.0514 145.284C85.0588 146.32 86.4482 147.885 88.0755 149.89C89.7055 151.893 91.581 154.329 93.6353 157.052C95.6987 159.769 97.9104 162.802 100.372 165.865C100.422 165.927 100.471 165.99 100.517 166.046L100.635 166.193L100.485 166.305C97.5825 168.475 94.8098 170.548 92.2819 172.438L92.1793 172.515L92.0788 172.437C91.4444 171.943 90.8245 171.459 90.2498 171.011L90.4723 170.987C90.0106 171.463 89.4115 171.664 88.825 171.717C88.2391 171.769 87.6616 171.652 87.152 171.456C86.1328 171.068 85.2494 170.551 84.4278 170.054C82.7916 169.046 81.4659 168.011 80.4065 167.122C79.3499 166.227 78.5761 165.457 78.0568 164.925C77.8218 164.667 77.6325 164.459 77.4834 164.296C77.3538 164.152 77.2914 164.075 77.2976 164.068Z" fill="#263238"/>
<path d="M83.8864 113.092C83.8219 113.115 83.5577 112.29 82.8901 111.083C82.5614 110.477 82.1045 109.794 81.5436 109.079C80.9681 108.375 80.2797 107.648 79.4775 106.97C78.667 106.303 77.8266 105.758 77.0307 105.318C76.2264 104.895 75.4714 104.569 74.8162 104.355C73.5086 103.915 72.6502 103.804 72.6606 103.737C72.6641 103.712 72.879 103.725 73.2687 103.77C73.659 103.806 74.2178 103.92 74.8931 104.112C75.5712 104.298 76.354 104.607 77.186 105.023C78.0097 105.457 78.8777 106.009 79.709 106.692C80.5313 107.386 81.2309 108.141 81.8057 108.872C82.3659 109.616 82.8103 110.33 83.1161 110.963C83.4274 111.593 83.6395 112.122 83.7456 112.499C83.8593 112.875 83.9099 113.085 83.8864 113.092Z" fill="#263238"/>
<g opacity="0.3">
<path d="M116.977 123.376C117.206 123.87 118.021 123.563 118.117 123.179C118.213 122.795 118.014 122.406 117.831 122.055C116.54 119.572 115.76 116.824 115.554 114.032C115.335 117.42 115.693 120.234 116.977 123.376Z" fill="black"/>
</g>
<g opacity="0.3">
<path d="M75.2579 146.447C74.6457 144.511 75.5685 142.205 77.3476 141.225C77.801 140.975 78.3141 140.804 78.8306 140.842C79.9545 140.923 80.7595 141.923 81.4188 142.836C80.1743 142.463 78.7752 142.639 77.6623 143.311C76.5495 143.982 75.7404 145.138 75.4901 146.413" fill="black"/>
</g>
<path d="M129.428 104.518C129.476 104.55 129.066 105.203 128.488 106.298C127.908 107.392 127.187 108.947 126.601 110.741C126.019 112.536 125.687 114.218 125.512 115.443C125.335 116.669 125.283 117.438 125.225 117.436C125.183 117.435 125.145 116.66 125.259 115.413C125.371 114.167 125.667 112.451 126.257 110.628C126.852 108.808 127.622 107.246 128.265 106.173C128.907 105.098 129.393 104.494 129.428 104.518Z" fill="#263238"/>
<g opacity="0.3">
<path d="M124.845 122.124C124.472 122.508 124.371 125.738 124.371 125.738C124.377 129.638 124.62 131.35 124.626 135.25C124.629 136.861 124.628 138.495 124.198 140.046C123.97 140.87 123.625 141.655 123.282 142.437C122.847 143.427 122.407 144.425 121.772 145.3C121.241 146.033 120.585 146.664 119.944 147.301C116.865 150.366 114.055 153.701 111.556 157.254L110.031 159.489L125.158 145.297L125.904 143.419L125.941 143.2L124.845 122.124Z" fill="black"/>
</g>
<path d="M130.055 101.478C130.055 101.478 132.438 102.374 133.681 107.69C135.116 113.829 136.996 124.04 137.285 127.903C137.527 131.155 140.722 143.042 138.252 148.273C135.782 153.506 123.84 169.666 119.127 170.184L117.162 169.686L115.096 170.039L109.302 163.372L109.808 161.464C109.808 161.464 109.153 160.401 109.837 159.453C110.521 158.506 125.297 144.622 125.297 144.622C125.297 144.622 124.733 144.55 124.613 143.593C124.404 141.944 125.84 142.004 125.84 142.004L124.887 127.478L130.055 101.478Z" fill="#214F6F"/>
<path d="M130.952 146.347C130.888 146.437 129.799 145.656 128.252 145.169C126.71 144.665 125.37 144.666 125.37 144.556C125.354 144.467 126.748 144.299 128.362 144.825C129.981 145.337 131.016 146.284 130.952 146.347Z" fill="#263238"/>
<path d="M133.937 144.172C133.869 144.269 132.424 142.867 130.108 142.267C127.801 141.629 125.85 142.122 125.839 142.004C125.828 141.965 126.293 141.785 127.09 141.685C127.883 141.582 129.012 141.602 130.202 141.918C131.39 142.239 132.377 142.786 133.013 143.271C133.652 143.755 133.966 144.144 133.937 144.172Z" fill="#263238"/>
<path d="M125.37 144.556C125.356 144.591 125.124 144.57 124.82 144.342C124.671 144.227 124.518 144.039 124.435 143.789C124.351 143.539 124.355 143.245 124.426 142.967C124.475 142.78 124.543 142.619 124.638 142.461L124.621 142.496C124.837 141.996 125.292 141.902 125.543 141.879C125.816 141.862 125.966 141.941 125.958 141.978C125.951 142.022 125.803 142.025 125.582 142.097C125.373 142.162 125.043 142.321 124.951 142.607L124.948 142.617L124.934 142.642C124.874 142.757 124.812 142.909 124.774 143.058C124.643 143.524 124.781 143.926 124.994 144.157C125.206 144.392 125.397 144.502 125.37 144.556Z" fill="#263238"/>
<path d="M124.699 121.414C124.724 121.412 124.768 121.699 124.828 122.219C124.889 122.739 124.959 123.494 125.032 124.426C125.181 126.291 125.325 128.872 125.45 131.722C125.57 134.531 125.678 137.071 125.761 139.02C125.796 139.895 125.826 140.634 125.85 141.232C125.866 141.755 125.864 142.045 125.839 142.047C125.814 142.049 125.769 141.762 125.709 141.242C125.648 140.722 125.579 139.968 125.505 139.035C125.357 137.17 125.213 134.588 125.088 131.737C124.968 128.929 124.86 126.391 124.776 124.441C124.741 123.567 124.711 122.827 124.688 122.228C124.672 121.706 124.674 121.416 124.699 121.414Z" fill="#263238"/>
<path d="M125.609 144.456C125.617 144.464 125.491 144.588 125.243 144.815C124.971 145.061 124.607 145.39 124.148 145.804C123.172 146.689 121.797 147.936 120.094 149.481C118.385 151.055 116.355 152.959 114.121 155.137C113.004 156.225 111.832 157.383 110.631 158.599C110.341 158.903 110.062 159.223 109.889 159.589C109.706 159.955 109.68 160.354 109.763 160.776C109.832 161.199 109.992 161.633 109.978 162.138C109.964 162.606 109.784 163.198 109.235 163.426L109.304 163.142C110.264 164.239 111.27 165.389 112.294 166.56C113.293 167.703 114.274 168.827 115.23 169.921L115.066 169.863C115.764 169.745 116.453 169.627 117.132 169.512L117.157 169.508L117.18 169.51C118.085 169.621 118.837 170.039 119.621 169.904C120.401 169.809 121.107 169.401 121.729 168.937C122.965 167.974 124.039 166.877 125.039 165.849C127.024 163.765 128.651 161.783 129.989 160.12C131.324 158.456 132.367 157.103 133.089 156.178C133.437 155.734 133.713 155.383 133.921 155.118C134.113 154.879 134.217 154.757 134.226 154.763C134.235 154.769 134.147 154.904 133.971 155.156C133.775 155.429 133.514 155.793 133.187 156.251C132.496 157.2 131.482 158.574 130.168 160.261C128.853 161.945 127.243 163.949 125.262 166.06C124.258 167.105 123.2 168.203 121.93 169.204C121.289 169.686 120.54 170.134 119.663 170.245C118.765 170.392 117.933 169.942 117.145 169.86L117.192 169.858C116.514 169.976 115.825 170.094 115.127 170.214L115.028 170.231L114.962 170.156C114.005 169.062 113.023 167.939 112.024 166.797C111.001 165.626 109.995 164.475 109.036 163.377L108.868 163.184L109.105 163.094C109.447 162.962 109.614 162.533 109.625 162.125C109.642 161.719 109.495 161.287 109.418 160.835C109.326 160.387 109.359 159.86 109.577 159.44C109.781 159.013 110.086 158.674 110.386 158.361C111.6 157.141 112.775 155.993 113.901 154.909C116.153 152.743 118.204 150.858 119.936 149.305C121.669 147.753 123.082 146.535 124.064 145.707C124.54 145.312 124.918 144.999 125.2 144.765C125.461 144.554 125.601 144.448 125.609 144.456Z" fill="#263238"/>
<path d="M125.258 136.132C125.257 136.232 115.806 136.176 104.152 136.009C92.4948 135.841 83.0481 135.625 83.0495 135.525C83.0509 135.425 92.4996 135.481 104.157 135.649C115.812 135.815 125.26 136.032 125.258 136.132Z" fill="#263238"/>
<path d="M114.411 141.85C114.424 141.853 114.417 141.945 114.394 142.118C114.367 142.291 114.342 142.549 114.267 142.874C114.139 143.527 113.884 144.462 113.436 145.569C112.56 147.774 110.72 150.678 107.732 152.83C104.743 154.98 101.403 155.803 99.035 155.934C97.8425 156.008 96.8753 155.952 96.2145 155.866C95.8831 155.834 95.63 155.776 95.4574 155.747C95.2854 155.713 95.1967 155.69 95.1981 155.678C95.2043 155.599 96.6638 155.889 99.0142 155.68C101.343 155.486 104.598 154.639 107.521 152.537C110.44 150.433 112.276 147.616 113.2 145.469C114.146 143.308 114.334 141.831 114.411 141.85Z" fill="#263238"/>
<path d="M94.1796 170.826C94.1179 170.901 93.7234 170.679 93.367 170.264C93.0093 169.849 92.8484 169.427 92.933 169.377C93.0197 169.324 93.3046 169.641 93.6409 170.029C93.9751 170.419 94.2448 170.747 94.1796 170.826Z" fill="#263238"/>
<path d="M96.8267 168.761C96.7463 168.82 96.4482 168.554 96.1604 168.165C95.8727 167.777 95.7042 167.414 95.7847 167.355C95.8644 167.295 96.1632 167.562 96.451 167.95C96.738 168.339 96.9065 168.701 96.8267 168.761Z" fill="#263238"/>
<path d="M112.163 163.201C112.208 163.291 111.812 163.582 111.317 163.914C110.82 164.244 110.401 164.5 110.334 164.423C110.27 164.349 110.598 163.958 111.116 163.614C111.632 163.268 112.119 163.113 112.163 163.201Z" fill="#263238"/>
<path d="M114.13 165.135C114.212 165.185 113.972 165.713 113.47 166.205C112.97 166.7 112.439 166.932 112.39 166.848C112.336 166.761 112.75 166.41 113.217 165.948C113.687 165.488 114.044 165.079 114.13 165.135Z" fill="#263238"/>
<path d="M116.014 167.441C116.086 167.507 115.78 167.95 115.268 168.355C114.757 168.763 114.257 168.96 114.209 168.875C114.157 168.788 114.555 168.462 115.043 168.072C115.534 167.685 115.941 167.371 116.014 167.441Z" fill="#263238"/>
<path d="M89.1155 93.6506C89.2181 93.6104 90.046 95.6939 91.4604 98.0526C92.863 100.419 94.3017 102.138 94.2178 102.208C94.1824 102.239 93.7768 101.847 93.1944 101.147C92.612 100.448 91.8639 99.4316 91.1505 98.237C90.4391 97.0417 89.9004 95.9005 89.5627 95.0553C89.2244 94.2101 89.0725 93.6673 89.1155 93.6506Z" fill="#263238"/>
<path d="M130.948 186.787C130.948 186.8 130.746 186.81 130.362 186.819C129.945 186.824 129.386 186.83 128.682 186.837C127.188 186.851 125.087 186.871 122.506 186.894C117.291 186.957 110.089 187.153 102.134 187.396C94.1754 187.638 86.9675 187.793 81.7495 187.791C79.1405 187.792 77.0293 187.773 75.5705 187.734C74.8668 187.713 74.3073 187.697 73.8913 187.685C73.5072 187.669 73.3061 187.656 73.3061 187.643C73.3061 187.631 73.5078 187.62 73.892 187.612C74.3086 187.607 74.8682 187.601 75.5712 187.593C77.0653 187.579 79.1661 187.56 81.7474 187.536C86.962 187.472 94.165 187.277 102.123 187.034C110.078 186.792 117.286 186.636 122.504 186.638C125.113 186.638 127.224 186.656 128.683 186.696C129.386 186.717 129.946 186.733 130.362 186.745C130.746 186.761 130.948 186.775 130.948 186.787Z" fill="#263238"/>
<path d="M116.583 94.787C116.5 94.8584 115.652 93.8891 114.322 93.0738C113.001 92.2438 111.756 91.9145 111.784 91.8084C111.792 91.7183 113.129 91.8999 114.513 92.7673C115.904 93.6229 116.66 94.7398 116.583 94.787Z" fill="#214F6F"/>
<path d="M112.091 171.402C112.351 171.904 112.983 172.096 113.549 172.075C114.114 172.053 114.662 171.871 115.226 171.84C115.791 171.809 116.425 171.976 116.712 172.464C116.938 172.85 116.886 173.357 116.664 173.747C116.443 174.136 116.078 174.425 115.691 174.651C113.843 175.736 111.31 175.492 109.702 174.075" fill="#B78876"/>
<path d="M99.3831 180.014C101.014 181.642 102.814 183.1 104.745 184.357C105.171 184.635 105.656 184.915 106.158 184.832C106.661 184.75 107.061 184.096 106.724 183.714C107.24 184.128 108.035 184.147 108.57 183.758C109.078 183.389 109.31 182.685 109.133 182.085C109.121 182.045 109.156 182.012 109.194 182.027C109.689 182.216 110.272 182.201 110.719 181.92C111.195 181.62 111.468 180.995 111.288 180.462C111.801 181.159 113.035 180.883 113.431 180.113C113.827 179.344 113.551 178.375 113.026 177.687C112.502 176.998 111.767 176.508 111.106 175.95C110.444 175.392 109.822 174.705 109.664 173.854" fill="#B78876"/>
<path d="M106.942 184C106.905 184.086 105.972 183.699 105.114 182.826C104.249 181.958 103.872 181.023 103.957 180.986C104.051 180.936 104.55 181.751 105.371 182.572C106.183 183.401 106.994 183.907 106.942 184Z" fill="#AA6550"/>
<path d="M109.533 182.395C109.482 182.476 108.679 182.042 107.889 181.254C107.094 180.47 106.653 179.671 106.733 179.62C106.818 179.561 107.376 180.242 108.143 180.997C108.905 181.757 109.592 182.309 109.533 182.395Z" fill="#AA6550"/>
<path d="M111.796 180.796C111.746 180.878 110.976 180.48 110.218 179.74C109.457 179.003 109.038 178.245 109.117 178.193C109.202 178.133 109.737 178.773 110.47 179.481C111.198 180.192 111.853 180.71 111.796 180.796Z" fill="#AA6550"/>
<path d="M94.8341 164.346C94.8341 164.346 94.6275 163.462 96.9037 163.747C99.1799 164.034 100.198 164.253 102.755 164.122C105.313 163.989 109.462 163.261 109.462 163.261L116.137 169.135C116.137 169.135 109.309 175.134 107.267 176.202C105.224 177.271 101.065 179.936 98.698 179.808C96.8988 179.711 96.7373 178.816 96.7373 178.816C96.7373 178.816 94.9811 177.608 95.2425 177.021C95.2425 177.021 93.1569 176.907 93.548 175.307C93.548 175.307 92.0614 175.033 91.8202 174.184C91.5789 173.336 92.7014 172.338 93.1333 171.911C93.8274 171.223 99.903 166.764 99.9294 166.639C99.9294 166.639 94.7384 166.124 94.8341 164.346Z" fill="#B78876"/>
<path d="M99.1418 170.83C99.2028 170.909 97.9797 171.954 96.4114 173.163C94.8424 174.373 93.5209 175.289 93.4599 175.21C93.3989 175.131 94.6212 174.087 96.1909 172.877C97.7592 171.668 99.0807 170.751 99.1418 170.83Z" fill="#AA6550"/>
<path d="M102.357 171.453C102.392 171.482 102.106 171.913 101.559 172.542C101.012 173.17 100.191 173.986 99.1875 174.773C98.1822 175.557 97.1914 176.157 96.4489 176.534C95.7056 176.914 95.2189 177.087 95.1995 177.045C95.1496 176.946 96.9917 176.041 98.965 174.488C100.948 172.949 102.272 171.38 102.357 171.453Z" fill="#AA6550"/>
<path d="M105.229 173.51C105.262 173.535 104.956 174.034 104.324 174.734C103.694 175.433 102.711 176.311 101.475 177.057C100.236 177.8 99.0003 178.257 98.0872 178.486C97.1727 178.717 96.5889 178.754 96.5826 178.712C96.5514 178.597 98.8693 178.223 101.289 176.747C103.725 175.302 105.142 173.429 105.229 173.51Z" fill="#AA6550"/>
<path d="M113.378 171.601C113.395 171.619 113.215 171.804 112.876 172.122C112.535 172.437 112.03 172.881 111.384 173.403C110.096 174.451 108.234 175.807 106.043 177.088C104.948 177.73 103.879 178.295 102.889 178.773C101.905 179.259 100.967 179.633 100.137 179.798C99.3089 179.973 98.6051 179.922 98.1496 179.8C97.6913 179.677 97.4722 179.528 97.4799 179.514C97.4875 179.44 98.4762 179.971 100.082 179.549C100.874 179.358 101.773 178.974 102.742 178.474C103.717 177.984 104.774 177.414 105.861 176.777C108.035 175.506 109.906 174.193 111.227 173.202C112.552 172.213 113.341 171.558 113.378 171.601Z" fill="#AA6550"/>
<path d="M101.15 55.0326C94.4819 54.417 88.5983 59.384 88.0998 66.0629C87.6845 71.6206 87.2941 77.6339 87.2872 80.6659C87.274 87.1735 93.7671 88.2787 93.7671 88.2787C93.7671 88.2787 93.5806 90.2041 93.3663 92.5933C92.9351 97.405 96.5633 101.625 101.385 101.916C106.113 102.201 110.176 98.5969 110.456 93.869L112.011 67.6742C112.393 61.2213 107.587 55.6275 101.15 55.0326Z" fill="#B78876"/>
<path d="M93.7574 88.1851C93.7574 88.1851 97.8647 88.5789 102.274 85.8964C102.274 85.8964 100.094 90.5993 93.6111 89.9198L93.7574 88.1851Z" fill="#AA6550"/>
<path d="M111.378 69.9012C111.49 69.8547 115.868 68.6435 115.662 73.0891C115.456 77.5348 111.035 76.4109 111.032 76.2833C111.031 76.1557 111.378 69.9012 111.378 69.9012Z" fill="#B78876"/>
<path d="M112.469 74.6623C112.489 74.6491 112.544 74.7198 112.672 74.7864C112.797 74.8509 113.015 74.9015 113.25 74.8252C113.728 74.6748 114.158 73.9475 114.217 73.1467C114.247 72.7424 114.18 72.3535 114.052 72.0276C113.931 71.6962 113.732 71.4591 113.497 71.4064C113.264 71.3412 113.09 71.475 113.029 71.5971C112.964 71.7184 112.988 71.8085 112.964 71.8155C112.951 71.8259 112.872 71.7364 112.916 71.5548C112.939 71.4674 112.996 71.3648 113.104 71.2844C113.215 71.2026 113.374 71.1658 113.537 71.1908C113.879 71.2303 114.173 71.5603 114.315 71.9181C114.475 72.2779 114.559 72.7161 114.526 73.1695C114.456 74.0639 113.959 74.8814 113.307 75.0374C112.991 75.1046 112.734 74.9979 112.604 74.8869C112.472 74.7704 112.453 74.6699 112.469 74.6623Z" fill="#AA6550"/>
<path d="M90.6276 69.6086C90.6034 70.0988 90.9986 70.5238 91.5103 70.5591C92.0206 70.5938 92.456 70.2257 92.4802 69.7355C92.5045 69.2453 92.1093 68.8196 91.599 68.7842C91.0866 68.7489 90.6519 69.1184 90.6276 69.6086Z" fill="#263238"/>
<path d="M89.743 68.405C89.856 68.5277 90.568 68.0167 91.5678 68.034C92.5669 68.0368 93.2928 68.5617 93.4031 68.441C93.4572 68.3876 93.3428 68.1671 93.0266 67.93C92.7153 67.6936 92.1821 67.4606 91.5595 67.4544C90.9369 67.4489 90.4093 67.6707 90.1049 67.9009C89.7943 68.1325 89.6868 68.3495 89.743 68.405Z" fill="#263238"/>
<path d="M100.646 69.8831C100.621 70.3733 101.017 70.7983 101.528 70.833C102.039 70.8677 102.473 70.4995 102.498 70.0093C102.523 69.5191 102.127 69.0934 101.617 69.0581C101.105 69.0234 100.671 69.393 100.646 69.8831Z" fill="#263238"/>
<path d="M99.5682 68.7329C99.6819 68.8556 100.394 68.3446 101.393 68.362C102.392 68.3647 103.119 68.8896 103.229 68.769C103.283 68.7156 103.17 68.4951 102.853 68.258C102.541 68.0215 102.008 67.7886 101.385 67.7823C100.763 67.7768 100.236 67.9987 99.9308 68.2288C99.6209 68.4604 99.5127 68.6781 99.5682 68.7329Z" fill="#263238"/>
<path d="M95.8332 76.0954C95.8387 76.0386 95.2189 75.9221 94.2136 75.7792C93.9591 75.7494 93.7178 75.6947 93.6776 75.5199C93.6201 75.3348 93.731 75.061 93.8593 74.7656C94.1082 74.1513 94.3689 73.5072 94.642 72.8326C95.7306 70.0794 96.5217 67.8142 96.4107 67.7713C96.2991 67.7283 95.3271 69.9254 94.2385 72.678C93.9764 73.3567 93.7255 74.0043 93.487 74.6235C93.3864 74.9119 93.2152 75.2384 93.34 75.6232C93.4058 75.8153 93.5916 75.9561 93.7546 76.0025C93.9175 76.0545 94.061 76.0594 94.1872 76.0691C95.1995 76.1391 95.8283 76.1523 95.8332 76.0954Z" fill="#263238"/>
<path d="M98.4152 65.1123C98.5316 65.3772 99.5189 65.183 100.699 65.2468C101.88 65.287 102.847 65.5678 102.986 65.3141C103.048 65.1934 102.866 64.9487 102.468 64.7109C102.072 64.4738 101.452 64.2637 100.744 64.2318C100.036 64.2013 99.4004 64.3552 98.9851 64.5563C98.5663 64.7587 98.3639 64.9861 98.4152 65.1123Z" fill="#263238"/>
<path d="M89.3693 64.7213C89.5419 64.9508 90.2338 64.7248 91.0624 64.7261C91.8909 64.6977 92.5898 64.9009 92.7548 64.6651C92.8269 64.5507 92.7201 64.3219 92.4165 64.1021C92.1176 63.8837 91.615 63.7014 91.0457 63.7104C90.4765 63.7201 89.9801 63.9191 89.6889 64.1472C89.3921 64.3767 89.293 64.609 89.3693 64.7213Z" fill="#263238"/>
<path d="M111.889 69.7036C111.937 70.3851 111.903 71.1714 111.749 71.837C111.594 72.5026 111.205 73.1481 110.589 73.4448C109.464 73.9863 108.074 73.1113 107.59 71.9604C107.106 70.8094 107.264 69.5032 107.396 68.2614C107.577 66.5676 107.695 64.8461 107.392 63.1696C107.091 61.4931 106.33 59.8478 105.012 58.769C103.694 57.6902 101.769 57.2797 100.23 58.0091C99.2798 58.4591 98.558 59.2786 97.6699 59.8402C96.8711 60.3457 95.9033 60.6382 94.9714 60.4781C94.0396 60.3186 92.7777 59.6634 92.9358 58.7316C93.3046 56.5601 91.7973 58.3814 91.8965 58.0126C92.0622 57.3969 93.3137 56.3417 93.833 55.9603C94.7918 55.2559 95.8069 54.9182 96.8226 54.7401C99.6403 54.2457 102.672 54.6028 105.315 55.6989C107.958 56.7944 110.279 58.8377 111.36 61.4862C112.609 64.5493 112.414 66.4054 111.993 69.705" fill="#263238"/>
<path d="M97.9493 79.0532C97.9597 79.2522 97.1291 79.4588 96.0939 79.5149C95.0581 79.5704 94.2108 79.4539 94.1997 79.2549C94.1893 79.0559 95.0193 78.8493 96.0551 78.7939C97.0902 78.7377 97.9382 78.8542 97.9493 79.0532Z" fill="#263238"/>
<path d="M111.879 70.0946C111.867 70.1397 111.341 70.0461 110.517 69.7972C109.693 69.551 108.58 69.1371 107.371 68.6462C106.238 68.1907 105.21 67.7768 104.276 67.4017C103.481 67.0932 102.984 66.9136 102.997 66.8623C103.009 66.8172 103.535 66.9108 104.359 67.1597C105.183 67.4059 106.296 67.8198 107.506 68.3114C108.638 68.7669 109.667 69.1801 110.601 69.5559C111.396 69.8637 111.894 70.0433 111.879 70.0946Z" fill="#263238"/>
<path d="M93.3795 66.2529C93.9702 66.3229 94.4542 66.7729 94.5429 67.3608C94.719 68.5263 94.5228 69.7493 93.9723 70.7935C93.2609 72.1413 91.9686 73.1702 90.4952 73.5606C89.6501 73.7845 88.696 73.7901 87.9576 73.3228C86.9225 72.6683 86.6035 71.3156 86.5127 70.0939C86.4469 69.203 86.4704 68.2476 86.9606 67.5002C87.5867 66.5461 88.8146 66.1787 89.9537 66.117C91.0936 66.0546 93.3795 66.2529 93.3795 66.2529Z" fill="#263238"/>
<path d="M98.6072 66.4137C98.0082 66.4671 97.5055 66.9081 97.3987 67.5002C97.1866 68.6733 97.3495 69.9157 97.8758 70.9869C98.5559 72.3708 99.8323 73.4483 101.311 73.8858C102.158 74.1367 103.122 74.17 103.883 73.7187C104.949 73.087 105.311 71.7288 105.438 70.4967C105.531 69.5975 105.534 68.6317 105.061 67.8614C104.455 66.8789 103.225 66.4713 102.075 66.3756C100.924 66.2799 98.6072 66.4137 98.6072 66.4137Z" fill="#263238"/>
<path d="M99.6583 66.5981C99.6563 66.698 97.9479 66.7444 95.8436 66.7028C93.738 66.6605 92.0337 66.5461 92.0358 66.4463C92.0379 66.3465 93.7456 66.3 95.8512 66.3416C97.9555 66.3832 99.6604 66.4983 99.6583 66.5981Z" fill="#263238"/>
<path d="M111.625 96.1043C111.619 96.1043 111.613 96.0683 111.606 95.9962C111.6 95.9241 111.599 95.8159 111.618 95.6751C111.651 95.393 111.792 94.9908 112.047 94.5249C112.301 94.0569 112.635 93.5085 112.83 92.793C113.04 92.0844 113.13 91.2378 113.124 90.3025C113.125 89.361 113.006 88.3487 112.937 87.2186C112.934 86.9322 112.966 86.6036 113.152 86.3214C113.322 86.0524 113.663 85.8007 114.062 85.9019C114.245 85.9532 114.404 86.0697 114.505 86.241C114.613 86.4108 114.613 86.6639 114.492 86.84C114.209 87.2012 113.77 87.1666 113.444 87.0431C112.785 86.7318 112.42 85.9511 112.616 85.2287C112.71 84.8758 112.925 84.5506 113.233 84.3308C113.39 84.2213 113.571 84.1381 113.778 84.1152C113.978 84.0909 114.228 84.145 114.39 84.3225C114.54 84.4868 114.633 84.7302 114.536 84.9846C114.424 85.2453 114.154 85.3271 113.958 85.3369C113.546 85.3577 113.155 85.1684 112.887 84.8772C112.619 84.5887 112.455 84.1741 112.518 83.7561C112.579 83.3401 112.845 82.9837 113.192 82.7722C113.483 82.592 113.841 82.5101 114.195 82.5926C114.372 82.6391 114.532 82.7285 114.663 82.8665C114.794 82.9969 114.889 83.2305 114.823 83.4447C114.766 83.6618 114.571 83.806 114.402 83.858C114.228 83.9155 114.055 83.9231 113.886 83.9017C113.556 83.8497 113.265 83.7096 113.015 83.5141C112.522 83.1328 112.207 82.4387 112.448 81.8092C112.671 81.2233 113.294 80.7782 113.944 80.9231C114.256 80.998 114.554 81.2219 114.609 81.5956C114.631 81.7801 114.547 81.9728 114.419 82.0872C114.291 82.2044 114.134 82.2682 113.97 82.2841C113.638 82.3056 113.367 82.1482 113.157 81.9832C112.943 81.8133 112.762 81.6033 112.642 81.3557C112.384 80.8676 112.497 80.1902 112.963 79.8727C113.44 79.5337 114.166 79.8082 114.259 80.3816L114.274 80.478L114.191 80.523C113.532 80.8801 112.745 80.5113 112.508 79.9191C112.382 79.6169 112.438 79.2757 112.583 79.0234C112.73 78.7682 112.953 78.5741 113.208 78.4715C113.461 78.3633 113.755 78.364 113.994 78.4666C114.237 78.5547 114.445 78.8306 114.38 79.1024C114.356 79.2348 114.256 79.3603 114.128 79.404C114.001 79.4498 113.872 79.4297 113.768 79.3846C113.546 79.2931 113.439 79.0726 113.397 78.8965C113.275 78.174 113.336 77.6242 113.378 77.2491C113.43 76.8761 113.488 76.6854 113.501 76.6882C113.556 76.6847 113.316 77.4925 113.553 78.8549C113.598 79.0116 113.684 79.1634 113.836 79.2196C113.988 79.2854 114.164 79.2279 114.186 79.0643C114.259 78.7072 113.682 78.4867 113.295 78.6829C112.891 78.8473 112.549 79.3666 112.747 79.8228C112.92 80.2707 113.589 80.5536 114.043 80.2797L113.975 80.4211C113.937 80.098 113.423 79.8873 113.134 80.1216C112.818 80.3442 112.718 80.8364 112.926 81.2171C113.113 81.5859 113.548 81.9735 113.938 81.9555C114.129 81.9388 114.3 81.7849 114.272 81.6303C114.258 81.4708 114.066 81.2919 113.863 81.2545C113.436 81.1484 112.936 81.4847 112.773 81.9319C112.599 82.3749 112.827 82.9227 113.234 83.2354C113.436 83.3934 113.684 83.5092 113.932 83.5467C114.17 83.5827 114.449 83.4988 114.475 83.3463C114.532 83.2055 114.332 82.9941 114.103 82.9414C113.873 82.8873 113.598 82.94 113.379 83.0794C113.112 83.2402 112.914 83.5162 112.873 83.8081C112.827 84.0993 112.943 84.4099 113.15 84.6331C113.355 84.8585 113.652 84.9937 113.935 84.9805C114.234 84.9729 114.295 84.7628 114.13 84.5638C113.992 84.4009 113.658 84.4487 113.433 84.6165C113.196 84.7836 113.023 85.0408 112.948 85.3181C112.78 85.8686 113.097 86.5127 113.571 86.736C113.8 86.8379 114.123 86.8116 114.22 86.659C114.338 86.5086 114.191 86.2659 113.976 86.207C113.782 86.1474 113.537 86.286 113.41 86.4899C113.273 86.6909 113.236 86.953 113.237 87.2158C113.29 88.3029 113.397 89.3526 113.379 90.3025C113.368 91.2545 113.259 92.1246 113.022 92.8512C112.802 93.5854 112.436 94.1457 112.17 94.5935C111.899 95.0435 111.745 95.4193 111.69 95.6883C111.634 95.9559 111.642 96.1036 111.625 96.1043Z" fill="#E0E0E0"/>
<path d="M114.181 74.8273C114.137 74.4938 114.062 74.1569 113.886 73.8698C113.709 73.5828 113.417 73.3512 113.082 73.32C112.708 73.2853 112.326 73.528 112.199 73.8809C112.076 74.2234 112.235 74.647 112.527 74.8647C112.534 74.8703 112.539 74.8752 112.546 74.88C112.548 74.8814 112.55 74.8842 112.553 74.8856L112.55 74.8828C112.577 74.9015 112.605 74.9195 112.627 74.9334C112.743 75.0069 112.907 75.0159 113.023 75.088C113.262 75.2357 113.338 75.5498 113.327 75.8299C113.316 76.11 113.24 76.3873 113.261 76.6674C113.276 76.8706 113.392 77.1077 113.596 77.1118C113.773 77.1153 113.897 76.942 113.971 76.7804C114.246 76.1772 114.269 75.4853 114.181 74.8273Z" fill="#E0E0E0"/>
<path d="M93.6665 89.3263C93.6665 89.3263 92.2722 91.3702 92.1578 92.6987C92.0823 93.5778 92.6681 96.998 93.073 99.2105C93.3053 100.481 93.8017 101.686 94.5297 102.753L95.4324 104.075C96.7373 105.986 97.8251 108.036 98.6759 110.187C100.434 114.634 103.389 122.12 103.492 122.479C103.64 122.99 104.806 125.093 104.806 125.093L106.368 106.405L111.083 97.0618C111.494 96.2485 111.723 95.3562 111.756 94.4466L111.866 91.4472C111.906 90.3483 111.515 89.2778 110.776 88.4638L110.539 91.1636L102.72 98.2668L93.6506 92.1641L93.6665 89.3263Z" fill="white"/>
<path d="M102.323 98.3258C102.364 98.3909 101.447 98.6558 100.689 99.8684C99.901 101.039 99.3061 102.929 98.7903 105.039C98.7376 105.247 98.6863 105.454 98.6377 105.647L98.5677 105.926L98.3486 105.742C96.7699 104.419 95.5573 103.05 94.6809 102.078C93.8121 101.098 93.2935 100.49 93.3275 100.457C93.3622 100.424 93.9446 100.974 94.8605 101.91C95.7826 102.837 97.023 104.171 98.5774 105.464L98.2883 105.559C98.3368 105.365 98.3881 105.159 98.4401 104.95C98.9574 102.832 99.6022 100.906 100.479 99.7221C100.906 99.1314 101.365 98.7286 101.733 98.5442C102.092 98.3493 102.321 98.3126 102.323 98.3258Z" fill="#263238"/>
<path d="M107.904 103.362C107.963 103.402 107.245 104.562 106.144 106.224L105.856 106.658L105.848 106.13C105.836 105.371 105.624 104.505 105.365 103.588C104.951 101.986 104.567 100.541 103.975 99.6528C103.405 98.7542 102.814 98.3882 102.86 98.3334C102.873 98.3147 103.026 98.3902 103.277 98.5691C103.526 98.7508 103.862 99.0572 104.187 99.51C104.868 100.411 105.303 101.902 105.715 103.495C105.971 104.408 106.185 105.312 106.172 106.133L105.877 106.04C107.026 104.412 107.845 103.322 107.904 103.362Z" fill="#263238"/>
<path d="M104.327 123.818C104.227 123.824 103.782 118.158 103.331 111.164C102.881 104.168 102.597 98.4929 102.696 98.4866C102.796 98.4804 103.241 104.145 103.691 111.141C104.142 118.135 104.426 123.811 104.327 123.818Z" fill="#263238"/>
<path d="M86.8552 70.1022C86.7685 70.1445 86.4662 69.3826 86.7727 68.475C87.0694 67.5639 87.7676 67.1334 87.8113 67.2194C87.8806 67.2991 87.3703 67.7921 87.1152 68.5887C86.8434 69.3798 86.9578 70.0794 86.8552 70.1022Z" fill="#E0E0E0"/>
<path d="M98.2904 70.494C98.2169 70.555 97.76 69.9657 97.7641 69.0893C97.76 68.2129 98.2169 67.6236 98.2911 67.6846C98.3833 67.7352 98.1177 68.3245 98.1254 69.0893C98.117 69.854 98.3826 70.4434 98.2904 70.494Z" fill="#E0E0E0"/>
</svg>
