<svg width="137" height="36" viewBox="0 0 137 36" fill="none" xmlns="http://www.w3.org/2000/svg">
<path d="M11.5961 27H4.99935L0.325402 7.18009H5.29517L7.69131 18.4212L8.37169 22.7698H8.6971L9.61414 18.4212L12.9273 7.18009H19.5241L22.8077 18.4212L23.7247 22.7698H24.0501L24.7305 18.4212L27.1267 7.18009H31.9781L27.2746 27H20.6778L17.7196 17.09L16.3292 11.3807H16.0038L14.6135 17.09L11.5961 27ZM38.0653 27.2958C34.8704 27.2958 32.9476 25.8167 32.9476 23.3318C32.9476 21.1428 34.5746 19.782 37.7399 19.4566L44.1 18.8058V18.2437C44.1 16.3209 43.2421 15.7884 40.8756 15.7884C38.6273 15.7884 37.7103 16.3801 37.7103 18.0662V18.1846H33.2434V18.0958C33.2434 14.4277 36.3199 11.8836 41.201 11.8836C46.1412 11.8836 48.4781 14.4277 48.4781 18.3029V27H44.3367V23.5981H44.1C43.4196 25.9055 41.3489 27.2958 38.0653 27.2958ZM37.4145 23.036C37.4145 23.8347 38.0357 24.1601 39.3373 24.1601C42.3547 24.1601 43.9817 23.4502 44.1 21.3498L38.9527 21.9415C37.8878 22.0302 37.4145 22.3261 37.4145 23.036ZM55.1646 27H50.7273V7.18009H55.1646V27Z" fill="#F4A623"/>
<path d="M92.2779 32.0289H89.8522V28.0058H93.4908C94.5853 28.0058 95.0586 27.71 95.3544 27.0592L88.1069 12.1794H93.1358L96.2715 18.9537L97.5139 22.4444H97.8097L98.993 18.9241L101.803 12.1794H106.743L99.4072 28.065C97.9872 31.1711 96.0052 32.0289 92.2779 32.0289ZM118.254 27H114.585C111.124 27 109.024 25.373 109.024 21.6457V15.8476H106.687V12.1794H109.024V9.30999H113.461V12.1794H118.254V15.8476H113.461V21.1428C113.461 22.6219 114.023 23.0064 115.591 23.0064H118.254V27ZM127.784 27.2958C122.844 27.2958 119.472 24.8701 119.472 19.6045C119.472 14.8714 122.815 11.8836 127.696 11.8836C132.547 11.8836 135.771 14.4277 135.771 19.072C135.771 19.6045 135.712 19.9891 135.653 20.492H123.584C123.702 22.7698 124.767 23.746 127.636 23.746C130.269 23.746 131.186 23.0656 131.186 21.7936V21.4978H135.624V21.8232C135.624 25.0476 132.488 27.2958 127.784 27.2958ZM127.607 15.3447C124.974 15.3447 123.85 16.2322 123.643 18.155H131.512C131.393 16.2026 130.21 15.3447 127.607 15.3447Z" fill="#214F6F"/>
<path d="M66.5257 9.96063H62.2098C61.5891 9.96063 61.0859 10.4526 61.0859 11.0595V12.9505C61.0859 13.5574 61.5891 14.0494 62.2098 14.0494H66.5257C67.1464 14.0494 67.6496 13.5574 67.6496 12.9505V11.0595C67.6496 10.4526 67.1464 9.96063 66.5257 9.96063Z" fill="#214F6F"/>
<path d="M66.5257 15.4281H62.2098C61.5891 15.4281 61.0859 15.92 61.0859 16.5269V18.4179C61.0859 19.0248 61.5891 19.5168 62.2098 19.5168H66.5257C67.1464 19.5168 67.6496 19.0248 67.6496 18.4179V16.5269C67.6496 15.92 67.1464 15.4281 66.5257 15.4281Z" fill="#214F6F"/>
<path d="M66.5257 21.9885H62.2098C61.5891 21.9885 61.0859 22.4805 61.0859 23.0874V24.9783C61.0859 25.5852 61.5891 26.0772 62.2098 26.0772H66.5257C67.1464 26.0772 67.6496 25.5852 67.6496 24.9783V23.0874C67.6496 22.4805 67.1464 21.9885 66.5257 21.9885Z" fill="#214F6F"/>
<path d="M75.1969 3.82007H71.0669C70.4462 3.82007 69.943 4.31205 69.943 4.91893V6.74441C69.943 7.35129 70.4462 7.84327 71.0669 7.84327H75.1969C75.8176 7.84327 76.3208 7.35129 76.3208 6.74441V4.91893C76.3208 4.31205 75.8176 3.82007 75.1969 3.82007Z" fill="#214F6F"/>
<path d="M83.8134 9.96957H79.6377C79.017 9.96957 78.5138 10.4615 78.5138 11.0684V12.9773C78.5138 13.5842 79.017 14.0762 79.6377 14.0762H83.8134C84.4341 14.0762 84.9373 13.5842 84.9373 12.9773V11.0684C84.9373 10.4615 84.4341 9.96957 83.8134 9.96957Z" fill="#214F6F"/>
<path d="M75.1878 16.122H71.0791C70.4584 16.122 69.9552 16.614 69.9552 17.2208V19.0969C69.9552 19.7038 70.4584 20.1958 71.0791 20.1958H75.1878C75.8085 20.1958 76.3117 19.7038 76.3117 19.0969V17.2208C76.3117 16.614 75.8085 16.122 75.1878 16.122Z" fill="#214F6F"/>
<path d="M67.7196 4.82964V6.76232C67.7196 7.36982 67.217 7.86118 66.5957 7.86118H62.4108C61.6585 7.86118 61.1225 7.15243 61.3326 6.44666C61.5458 5.73791 61.9022 5.10063 62.4748 4.58544C62.956 4.15066 63.7022 3.86478 64.3631 3.78438C65.0941 3.69504 65.8403 3.71291 66.6231 3.73078C67.2323 3.74567 67.7196 4.23405 67.7196 4.82964Z" fill="#214F6F"/>
<path d="M61.2047 29.9694C61.0524 29.2785 61.5793 28.6263 62.3012 28.6263C63.6992 28.6263 65.1002 28.6263 66.4982 28.6263C67.1195 28.6263 67.6221 29.1177 67.6221 29.7252V31.7413C67.6221 32.3011 67.1926 32.7776 66.6231 32.8342C63.5743 33.1349 61.6798 32.1344 61.2047 29.9724V29.9694Z" fill="#214F6F"/>
<path d="M83.7281 7.882H79.6377C79.0163 7.882 78.5138 7.39064 78.5138 6.78314C78.5138 6.12501 78.5138 5.46986 78.5138 4.81471C78.5138 4.25784 78.9432 3.79627 79.5067 3.7248C82.3301 3.36744 84.3403 4.4246 84.8216 6.53596C84.9799 7.22685 84.45 7.88498 83.7251 7.88498L83.7281 7.882Z" fill="#214F6F"/>
<path d="M78.5046 17.2179V19.1506C78.5046 19.7581 79.0072 20.2494 79.6285 20.2494H83.7738C84.4652 20.2494 85.0012 19.6449 84.8855 18.9778C84.6083 17.3727 83.2164 16.122 81.4712 16.122C80.8621 16.122 80.256 16.122 79.6285 16.122C79.0011 16.122 78.5046 16.6133 78.5046 17.2208V17.2179Z" fill="#214F6F"/>
<path d="M83.8134 22.2684H79.6377C79.017 22.2684 78.5138 22.7604 78.5138 23.3673V25.2761C78.5138 25.883 79.017 26.375 79.6377 26.375H83.8134C84.4341 26.375 84.9373 25.883 84.9373 25.2761V23.3673C84.9373 22.7604 84.4341 22.2684 83.8134 22.2684Z" fill="#214F6F"/>
<path d="M75.1878 28.808H71.0791C70.4584 28.808 69.9552 29.3 69.9552 29.9069V31.783C69.9552 32.3899 70.4584 32.8819 71.0791 32.8819H75.1878C75.8085 32.8819 76.3117 32.3899 76.3117 31.783V29.9069C76.3117 29.3 75.8085 28.808 75.1878 28.808Z" fill="#214F6F"/>
<path d="M78.5046 31.7829V29.8503C78.5046 29.2428 79.0072 28.7514 79.6285 28.7514H83.7738C84.4652 28.7514 85.0012 29.3559 84.8855 30.023C84.6083 31.6281 83.2164 32.8788 81.4712 32.8788C80.8621 32.8788 80.256 32.8788 79.6285 32.8788C79.0072 32.8788 78.5046 32.3875 78.5046 31.78V31.7829Z" fill="#214F6F"/>
</svg>
