<svg width="48" height="48" viewBox="0 0 48 48" fill="none" xmlns="http://www.w3.org/2000/svg">
<g clip-path="url(#clip0_251_871)">
<mask id="mask0_251_871" style="mask-type:luminance" maskUnits="userSpaceOnUse" x="0" y="0" width="48" height="48">
<path d="M48 0H0V48H48V0Z" fill="white"/>
</mask>
<g mask="url(#mask0_251_871)">
<path d="M14.1172 16.3059C11.4506 16.3059 9.28821 18.4683 9.28821 21.1349C9.28821 23.8014 11.4506 25.9638 14.1172 25.9638C16.7837 25.9638 18.9461 23.8014 18.9461 21.1349C18.9461 18.4683 16.7837 16.3059 14.1172 16.3059Z" fill="#FFA726"/>
<path d="M4.45923 34.8129C4.45923 34.8129 7.16344 28.7284 14.1171 28.7284C21.0708 28.7284 23.775 34.8129 23.775 34.8129V38H4.45923V34.8129Z" fill="#455A64"/>
<path d="M33.8828 16.3059C31.2162 16.3059 29.0538 18.4683 29.0538 21.1349C29.0538 23.8014 31.2162 25.9638 33.8828 25.9638C36.5493 25.9638 38.7117 23.8014 38.7117 21.1349C38.7117 18.4683 36.5493 16.3059 33.8828 16.3059Z" fill="#FFA726"/>
<path d="M43.5406 34.8129C43.5406 34.8129 40.8364 28.7284 33.8827 28.7284C26.9291 28.7284 24.2249 34.8129 24.2249 34.8129V38H43.5406V34.8129Z" fill="#455A64"/>
<path d="M24 11.1201C20.686 11.1201 18 13.8061 18 17.1201C18 20.4341 20.686 23.1201 24 23.1201C27.314 23.1201 30 20.4341 30 17.1201C30 13.8061 27.314 11.1201 24 11.1201Z" fill="#FFB74D"/>
<path d="M36 34.1C36 34.1 32.7 26.6 24 26.6C15.3 26.6 12 34.1 12 34.1V38H36V34.1Z" fill="#607D8B"/>
</g>
</g>
<defs>
<clipPath id="clip0_251_871">
<rect width="48" height="48" fill="white"/>
</clipPath>
</defs>
</svg>
